<svg xmlns="http://www.w3.org/2000/svg" viewBox="0 0 8.47 8.47" height="32" width="32"><path d="M3.72 1.85l-.04.02a5.7 5.7 0 00-.48.34l-.72.53c-.6.42-1.06.7-1.3.78-.1.04-.15.04-.35.04-.21 0-.26 0-.33-.04-.06-.04-.09-.04-.14-.03-.06.02-.1.07-.1.15l.05.2a.7.7 0 00.37.44c.12.06.24.08.4.07.2-.01.38-.07.62-.2.3-.17.58-.38.94-.74.2-.2.35-.37.5-.56l.1-.11c-.2.32-.43.64-.66.96-.14.18-.48.69-.62.92a4.6 4.6 0 00-.64 1.58c-.05.3-.04.53.01.69.1.26.28.41.5.42.13.01.21-.02.24-.07.02-.03.02-.04.02-.15.01-.2.03-.37.1-.61l.03-.14.1-.2c.35-.7.89-1.54 1.44-2.24.5-.62.93-1.04 1.16-1.1h.02l-.01.01c-.32.37-.61.77-.88 1.18-.49.8-.8 1.59-.89 2.22-.01.13-.02.37 0 .46.02.16.1.33.2.43.09.1.2.15.34.19.2.05.38-.02.38-.16 0-.03 0-.04-.05-.1a.57.57 0 01-.08-.24v-.05l.04-.12A6.17 6.17 0 015.63 4.3a.6.6 0 01.19-.09 4.21 4.21 0 00-1.16 2.7.86.86 0 00.5.9c.07 0 .15.03.2.04.17.02.29-.09.2-.2-.1-.14-.16-.3-.19-.46-.02-.1-.02-.3 0-.4.02-.35.14-.72.37-1.16.2-.4.46-.79.8-1.22.19-.22.17-.2.17-.25 0-.05 0-.08-.04-.16a.95.95 0 00-.29-.35c-.15-.1-.27-.14-.37-.1a9.7 9.7 0 00-1.7 1.72c.35-.82.81-1.6 1.37-2.3.14-.17.14-.17.15-.21a.45.45 0 00-.06-.18 1.14 1.14 0 00-.14-.2 1.02 1.02 0 00-.24-.2c-.1-.05-.18-.06-.26-.03-.13.06-.36.27-.74.65-.37.39-.73.79-1.08 1.19.3-.53.62-1.04.95-1.54l.1-.16a.19.19 0 000-.12.66.66 0 00-.27-.2c-.09-.04-.25-.1-.31-.11zM7.38 4a.41.41 0 00-.21.07.14.14 0 00-.04.09l.04.05.09.12.08.1.02.03h-.07c-.24.03-.47.13-.68.3-.25.2-.49.57-.54.86a.82.82 0 000 .31c.02.16.11.33.24.48l.19.19c.21.2.29.28.32.36.02.06.02.16 0 .24-.05.18-.2.36-.32.4l-.16-.04a.24.24 0 01-.1-.09L6.2 7.4v-.08l.04-.06c.02-.05.08-.12.12-.12l.08.02c.04.02.08.03.11.01l.03-.04c.02-.03.02-.05.02-.1a.39.39 0 00-.05-.19.43.43 0 00-.27-.2.8.8 0 00-.25.01.5.5 0 00-.32.27.7.7 0 00-.09.4c.01.1.02.14.05.22.1.19.29.32.52.35h.27c.27-.03.5-.12.66-.27.07-.07.1-.12.14-.2.08-.15.1-.33.08-.5a.78.78 0 00-.06-.2c-.06-.1-.1-.14-.28-.32-.14-.14-.2-.2-.22-.24a.7.7 0 01-.1-.23.8.8 0 010-.25c.02-.1.09-.25.19-.4.08-.12.12-.17.2-.25.16-.16.31-.24.46-.24.07-.01.09 0 .11.05.04.08-.01.26-.14.51-.11.24-.3.52-.41.66-.09.1-.1.16-.08.2.01.05.05.06.12.07.1 0 .23-.03.37-.1.22-.1.32-.2.43-.44.11-.23.21-.53.23-.7V4.9c-.02-.2-.11-.32-.3-.39-.08-.03-.08-.03-.14 0-.08.05-.11.06-.16.06a.36.36 0 01-.13-.05s0 0 0 0 0 0 0 0 0 0 0 0h.01l.06.02c.03 0 .03 0 .08-.03l.16-.1c.19-.11.25-.14.35-.14l.07-.01c.04-.03.04-.1 0-.16-.01-.04-.03-.06-.1-.08l-.15-.01a.45.45 0 00-.3.1l-.03.01-.04-.04-.1-.07c-.02-.02-.03-.02-.07-.02zm.06.53h0c.02 0 .01 0 0 0z" fill="#fff" stroke="#fff" stroke-width=".42" stroke-linejoin="round" stroke-linecap="round"/><path d="M3.72 1.85l-.04.02a5.7 5.7 0 00-.48.34l-.72.53c-.6.42-1.06.7-1.3.78-.1.04-.15.04-.35.04-.21 0-.26 0-.33-.04-.06-.04-.09-.04-.14-.03-.06.02-.1.07-.1.15l.05.2a.7.7 0 00.37.44c.12.06.24.08.4.07.2-.01.38-.07.62-.2.3-.17.58-.38.94-.74.2-.2.35-.37.5-.56l.1-.11c-.2.32-.43.64-.66.96-.14.18-.48.69-.62.92a4.6 4.6 0 00-.64 1.58c-.05.3-.04.53.01.69.1.26.28.41.5.42.13.01.21-.02.24-.07.02-.03.02-.04.02-.15.01-.2.03-.37.1-.61l.03-.14.1-.2c.35-.7.89-1.54 1.44-2.24.5-.62.93-1.04 1.16-1.1h.02l-.01.01c-.32.37-.61.77-.88 1.18-.49.8-.8 1.59-.89 2.22-.01.13-.02.37 0 .46.02.16.1.33.2.43.09.1.2.15.34.19.2.05.38-.02.38-.16 0-.03 0-.04-.05-.1a.57.57 0 01-.08-.24v-.05l.04-.12A6.17 6.17 0 015.63 4.3a.6.6 0 01.19-.09 4.21 4.21 0 00-1.16 2.7.86.86 0 00.5.9c.07 0 .15.03.2.04.17.02.29-.09.2-.2-.1-.14-.16-.3-.19-.46-.02-.1-.02-.3 0-.4.02-.35.14-.72.37-1.16.2-.4.46-.79.8-1.22.19-.22.17-.2.17-.25 0-.05 0-.08-.04-.16a.95.95 0 00-.29-.35c-.15-.1-.27-.14-.37-.1a9.7 9.7 0 00-1.7 1.72c.35-.82.81-1.6 1.37-2.3.14-.17.14-.17.15-.21a.45.45 0 00-.06-.18 1.14 1.14 0 00-.14-.2 1.02 1.02 0 00-.24-.2c-.1-.05-.18-.06-.26-.03-.13.06-.36.27-.74.65-.37.39-.73.79-1.08 1.19.3-.53.62-1.04.95-1.54l.1-.16a.19.19 0 000-.12.66.66 0 00-.27-.2c-.09-.04-.25-.1-.31-.11zM7.38 4a.41.41 0 00-.21.07.14.14 0 00-.04.09l.04.05.09.12.08.1.02.03h-.07c-.24.03-.47.13-.68.3-.25.2-.49.57-.54.86a.82.82 0 000 .31c.02.16.11.33.24.48l.19.19c.21.2.29.28.32.36.02.06.02.16 0 .24-.05.18-.2.36-.32.4l-.16-.04a.24.24 0 01-.1-.09L6.2 7.4v-.08l.04-.06c.02-.05.08-.12.12-.12l.08.02c.04.02.08.03.11.01l.03-.04c.02-.03.02-.05.02-.1a.39.39 0 00-.05-.19.43.43 0 00-.27-.2.8.8 0 00-.25.01.5.5 0 00-.32.27.7.7 0 00-.09.4c.01.1.02.14.05.22.1.19.29.32.52.35h.27c.27-.03.5-.12.66-.27.07-.07.1-.12.14-.2.08-.15.1-.33.08-.5a.78.78 0 00-.06-.2c-.06-.1-.1-.14-.28-.32-.14-.14-.2-.2-.22-.24a.7.7 0 01-.1-.23.8.8 0 010-.25c.02-.1.09-.25.19-.4.08-.12.12-.17.2-.25.16-.16.31-.24.46-.24.07-.01.09 0 .11.05.04.08-.01.26-.14.51-.11.24-.3.52-.41.66-.09.1-.1.16-.08.2.01.05.05.06.12.07.1 0 .23-.03.37-.1.22-.1.32-.2.43-.44.11-.23.21-.53.23-.7V4.9c-.02-.2-.11-.32-.3-.39-.08-.03-.08-.03-.14 0-.08.05-.11.06-.16.06a.36.36 0 01-.13-.05h.01l.06.02c.03 0 .03 0 .08-.03l.16-.1c.19-.11.25-.14.35-.14l.07-.01c.04-.03.04-.1 0-.16-.01-.04-.03-.06-.1-.08l-.15-.01a.45.45 0 00-.3.1l-.03.01-.04-.04-.1-.07c-.02-.02-.03-.02-.07-.02zm.06.53c.02 0 .01 0 0 0z"/><circle r="1.14" cy="1.59" cx="1.59" fill="red" stroke="#fff" stroke-width=".36"/></svg>