<svg width="2000" height="2000" xmlns="http://www.w3.org/2000/svg"><path d="M1590 1850a139 139 0 01-67-26l-4 4c-4 6-14 12-23 15-7 3-10 3-20 3a138 138 0 01-92-40c-21-20-35-43-42-72-3-11-3-13-4-36a617 617 0 0140-225l-22 32c-32 51-57 100-69 137-4 12-4 14-4 19 1 8 5 18 9 24l7 11c2 5 2 6 2 18s0 12-3 19c-7 14-19 23-38 29-7 2-9 2-23 2-13 0-17 0-26-2-25-7-43-17-60-34a140 140 0 01-39-114c0-28 0-35 2-49a794 794 0 0195-269l-10 14c-66 91-123 184-163 263-14 28-15 32-18 44-10 37-14 65-15 94l-1 21-3 7c-5 9-11 15-20 20-11 5-18 6-37 6-17 0-19 0-27-2-37-11-63-39-77-81-5-15-6-25-6-51 0-56 12-115 39-181a938 938 0 01100-186c-28 18-35 23-55 32-26 13-42 18-63 22-13 2-49 3-63 1a132 132 0 01-104-90c-7-23-8-28-8-43 0-13 1-14 4-20 5-10 11-16 21-21 7-4 9-4 18-5 11 0 20 1 28 6 8 4 15 5 40 5l31-1c24-6 66-28 128-69 41-26 74-50 152-108 74-55 93-68 106-75 7-3 8-3 17-3 17 0 40 7 66 19 19 9 29 16 39 27 7 7 10 10 13 17s3 8 4 18c0 13-2 20-10 33l-6 9 15-14c36-34 61-54 80-63 7-3 8-4 22-4 16 0 22 1 35 7a174 174 0 0178 85c3 8 3 9 4 23v15l-3 6-17 24c-42 52-81 106-110 154-4 6-4 6 16-13 56-54 91-81 113-88 6-2 8-2 21-2 11 1 15 1 21 3 33 12 68 45 85 81 6 14 8 24 8 36 0 9-1 11-4 17-1 4-6 10-9 15l-7 9 11-5 21-9 11-4-2-4c-2-2-5-6-6-10-3-6-3-7-3-16 0-8 1-10 4-16 4-9 11-15 23-21 13-7 23-9 36-9 11 0 17 2 27 8l6 4 5-2c14-6 18-7 43-7 26 0 28 1 42 8 10 5 15 10 19 20 5 10 6 15 6 27 0 8-1 11-3 15-4 8-9 13-16 17-5 3-7 3-14 3h-7l4 3c5 4 13 12 17 19s10 20 12 29c3 10 4 30 2 43-3 29-18 75-37 113-22 45-41 63-86 82l-30 9-3 1 3 4c9 9 21 31 26 45 3 12 5 24 5 43 0 28-4 46-15 68-7 14-14 23-23 33-27 28-69 46-113 50h-52zm49-100l6-5-8-1-11-1c-2-1-3-1-4 2-2 5 2 8 11 10l6-5zm-129-100c17-23 44-38 67-38h6l-8-12c-8-13-17-31-22-44-4-13-6-25-6-41v-13l-5 10c-30 62-45 112-50 163v7l6-12 12-20zm201-126c27-34 60-92 73-128 4-12 3-12-9-6-19 10-40 31-59 60-23 35-28 57-21 82l3 8 3-4 10-12zm-283-264v-1l-1 1h1c1 0 0 0 0 0zm-674 324c-10-4-20-13-25-23-2-5-2-7-2-17 0-11 0-12 3-18 4-8 12-16 20-20 5-2 7-2 17-2 11 0 12 0 18 3 8 4 16 12 20 20 2 5 3 7 3 17s-1 12-3 17c-4 8-12 16-20 20-6 3-7 3-16 4l-15-1zm-64-25c-8-4-12-10-12-19 0-13 8-21 21-21s21 8 21 21c0 9-4 15-11 19-5 2-15 3-19 0zm-69-11c-8-4-12-10-12-19 0-13 8-21 21-21s21 8 21 21c0 9-4 15-11 19-5 2-15 3-19 0zm-68-19c-8-4-12-10-12-19 0-13 8-21 21-21s21 8 21 21c0 9-4 15-11 19-5 2-15 3-19 0zm-66-27c-8-4-12-10-12-19 0-13 8-21 21-21s21 8 21 21c0 9-4 15-11 19-5 2-15 3-19 0zm-66-11c-10-4-20-13-25-23-2-5-2-7-2-17 0-11 0-12 3-18 4-8 12-16 20-20 5-2 7-2 17-2 11 0 12 0 18 3 8 4 16 12 20 20 2 5 3 7 3 17s-1 12-3 17c-4 8-12 16-20 20-6 3-7 3-16 4l-15-1zm-54-61c-8-4-12-10-12-19 0-13 8-21 21-21s21 8 21 21c0 9-4 15-11 19-5 2-15 3-19 0zm-53-44c-8-4-12-10-12-19 0-13 8-21 21-21s21 8 21 21c0 9-4 15-11 19-5 2-15 3-19 0zm-49-50c-8-4-12-10-12-19 0-13 8-21 21-21s21 8 21 21c0 9-4 15-11 19-5 2-15 3-19 0zm-131-35c-4-2-7-7-7-13l1-8 27-20 26-17-5-3c-8-4-15-11-18-19-3-6-3-7-3-18s0-12 3-18c4-8 12-16 20-20 5-2 7-2 17-2s12 0 17 2c13 6 22 19 24 32l1 7 239-166 240-167-10-22a32366 32366 0 01-143-272 63840 63840 0 00-117-223c-3-6-4-7-8-8-11-3-22-12-27-23-3-7-4-20-2-29l2-7-11-21a3857 3857 0 00-47-89c-16-31-17-33-17-38 0-6 2-10 7-13 6-3 16 0 19 5l67 102 21 32h6c12 2 24 11 30 23 3 5 3 8 4 15l-1 14-1 5 16 25a395655 395655 0 00199 300l17 27 1-12a579629 579629 0 009-394c4-9 21-9 25 0 1 2 14 97 35 265l35 263 124-87c11-7 15-9 23-9 12 0 22 6 27 17 4 10 2 25-5 32l-31 20c-93 61-131 86-130 87a298 298 0 014 36l6 47c2 18 2 21-2 24-2 3-4 3-8 3s-6-1-17-9l-14-8-11 30c-2 3-6 6-11 6-8 0-9-1-26-36l-16-33-250 163c-246 161-249 162-246 164 7 4 11 10 11 19 0 13-8 21-21 21-12 0-20-7-21-18l-1-5-32 22c-30 19-34 21-37 21l-7-2zm18-142c-8-4-12-10-12-19 0-13 8-21 21-21s21 8 21 21c0 9-4 15-11 19-5 2-15 3-19 0zm-20-66c-8-4-12-10-12-19 0-13 8-21 21-21s21 8 21 21c0 9-4 15-11 19-5 2-15 3-19 0zm-17-68c-8-4-12-10-12-19 0-13 8-21 21-21s21 8 21 21c0 9-4 15-11 19-5 2-15 3-19 0zm-9-68c-8-4-12-10-12-19 0-13 8-21 21-21s21 8 21 21c0 9-4 15-11 19-5 2-15 3-19 0zm-5-49c-10-4-20-13-25-23-2-5-2-7-2-17 0-11 0-12 3-18 4-8 12-16 20-20 5-2 7-3 17-3 11 0 12 1 18 4 8 4 16 12 20 20 2 5 3 7 3 17s-1 12-3 17c-4 8-12 16-20 20-6 3-7 3-16 4l-15-1zm1313-1c-10-4-20-13-25-23-2-5-2-7-2-17 0-11 0-12 3-18 4-8 12-16 20-20 5-2 7-3 17-3 11 0 12 1 18 4 8 4 16 12 20 20 2 5 3 7 3 17s-1 12-3 17c-4 8-12 16-20 20-6 3-7 3-16 4l-15-1zM108 819c-7-4-11-10-11-19 0-13 8-21 21-21s21 8 21 21c0 9-4 15-11 19-5 2-15 3-20 0zm1304-2c-7-4-11-10-11-19 0-13 8-21 21-21s21 8 21 21c0 9-4 15-11 19-5 2-15 3-20 0zM121 752c-7-4-11-10-11-19 0-13 8-21 21-21s21 8 21 21c0 9-4 15-11 19-5 2-15 3-20 0zm1279-3c-7-4-11-10-11-19 0-13 8-21 21-21s21 8 21 21c0 9-4 15-11 19-5 2-15 3-20 0zM140 685c-7-4-11-10-11-19 0-13 8-21 21-21s21 8 21 21c0 9-4 15-11 19-5 2-15 3-20 0zm1241-2c-7-4-11-10-11-19 0-13 8-21 21-21s21 8 21 21c0 9-4 15-11 19-5 2-15 3-20 0zM166 622c-7-4-11-10-11-19 0-13 8-21 21-21s21 8 21 21c0 9-4 15-11 19-5 2-15 3-20 0zm1189-3c-7-4-11-10-11-19 0-13 8-21 21-21s21 8 21 21c0 9-4 15-11 19-5 2-15 3-20 0zM196 581c-10-4-20-13-25-23-2-5-2-7-2-17 0-11 0-12 3-18 4-8 12-16 20-20 5-2 7-3 17-3 11 0 12 1 18 4 8 4 16 12 20 20 2 5 3 7 3 17s-1 12-3 17c-4 8-12 16-20 20-6 3-7 3-16 4l-15-1zm1124-2c-10-4-20-13-25-23-2-5-2-7-2-17 0-11 0-12 3-18 4-8 12-16 20-20 5-2 7-3 17-3 11 0 12 1 18 4 8 4 16 12 20 20 2 5 3 7 3 17s-1 12-3 17c-4 8-12 16-20 20-6 3-7 3-16 4l-15-1zM237 505c-7-4-11-10-11-19 0-13 8-21 21-21s21 8 21 21c0 9-4 15-11 19-5 2-15 3-20 0zm1047-3c-7-4-11-10-11-19 0-13 8-21 21-21s21 8 21 21c0 9-4 15-11 19-5 2-15 3-20 0zM280 453c-7-4-11-10-11-19 0-13 8-21 21-21s21 8 21 21c0 9-4 15-11 19-5 2-15 3-20 0zm961-3c-7-4-11-10-11-19 0-13 8-21 21-21s21 8 21 21c0 9-4 15-11 19-5 2-15 3-20 0zm-912-45c-7-4-11-10-11-19 0-13 8-21 21-21s21 8 21 21c0 9-4 15-11 19-5 2-15 3-20 0zm863-2c-7-4-11-10-11-19 0-13 8-21 21-21s21 8 21 21c0 9-4 15-11 19-5 2-15 3-20 0zm-810-39c-7-4-11-10-11-19 0-13 8-21 21-21s21 8 21 21c0 9-4 15-11 19-5 2-15 3-20 0zm757-3c-7-4-11-10-11-19 0-13 8-21 21-21s21 8 21 21c0 9-4 15-11 19-5 2-15 3-20 0zm-60-16c-10-4-20-13-25-23-2-5-3-7-3-17 0-11 1-12 4-18 4-8 12-16 20-20 5-2 7-3 17-3 11 0 12 1 18 4 8 4 16 12 20 20 2 5 2 7 2 17s0 12-2 17c-4 8-12 16-20 20-6 3-7 3-16 4l-15-1zm-581-48c-7-4-11-10-11-19 0-13 8-21 21-21s21 8 21 21c0 9-4 15-11 19-5 2-15 3-20 0zm523-2c-7-4-11-10-11-19 0-13 8-21 21-21s21 8 21 21c0 9-4 15-11 19-5 2-15 3-20 0zm-459-22c-7-4-11-10-11-19 0-13 8-21 21-21s21 8 21 21c0 9-4 15-11 19-5 2-15 3-20 0zm396-2c-7-4-11-10-11-19 0-13 8-21 21-21s21 8 21 21c0 9-4 15-11 19-5 2-15 3-20 0zm-200-9c-10-4-20-13-25-23-2-5-3-7-3-17 0-11 1-12 4-18 4-8 12-16 20-20 5-2 7-3 17-3 11 0 12 1 18 4 8 4 16 12 20 20 2 5 2 7 2 17s0 12-2 17c-4 8-12 16-20 20-6 3-7 3-16 4l-15-1zm-132-6c-7-4-11-10-11-19 0-13 8-21 21-21s21 8 21 21c0 9-4 15-11 19-5 2-15 3-20 0zm267-2c-7-4-11-10-11-19 0-13 8-21 21-21s21 8 21 21c0 9-4 15-11 19-5 2-15 3-20 0zm-200-9c-7-4-11-10-11-19 0-13 8-21 21-21s21 8 21 21c0 9-4 15-11 19-5 2-15 3-20 0zm134 0c-7-4-11-10-11-19 0-13 8-21 21-21s21 8 21 21c0 9-4 15-11 19-5 2-15 3-20 0z" fill="#fefefe"/><path d="M1471 1354l1-1-1 1-1 1 1-1zm-228-209l1-1-1 1-1 1 1-1zm-799-47zm20-13v-1l1 1h-1c-1 0 0 0 0 0zm3-2v-1l1 1h-1c-1 0 0 0 0 0zm3-2v-1l1 1h-1c-1 0 0 0 0 0zm3-2v-1l1 1h-1c-1 0 0 0 0 0z" fill="#f9fcf9"/><path d="M1610 1845c-30-4-57-18-71-39-6-9-6-9 0-4l13 9c17 10 32 14 54 15 51 2 98-13 127-42 11-10 16-17 22-30 11-22 15-49 12-74-2-11-5-19-10-29-3-6-3-6-1-4 6 5 18 25 22 37 7 20 6 51-1 73-3 11-10 26-16 33-20 27-54 46-95 53-14 2-44 3-57 2zm-132-6a125 125 0 01-78-51l-4-7 5 6c17 16 33 25 56 31 19 4 34 2 41-6 6-6 6-15 1-23l-7-10c-10-14-18-36-22-59-3-14-4-43-2-60 5-51 23-107 57-173 31-61 69-118 121-183 27-33 25-30 25-38 0-7-2-15-7-24l-3-7c1 0 8 9 13 18 10 15 14 30 12 38l-8 13c-69 84-106 139-140 208-29 58-46 106-53 155-3 19-3 54-1 69 6 30 13 47 26 66 6 10 8 14 8 19 0 15-18 23-40 18zm127-70c-6-6-7-9-9-17v-12l5-10c3-7 13-17 18-18 4-1 3-1 13 4 6 3 12 4 16 1l5-6c3-8 3-22 0-33l-3-7 5 6c5 5 11 16 13 24l2 15c0 8 0 10-2 15l-5 6c-4 3-10 2-16-1-10-5-9-5-13-4-5 1-15 11-18 18-4 7-6 15-5 20l-1 4-5-5zm-655-9c-9-1-22-4-29-9-7-4-17-12-22-18l-10-14c1 0 3 1 5 4 12 10 28 16 44 17 19 1 32-3 36-11 3-4 3-6 3-23 2-31 5-55 15-92l5-21 14-29c22-44 46-87 75-134 115-184 258-351 315-367l4-1-2 2-10 12c-12 13-25 28-38 45l-21 25c-19 18-50 52-76 84-87 107-174 239-230 351-15 30-16 32-20 47-9 38-14 66-15 95-1 24-1 26-7 30-7 6-20 8-36 7zm295-1c-15-2-34-9-46-17l-15-12c-7-8-15-18-13-18l8 5c20 16 53 26 72 21 16-5 25-14 25-25 0-5-1-7-7-16-6-8-10-22-12-35l-1-9 6-18c16-48 46-106 91-173 54-81 110-144 155-174 10-7 25-14 29-14l-9 11-43 51a1006 1006 0 00-198 291c-7 19-15 44-15 49 0 15 6 33 14 44s7 19-1 28c-9 8-26 13-40 11zm432-86l-23-22c-18-16-38-38-38-40l51 46 15 19-5-3zm76-30h1c1 0 0 0 0 0v1l-1-1zm-11-41c-6-2-9-4-10-8-2-4-2-7-1-9 0-2 2-2 8-2 14 0 33-5 52-14 32-15 47-31 64-67 17-34 32-79 35-106 2-14-1-31-6-42l4 3c13 13 20 37 17 59-3 27-18 72-35 106-17 36-32 52-64 67-13 6-26 10-37 12-9 2-23 2-27 1zm-979-20l-13-8-2-3 5 3c7 3 20 4 27 0 7-3 13-9 17-16 2-5 3-7 3-14s-1-9-3-14l-3-5 3 3 6 8c2 5 3 7 3 14s-1 9-3 14c-4 7-10 13-17 16-6 3-17 3-23 2zm929-4l1-1 1 2-2-1zm-4-6c-9-11-16-26-20-41-2-9-2-26 0-38 2-15 13-37 29-61 11-17 17-25 30-37 23-24 46-36 68-36 7-1 9 0 12 2s5 7 6 13l1 4h-7c-22 2-43 14-65 37-13 12-19 20-30 37-16 24-27 46-29 61l-1 20c0 14 2 24 8 39l2 4-4-4zm-990-15c-5-4-5-5 0-4 8 0 15-6 14-14-1-5 1-5 4 0 8 11-7 25-18 18zm-69-11c-5-4-5-5 0-4 8 0 15-6 14-14-1-5 1-5 4 0 8 11-7 25-18 18zm-68-19c-5-4-5-5 0-4 8 0 15-6 14-14-1-5 1-5 4 0 8 11-7 25-18 18zm-66-27c-5-4-5-5 0-4 8 0 15-6 14-14-1-5 1-5 4 0 8 11-7 25-18 18zm-65-11l-13-8-2-3 5 3c7 3 20 4 27 0 7-3 13-9 17-16 2-5 3-7 3-14s-1-9-3-14l-3-5 3 3 6 8c2 5 3 7 3 14s-1 9-3 14c-4 7-10 13-17 16-6 3-17 3-23 2zm880-60a1496 1496 0 01206-341c21-26 21-26 22-32 0-6-3-18-8-27l-3-6 16 21c7 13 9 20 10 28 0 9 1 8-17 31a1479 1479 0 00-169 257c-3 7-7 13-14 22a1196 1196 0 00-46 57l3-10zm-935-1c-5-4-5-5 0-4 8 0 15-6 14-14-1-5 1-5 4 0 8 11-7 25-18 18zm-53-44c-5-4-5-5 0-4 8 0 15-6 14-14-1-5 1-5 4 0 8 11-7 25-18 18zm-49-50c-5-4-5-5 0-4 8 0 15-6 14-14-1-5 1-5 4 0 8 11-7 25-18 18zm1520-7l-11-5h7c6 1 6 1 12-2l25-14c29-19 39-23 53-23 6 0 9 0 11-2 2-1 5-7 5-11 0-3 1-3 5 0 7 5 11 18 9 25-2 6-5 8-15 8-7 0-10 0-16 2l-23 12-6 3-8-2-9-3-9 4c-14 9-20 10-30 8zm-981-13a108 108 0 01-75-50l5 4c11 10 29 19 43 23 25 6 58 5 86-4 34-12 77-37 117-68a1142 1142 0 00149-149l14-17a3236 3236 0 01-102 146c-8 9-39 35-58 49-50 38-94 59-132 65-10 2-37 2-47 1zm-660-3l-2-5a8675 8675 0 0067-50l5-3-2 3v13a694 694 0 01-65 44l-3-2zm1599-22l1-1 1 2-2-1zm-1-3h1c1 0 0 0 0 0v1l-1-1zm-1519-7c-5-4-5-5 0-4 8 0 15-6 14-14-1-5 1-5 4 0 8 11-7 25-18 18zm12-24c-1-3-6-5-10-6l-4-1 127-88a7790 7790 0 01380-253l5-3 5 10c4 8 5 10 4 12a225816 225816 0 01-507 329zm-16-6h1c1 0 0 0 0 0v1l-1-1zm929-4l33-58a4091 4091 0 01129-201l1-8v-4l6 5c9 9 11 16 9 25l-17 27-64 98c-12 19-16 24-32 42a7381 7381 0 00-65 74zm-965-4l-13-8-2-3 5 3c4 2 7 2 15 3h9l-4 3c-4 3-4 3-10 2zm32-17l3-9c3-10 3-18-1-26l-3-5 3 3c5 4 8 12 9 20l-1 9-10 8zm-63-67c-5-4-5-5 0-4 8 0 15-6 14-14-1-5 1-5 4 0 8 11-7 25-18 18zm-20-66c-5-4-5-5 0-4 8 0 15-6 14-14-1-5 1-5 4 0 8 11-7 25-18 18zm-17-68c-5-4-5-5 0-4 8 0 15-6 14-14-1-5 1-5 4 0 8 11-7 25-18 18zm664-27l-5-11c-5-8-5-9-2-8l2-1 16-40c1-1 14 7 14 9l-4 9a1474 1474 0 00-18 43l-3-1zm56-31c-7-5-9-7-8-8s1-5-3-41a14905 14905 0 01-8-66 21992 21992 0 01164-107c2-2 5-9 5-13 0-3 0-4 4-2 6 4 11 12 11 19 0 5-3 12-5 14l-30 19-79 51-50 33v5a1837 1837 0 008 60l4 41c-1 2-4 1-13-5zm-729-10c-5-4-5-5 0-4 8 0 15-6 14-14-1-5 1-5 4 0 8 11-7 25-18 18zm-4-49l-13-8-2-3 5 3c7 3 20 4 27 0 7-3 14-9 17-16 2-5 3-7 3-14s-1-9-3-14l-3-5 3 3 6 8c2 5 3 7 3 14s-1 9-3 14c-4 7-10 13-17 16-6 3-17 3-23 2zm1313-1l-13-8-2-3 5 3c7 3 20 4 27 0 7-3 14-9 17-16 2-5 3-7 3-14s-1-9-3-14l-3-5 3 3 6 8c2 5 3 7 3 14s-1 9-3 14c-4 7-10 13-17 16-6 3-17 3-23 2zM117 817c-5-4-5-5 0-4 8 0 15-6 14-14-1-5 1-5 4 0 8 11-7 25-18 18zm1304-2c-5-4-5-5 0-4 8 0 15-6 14-14-1-5 1-5 4 0 8 11-7 25-18 18zm-604-8c-3-15-66-517-66-518 2-1 6 1 7 3l34 258 32 256-3 3-3 2-1-4zm-687-57c-5-4-5-5 0-4 8 0 15-6 14-14-1-5 1-5 4 0 8 11-7 25-18 18zm1279-3c-5-4-5-5 0-4 8 0 15-6 14-14-1-5 1-5 4 0 8 11-7 25-18 18zm-699-74a142101 142101 0 00-231-351l1-6c3-8 2-17-1-24l-3-5 3 3 6 8c2 4 3 7 3 14v8l19 29a919869 919869 0 00201 304l20 30v17l-18-27zm-561 10c-5-4-5-5 0-4 8 0 15-6 14-14-1-5 1-5 4 0 8 11-7 25-18 18zm1241-2c-5-4-5-5 0-4 8 0 15-6 14-14-1-5 1-5 4 0 8 11-7 25-18 18zM175 620c-5-4-5-5 0-4 8 0 15-6 14-14-1-5 1-5 4 0 8 11-7 25-18 18zm1189-3c-5-4-5-5 0-4 8 0 15-6 14-14-1-5 1-5 4 0 8 11-7 25-18 18zM205 579l-13-8-2-3 5 3c7 3 20 4 27 0 7-3 14-9 17-16 2-5 3-7 3-14s-1-9-3-14l-3-5 3 3 6 8c2 5 3 7 3 14s-1 9-3 14c-4 7-10 13-17 16-6 3-17 3-23 2zm1124-2l-13-8-2-3 5 3c7 3 20 4 27 0 7-3 14-9 17-16 2-5 3-7 3-14s-1-9-3-14l-3-5 3 3 6 8c2 5 3 7 3 14s-1 9-3 14c-4 7-10 13-17 16-6 3-17 3-23 2zM246 503c-5-4-5-5 0-4 8 0 15-6 14-14-1-5 1-5 4 0 8 11-7 25-18 18zm1047-3c-5-4-5-5 0-4 8 0 15-6 14-14-1-5 1-5 4 0 8 11-7 25-18 18zM289 451c-5-4-5-5 0-4 8 0 15-6 14-14-1-5 1-5 4 0 8 11-7 25-18 18zm961-3c-5-4-5-5 0-4 8 0 15-6 14-14-1-5 1-5 4 0 8 11-7 25-18 18zm-912-45c-5-4-5-5 0-4 8 0 15-6 14-14-1-5 1-5 4 0 8 11-7 25-18 18zm863-2c-5-4-5-5 0-4 8 0 15-6 14-14-1-5 1-5 4 0 8 11-7 25-18 18zm-810-39c-5-4-5-5 0-4 8 0 15-6 14-14-1-5 1-5 4 0 8 11-7 25-18 18zm757-3c-5-4-5-5 0-4 8 0 15-6 14-14-1-5 1-5 4 0 8 11-7 25-18 18zm-703-15l-13-8-2-3 5 3 9 3c3 0 4 1 6 3 1 3 1 3-5 2zm643-1l-13-8-2-3 5 3c7 3 20 4 27 0 7-3 14-9 17-16 2-5 3-7 3-14s-1-9-3-14l-3-5 3 3 6 8c2 5 3 7 3 14s-1 9-3 14c-3 7-10 13-17 16-6 3-17 3-23 2zm-581-48c-5-4-5-5 0-4 8 0 15-6 14-14-1-5 1-5 4 0 8 11-7 25-18 18zm523-2c-5-4-5-5 0-4 8 0 15-6 14-14-1-5 1-5 4 0 8 11-7 25-18 18zm-580-20h-5l-23-35-41-62-17-26 2-2c3-3 6-3 8 0l19 28 40 61 23 37-6-1zm121-2c-5-4-5-5 0-4 8 0 15-6 14-14-1-5 1-5 4 0 8 11-7 25-18 18zm396-2c-5-4-5-5 0-4 8 0 15-6 14-14-1-5 1-5 4 0 8 11-7 25-18 18zm-200-9l-13-8-2-3 5 3c7 3 20 4 27 0 7-3 14-9 17-16 2-5 3-7 3-14s-1-9-3-14l-3-5 3 3 6 8c2 5 3 7 3 14s-1 9-3 14c-3 7-10 13-17 16-6 3-17 3-23 2zm-132-6c-5-4-5-5 0-4 8 0 15-6 14-14-1-5 1-5 4 0 8 11-7 25-18 18zm267-2c-5-4-5-5 0-4 8 0 15-6 14-14-1-5 1-5 4 0 8 11-7 25-18 18zm-200-9c-5-4-5-5 0-4 8 0 15-6 14-14-1-5 1-5 4 0 8 11-7 25-18 18zm134 0c-5-4-5-5 0-4 8 0 15-6 14-14-1-5 1-5 4 0 8 11-7 25-18 18z" fill="#9c9e9b"/><path d="M756 1575c-14-5-23-19-22-33 1-12 8-22 19-28 5-2 7-2 14-2s9 0 14 2c7 4 13 10 16 17 4 7 3 20 0 27-4 7-10 13-17 16-6 3-17 4-24 1zm-333-93c-14-5-23-19-22-33 1-12 8-22 19-28 5-2 7-2 14-2s9 0 14 2c7 4 13 10 16 17 4 7 3 20 0 27-4 7-10 13-17 16-6 3-17 4-24 1zm-239-248a33 33 0 01-3-61c5-2 7-2 14-2s9 0 14 2a33 33 0 0117 43l-3 8-17 12h-8l-14-2zm593-258l-18-37-18-35 12-8 7 3c7 3 8 4 17 4s10-1 16-4c9-4 15-10 19-19 3-6 3-7 3-16v-9l4-2c5-3 4-5 8 22l2 20 2 21c6 43 6 42 3 42-1 0-10-5-19-12l-17-10a844 844 0 00-18 41l-3-1zm-674-77c-14-5-23-19-22-33 1-12 8-22 19-28 5-2 7-2 14-2s9 0 14 2c7 4 13 10 16 17 4 7 3 20 0 27-4 7-10 13-17 16-6 3-17 4-24 1zm1313-1c-14-5-23-19-22-33 1-12 8-22 19-28 5-2 7-2 14-2s9 0 14 2c7 4 13 10 16 17 4 7 3 20 0 27-4 7-10 13-17 16-6 3-17 4-24 1zm-689-25l-2-6a4784 4784 0 01-81-153 6853 6853 0 01-79-152 64471 64471 0 01-110-209l-7-14h-4c-10-2-20-9-25-19-3-7-4-20 0-27l2-5-14-26a2076 2076 0 00-46-88 1960 1960 0 00-17-35c0-6 8-8 11-3l67 102 23 35h6c22 2 36 23 29 43l-1 7a2081 2081 0 0091 138 47705 47705 0 00140 212l18 27v-24a68855 68855 0 009-404c2-4 9-4 11 0l69 540-12 8-12 8-6-2c-23-6-46 11-49 34 0 7 0 7-4 10l-7 3zM198 572c-14-5-23-19-22-33 1-12 8-22 19-28 5-2 7-2 14-2s9 0 14 2c7 4 13 10 16 17 4 7 3 20 0 27-4 7-10 13-17 16-6 3-17 4-24 1zm1124-2c-14-5-23-19-22-33 1-12 8-22 19-28 5-2 7-2 14-2s9 0 14 2c7 4 13 10 16 17 4 7 3 20 0 27-4 7-10 13-17 16-6 3-17 4-24 1zm-241-234c-14-5-23-19-22-33 1-12 8-22 19-28 5-2 7-2 14-2s9 0 14 2c7 4 13 10 16 17 4 7 3 20 0 27-4 7-10 13-17 16-6 3-17 4-24 1zm-321-83c-14-5-23-19-22-33 1-12 8-22 19-28 5-2 7-2 14-2s9 0 14 2c7 4 13 10 16 17 4 7 3 20 0 27-4 7-10 13-17 16-6 3-17 4-24 1z" fill="#fd0000"/><path d="M1594 1825c-35-4-64-24-78-53-5-11-6-18-7-34-1-22 3-39 13-58 11-22 28-36 48-41 9-2 28-3 38-1 16 4 33 16 40 30 5 11 7 17 7 28 0 8 0 10-2 15l-5 6c-4 3-10 2-16-1-10-5-9-5-13-4-5 1-15 11-18 18l-5 10v12l3 10c3 5 10 12 16 14 6 3 19 5 24 4 18-4 41-32 48-59 3-12 3-27 0-35-5-13-16-26-48-55l-28-28c-20-23-33-49-37-72-3-12-3-37 0-47 8-43 44-98 82-129 31-25 66-41 101-44l11-1-3-4-12-16-13-18-6-7c0-4 2-10 5-13 8-6 22-11 32-11 6 0 7 0 12 3l13 10 7 7 3-3a68 68 0 0147-14c16 0 18 0 23 2 9 3 12 6 15 12 5 10 5 19-1 23-2 2-4 2-11 2-14 0-24 4-52 22l-24 14c-7 4-8 4-13 4l-8-3c-3-1-3-1-2 1 5 3 12 6 19 7 8 0 12-1 24-9 9-5 9-5 22 0 28 11 41 28 45 58v19c-3 27-18 72-35 106-17 36-32 52-64 67-21 10-40 15-56 14-11-1-16-3-18-9-4-8-1-16 12-31 18-21 45-64 62-99 19-38 26-65 21-77-4-7-7-9-17-8-22 0-45 12-68 36-13 12-19 20-31 37-15 24-26 46-28 61-2 12-2 29 0 38 3 12 8 24 15 34 4 6 12 15 33 36 28 28 33 34 41 49 5 11 8 19 10 30 3 25-1 52-12 74-6 13-11 20-22 30-23 23-58 37-98 41h-41zm-902-274c-8-5-8-18 1-22 6-4 13-2 17 4 7 12-6 25-18 18zm-69-11c-8-5-8-18 1-22 6-4 13-2 17 4 7 12-6 25-18 18zm-68-19c-8-5-8-18 1-22 6-4 13-2 17 4 7 12-6 25-18 18zm-66-27c-8-5-8-18 1-22 12-6 24 7 17 18-4 6-12 8-18 4zm-120-72c-8-5-8-18 1-22 12-6 24 7 17 18-4 6-12 8-18 4zm-53-44c-8-5-8-18 1-22 12-6 24 7 17 18-4 6-12 8-18 4zm-49-50c-8-5-8-18 1-22 12-6 24 7 17 18-4 6-12 8-18 4zm-130-35l-2-5c0-3-30 17 276-194l277-193 50-34v-7c3-23 26-40 49-34l7 1 160-111c9-6 13-8 18-8 11 0 21 10 21 21 0 5-3 12-5 14l-30 19-85 56-58 37v9c0 9 0 10-3 16-4 9-10 15-19 19-6 3-7 3-16 3s-10 0-17-3l-7-3-299 195a321436 321436 0 00-314 204l-3-2zm88-20c-8-5-8-18 1-22 6-4 13-2 17 4 7 12-6 25-18 18zm-71-122c-8-5-8-18 1-22 6-4 13-2 17 4 7 12-6 25-18 18zm-20-66c-8-5-8-18 1-22 6-4 13-2 17 4 7 12-6 25-18 18zm-17-68c-8-5-8-18 1-22 6-4 13-2 17 4 7 12-6 25-18 18zm-9-68c-8-5-8-18 1-22 6-4 13-2 17 4 7 12-6 25-18 18zm3-138c-8-5-8-18 1-22 6-4 13-2 17 4 7 12-6 25-18 18zm1304-2c-8-5-8-18 1-22 6-4 13-2 17 4 7 12-6 25-18 18zM124 744c-8-5-8-18 1-22 6-4 13-2 17 4 7 12-6 25-18 18zm1279-3c-8-5-8-18 1-22 6-4 13-2 17 4 7 12-6 25-18 18zM143 677c-8-5-8-18 1-22 6-4 13-2 17 4 7 12-6 25-18 18zm1241-2c-8-5-8-18 1-22 6-4 13-2 17 4 7 12-6 25-18 18zM169 614c-8-5-8-18 1-22 6-4 13-2 17 4 7 12-6 25-18 18zm1189-3c-8-5-8-18 1-22 6-4 13-2 17 4 7 12-6 25-18 18zM240 497a13 13 0 1118-18c7 12-6 25-18 18zm1047-3c-8-5-8-18 1-22 6-4 13-2 17 4 7 12-6 25-18 18zM283 445c-8-5-8-18 1-22 12-6 24 7 17 18-4 6-12 8-18 4zm961-3c-8-5-8-18 1-22 6-4 13-2 17 4 7 12-6 25-18 18zm-912-45c-8-5-8-18 1-22 12-6 24 7 17 18-4 6-12 8-18 4zm863-2c-8-5-8-18 1-22 6-4 13-2 17 4 7 12-6 25-18 18zm-810-39c-8-5-8-18 1-22 12-6 24 7 17 18-4 6-12 8-18 4zm757-3c-8-5-8-18 1-22 6-4 13-2 17 4 7 12-6 25-18 18zm-641-64c-8-5-8-18 1-22 6-4 13-2 17 4 7 12-6 25-18 18zm523-2c-8-5-8-18 1-22 6-4 13-2 17 4 7 12-6 25-18 18zm-459-22c-8-5-8-18 1-22 6-4 13-2 17 4 7 12-6 25-18 18zm396-2c-8-5-8-18 1-22 6-4 13-2 17 4 7 12-6 25-18 18zm-332-15a13 13 0 1118-18c7 12-6 25-18 18zm267-2a13 13 0 1118-18c7 12-6 25-18 18zm-200-9a13 13 0 1118-18c7 12-6 25-18 18zm134 0a13 13 0 1118-18c7 12-6 25-18 18z" fill="#000100"/><path d="M1468 1820c-8-1-20-5-29-8-27-11-52-36-64-62-10-22-14-43-12-72a632 632 0 0183-285 748 748 0 0191-119c-4 0-19 7-29 14-45 30-101 93-155 174a926 926 0 00-91 173l-6 18 1 9c2 13 6 27 12 35 6 9 7 11 7 16 0 20-27 31-57 23-21-5-38-14-51-28-15-15-27-40-31-65-2-14-1-49 1-69 13-95 60-212 134-333a1445 1445 0 01131-177l2-2-3 1c-34 9-98 71-174 165-83 105-164 230-217 336l-14 29-5 21c-10 37-13 61-15 92 0 17 0 19-3 23-4 8-17 12-36 11-33-2-61-25-75-64-8-24-9-57-1-104 12-72 44-151 95-236 21-35 73-112 94-139a6957 6957 0 00100-144l-15 17c-24 29-46 53-77 84-54 54-95 86-141 112-35 19-62 27-93 29-24 1-41-2-59-11-28-14-45-34-56-66-5-16-7-23-7-30 0-11 5-19 15-22 7-2 12-1 20 4 11 5 18 6 50 6 30 0 37 0 51-5 38-13 107-54 196-117l109-81c39-29 63-46 71-50l7-3 8 1c10 2 34 10 47 16 19 9 35 22 40 31 2 5 3 13 1 18l-15 23a4079 4079 0 00-143 232 5806 5806 0 01163-179c56-57 91-88 111-97 11-5 24-4 39 4 12 7 24 16 36 29a171 171 0 0121 31c5 9 8 21 8 27-1 6-1 6-22 32a1458 1458 0 00-205 346c8-12 44-56 73-89 71-81 150-154 182-169 15-7 33-2 55 14 19 15 35 34 43 53 6 12 7 16 7 24 0 7 2 4-25 37-52 65-90 122-121 183-34 66-52 122-57 173-2 17-1 46 2 61a163 163 0 0029 68c12 18-5 35-31 31zm312-500c-1-1 0-1 0 0 2 0 3 1 1 1l-1-1z"/></svg>