<svg width="210mm" height="210mm" viewBox="0 0 210 210" xmlns="http://www.w3.org/2000/svg"><g stroke-width=".1"><path d="M0 104.8V0h209.6v209.6H0zm177.6 90c3.7-.6 6.5-2 8.8-4.2 1.8-1.9 2.9-4 3.3-6.6.3-2 .1-4.3-.4-5.7-.4-1.2-1.3-2.8-2.1-3.8l-.9-1.2c-.4-.6-1-1.4-3.2-3.5l-2.7-2.6-.4-1a11 11 0 01.8-9.7c.8-1.4 2.3-3.8 3.3-5 2.5-3 5.6-5 8.3-5.3h.7v.3c-.3 1.5-.9 3.3-2 5.5-1.7 3.8-4.9 9-7 11.6-1 1-1.3 1.6-1.3 2.2-.2.9.3 1.5 1.1 1.7.5.2.5.2.5.7 0 1 .6 1.5 2 1.5 1.7 0 3.6-.4 5.8-1.4 3.2-1.5 5-3.4 6.9-7.2 1.7-3.5 3.2-8.2 3.5-11 .3-2.2-.3-4.5-1.6-5.9l-.8-1.1a6 6 0 00-.8-1.2 8.9 8.9 0 00-2.3-1.7l-.2-.1c0-.2 1.8-1.1 2.8-1.5.8-.3 1-.3 1.8-.3.9 0 .9 0 1.2-.3.5-.5.5-1 .3-1.7-.2-.6-.8-1.5-1.2-1.6-.1 0-.3-.3-.4-.7-.2-.7-.8-1.3-1.6-1.7-.6-.2-.8-.2-2.6-.2-1.6 0-2 0-2.6.2-1 .3-1.9.8-2.3 1.2l-.4.4-.6-.7-1.3-1c-.6-.4-.7-.4-1.3-.4-.9 0-1.7.2-2.6.7-.9.4-1.3.9-1.4 1.4 0 .5 0 .5.5 1 .3.4 1 1.2 1.4 2l1.3 1.7.4.4h-1c-2.6.3-5.5 1.3-8 2.8a27 27 0 00-11.2 14.4c-.3 1-.3 1.3-.3 3-.1 3 .2 4.3 1.3 6.6 1.2 2.4 4 6 6.8 8.5 3.5 3.2 3.7 3.4 4 4.8.5 1.7-.4 4.6-2 6.8a6.7 6.7 0 01-3.3 2.4 6 6 0 01-2.3-.4c-.4-.2-.5-.3-.5-.7-.1-.7.4-2.1 1.1-3 .4-.5 1.1-1 1.6-1 .2 0 .5.1.9.4l1 .4c.5 0 .6 0 .9-.3.5-.5.7-1 .7-2.1 0-1.6-.5-2.9-1.6-4.1l-.8-1.2a6.5 6.5 0 00-4.2-2.9c-1.1-.2-3.5 0-4.4.2-2.8.9-5.2 4.3-5.8 7.9-.1 1.2 0 3.8.2 4.7.4 1.3 1 2.4 2 3.6l.9 1.1c1.5 2.3 4.5 4 7.6 4.2 1.2.1 4.4 0 5.7-.2zm-17.3-.3c1.2-.3 1.9-1 1.8-2 0-.6-.2-1-1.1-2.2a18.4 18.4 0 01-2.7-9.9c0-4.3 1.3-9.7 3.5-15 3.5-8.4 8.3-16.1 15.3-24.9 2.4-3 2.6-3.1 2.6-3.6.2-1-.7-3.2-2-5l-1.3-1.8c-.8-1.1-2.4-2.8-3.5-3.6-2.2-1.6-4.1-2.2-5.6-1.6a87.7 87.7 0 00-21.3 20 153.1 153.1 0 0119.5-29.7c.3-.3.3-1.3 0-2a27.3 27.3 0 00-5.6-8c-2-1.8-3.7-2.6-5.2-2.7-.6 0-.8 0-1.4.4-3 1.5-9.2 7.2-17.4 16-3 3.3-2.9 3.2-2.2 2.1l7.5-11.5c1.5-2.1 1.6-2.4 1.6-3.1 0-.8-.1-1.2-.9-2-.3-.2-.6-.7-.8-1-.8-1.8-4.3-4-8.2-5-1.7-.4-2-.3-3 .4-1.5.9-4 2.6-9 6.4-10 7.5-14.6 10.7-20 14a39.9 39.9 0 01-11.6 5.7l-2.7.2c-3.2 0-5.5-.2-6.3-.8-.9-.6-2-.6-2.8.1-1 1-1 2.2 0 5.2.5 1.5 1.2 2.8 2 3.8l1.2 1.6c1.4 2 4 3.8 6.6 4.3 1 .2 4 .3 5.3.2a39.7 39.7 0 0020.1-11.8c.2-.1-.5.8-1.5 2.2-5.7 8-8.8 13-11.7 18.7a56.7 56.7 0 00-6.7 24c0 2.9.3 4.1 1.4 6.4.4.8.8 1.6 1.2 2 .4.4.9 1 1.1 1.5a9 9 0 004 3.2c1 .4 1.7.5 3.1.5 1.4 0 2.1-.3 2.7-.7.6-.5.7-.8.8-3.2.1-3.1.5-5.7 1.5-9.6.5-1.8.5-1.9 2-5.1a191 191 0 0132.5-46 161 161 0 00-4.2 6.2 98 98 0 00-16.6 39.2c-.7 6 0 10.2 2.5 13.2l1.2 1.5c.8 1 1.9 2.1 3 2.8 1.4.9 3.7 1.6 5.2 1.6 2 0 3.7-.9 4-2.2.3-.7.2-1.1-.4-1.8a8 8 0 01-1.4-3.9c-.2-1-.2-1 .1-2a76.1 76.1 0 019.8-19c3.7-5.5 6.4-9 10.5-13.3a63.4 63.4 0 00-9.5 22 56 56 0 00-1.3 15.8c.4 2 1.1 3.9 2.2 5.4 3.3 4.5 5.2 6.1 8.5 7.1 1.7.5 2.6.6 3.6.3zm-74.8-27.2c.7-.4 1.3-.9 1.6-1.6.3-.5.3-.7.3-1.5 0-1.2-.3-1.8-1.3-2.8-1-1-1.5-1.2-2.7-1.2-.8 0-1 0-1.5.2a4 4 0 00-1.7 1.8 4 4 0 000 2.8c.5 1 2 2.3 3 2.6a4 4 0 002.3-.3zm-7.8-2.5c.4-.2.6-.8.5-1.3 0-.3-.2-.6-.7-1l-.6-.7h-.6c-.6 0-.7 0-1 .4-.3.3-.3.4-.3 1 0 .5 0 .6.5 1.1l.8.7c.4.2 1 .1 1.4-.2zm-7.2-1.1c.4-.3.6-.9.5-1.4 0-.2-.3-.5-.7-1l-.6-.6H69c-.6 0-.7 0-1 .3-.3.3-.4.4-.4 1s0 .6.6 1.1l.8.7c.4.2 1 .2 1.4-.1zm-7.1-2c.3-.3.6-.9.5-1.3 0-.3-.3-.6-.7-1l-.6-.7h-.7c-.5 0-.6 0-1 .3-.3.3-.3.4-.3 1s0 .6.5 1.2c.3.2.7.6.9.6.4.2 1 .2 1.4-.1zm-7-2.8c.4-.3.6-.9.5-1.4 0-.2-.2-.5-.6-1l-.7-.6H55c-.6 0-.7 0-1 .3-.3.3-.3.4-.3 1s0 .6.5 1.1l.9.7c.4.2 1 .1 1.4-.1zm-5.8-1.4c.8-.3 1.3-.8 1.6-1.6.3-.5.3-.7.3-1.5 0-1.1-.3-1.8-1.3-2.8-1-1-1.5-1.2-2.7-1.2-.8 0-1 0-1.5.3a4 4 0 00-1.7 1.7 4 4 0 000 2.8c.5 1 2 2.3 3 2.6a4 4 0 002.3-.3zm-6.7-6.2c.4-.2.6-.8.5-1.3 0-.3-.3-.6-.7-1l-.6-.7h-.7c-.5 0-.6 0-1 .4-.2.3-.3.4-.3 1 0 .5 0 .6.5 1l.9.8c.4.2 1 0 1.4-.2zm-5.6-4.6c.4-.3.6-.8.5-1.3 0-.3-.2-.6-.7-1l-.6-.7H37c-.6 0-.7 0-1 .3-.3.4-.3.4-.3 1s0 .6.5 1.2l.8.7c.4.1 1 0 1.4-.2zm-5.1-5.2c.4-.3.6-.9.5-1.4 0-.2-.3-.5-.7-1l-.6-.6h-.6c-.6 0-.7 0-1 .3-.3.3-.4.4-.4 1s0 .6.6 1.1l.8.7c.4.2 1 .1 1.4-.1zM19.9 139a66 66 0 014.6-3l1.8-1.2.5.5c.6.5 1 .7 1.6.5 1-.3 1.2-1.7.4-2.3l-.2-.3 53.2-34.6a127 127 0 013.5 7c0 .3.4.6.6.5 0 0 .3-.4.5-1.1a61 61 0 011.7-4.2l1 .6 1.2.7 1 .6c.4.3.8.6 1 .6.4.3.5 0 .2-2a2315 2315 0 00-1-9 631 631 0 0114.7-9.6c2.2-1.5 2.4-1.7 2.4-2.7 0-.6 0-.8-.3-1.2-.2-.2-.5-.6-.8-.7l-.4-.5-.3-.6a2 2 0 00-2-1.1c-.5 0-.7.1-1.2.4A2920.8 2920.8 0 0189.3 86a4534.8 4534.8 0 01-6.8-53.6c-.1-.1-.3-.3-.5-.3-.3 0-.3-.1-.4-1.2-.1-.6-.4-1-.8-1l-.4.3c-.3.2-.3 0-.7 22.6L79.4 72l-.1 1.4-1.4-2.2A15518.4 15518.4 0 0055.2 37l-1-1.6v-.9c0-.7-.1-1-.4-1.4-.4-.8-1.6-2-2.4-2.3l-.7-.5a1244.3 1244.3 0 00-8.7-13c-.2-.1-.3-.1-.8.2l-.6-.7a6 6 0 00-.6-.8c-.3-.3-1 0-1 .4l2 3.9a116.1 116.1 0 013.3 6.4l1.8 3.4 1 2-.2.4a4 4 0 000 2.8c.5 1 2 2.4 3 2.6.4.1.2-.2 2.8 4.7a3496.5 3496.5 0 0015.2 29A10014.8 10014.8 0 0079 93.2c.1.2-1.4 1.2-25.2 17.8L28 128.9l-.5.4v-.9c0-1.1-.3-1.8-1.4-2.8-1-1-1.5-1.2-2.6-1.2-.8 0-1 0-1.5.3a4 4 0 00-1.7 1.8 4 4 0 000 2.7c.5 1 2.3 2.6 3 2.6l.3.1-3 2.1c-3.7 2.6-3.4 2.4-3.4 2.7 0 .3.3.8.5.8a5659 5659 0 0033.7-21.9 1403 1403 0 01-28.9 20.1c-3.3 2.3-3.7 2.7-3.7 2.9 0 .3.3.8.5.8l.6-.3zm1.5-16.2c.3-.2.5-.8.5-1.3l-.7-1-.7-.7H20c-.6 0-.6 0-1 .4-.3.3-.3.4-.3 1 0 .5 0 .6.5 1l.9.8c.4.2 1 .1 1.4-.2zm-2.1-6.9c.3-.3.5-.8.5-1.3l-.7-1-.7-.7h-.6c-.6 0-.6 0-1 .3-.3.4-.3.4-.3 1s0 .7.5 1.2l.9.7c.4.1 1 0 1.4-.2zm-1.8-7.1c.4-.3.6-.9.5-1.4 0-.2-.3-.5-.7-1l-.6-.6H16c-.5 0-.6 0-1 .3-.2.3-.3.4-.3 1s0 .6.5 1.1l.9.7c.4.2 1 .2 1.4-.1zm-1-7.1c.4-.3.6-.9.5-1.4 0-.2-.2-.5-.7-1l-.6-.6h-.6c-.6 0-.7 0-1 .3-.3.3-.3.4-.3 1s0 .6.5 1.1l.8.7c.4.2 1 .1 1.4-.1zm.6-5.4c.7-.3 1.2-.8 1.6-1.6.3-.5.3-.7.3-1.4 0-1.2-.3-1.8-1.4-2.9-1-1-1.5-1.2-2.6-1.2-.8 0-1 0-1.5.3a4 4 0 00-1.7 1.8 4 4 0 000 2.7c.5 1 2 2.4 3 2.6a4 4 0 002.3-.3zm137.6 0c.7-.4 1.2-1 1.6-1.7.2-.5.3-.7.3-1.4 0-1.2-.3-1.8-1.4-2.9-1-1-1.5-1.2-2.6-1.2-.8 0-1 0-1.5.3a4 4 0 00-1.7 1.7 4 4 0 000 2.8c.5 1 2 2.4 3 2.6a4 4 0 002.3-.3zm-137.8-9c.3-.4.5-1 .4-1.4 0-.3-.2-.6-.6-1l-.7-.7h-.6c-.6 0-.7 0-1 .3-.3.3-.3.4-.3 1s0 .6.5 1.2c.3.3.7.6.9.6.4.2 1 .2 1.4 0zm136.6-.3c.4-.3.6-.9.5-1.3 0-.3-.3-.6-.7-1l-.6-.7h-.7c-.5 0-.6 0-1 .3-.2.3-.3.4-.3 1s0 .6.6 1.2c.2.2.6.6.8.6.4.2 1 .2 1.4-.1zM18.2 80.3c.4-.3.6-.9.5-1.4 0-.2-.2-.5-.7-1l-.6-.6h-.6c-.6 0-.7 0-1 .3-.3.3-.3.4-.3 1s0 .6.5 1.1l.8.7c.4.2 1 .2 1.4-.1zm134-.3c.4-.3.6-.9.5-1.4 0-.2-.2-.5-.7-1l-.6-.6h-.6c-.6 0-.7 0-1 .3-.3.3-.3.4-.3 1s0 .6.5 1.1l.8.7c.4.2 1 .1 1.4-.1zm-132-6.7c.4-.3.6-.9.5-1.4 0-.2-.2-.5-.7-1l-.6-.6h-.6c-.6 0-.7 0-1 .3-.3.3-.3.4-.3 1s0 .6.5 1.1l.8.7c.4.2 1 .1 1.4-.1zm130-.2c.4-.3.6-.9.5-1.4 0-.3-.2-.6-.7-1l-.6-.7h-.6c-.6 0-.7 0-1 .4-.3.3-.3.4-.3 1s0 .6.5 1.1l.8.7c.4.2 1.1.1 1.5-.1zM23 66.7c.3-.3.5-.9.4-1.4 0-.2-.2-.5-.7-1l-.6-.6h-.6c-.6 0-.7 0-1 .3-.3.3-.3.4-.3 1s0 .6.5 1.1l.8.7c.4.2 1.1.1 1.5-.1zm124.5-.3c.4-.3.6-1 .5-1.4 0-.3-.2-.6-.7-1l-.6-.7h-.6c-.6 0-.7 0-1 .4-.3.3-.3.4-.3 1s0 .6.5 1.1l.8.7c.4.2 1 .1 1.4-.1zM27.1 62.2c.7-.4 1.2-.9 1.6-1.6.2-.5.3-.7.3-1.5 0-1.2-.3-1.8-1.4-2.8-1-1-1.5-1.2-2.6-1.2-.8 0-1 0-1.5.3a4 4 0 00-1.7 1.7 4 4 0 000 2.8c.5 1 2 2.3 3 2.6a4 4 0 002.3-.3zm117.8-.2c.7-.4 1.2-.9 1.6-1.6.2-.5.3-.7.2-1.5 0-1.2-.3-1.8-1.3-2.8-1-1-1.5-1.2-2.7-1.2-.7 0-1 0-1.5.2a4 4 0 00-1.7 1.8 4 4 0 000 2.8c.5 1 2 2.3 3 2.6a4 4 0 002.4-.3zM30.4 54.4c.4-.3.6-.9.5-1.3 0-.3-.3-.6-.7-1l-.6-.7h-.7c-.5 0-.6 0-1 .3-.2.3-.3.4-.3 1s0 .6.6 1.2c.2.3.6.6.8.6.4.2 1 .2 1.4 0zm109.7-.3c.4-.3.6-.9.5-1.3 0-.3-.3-.6-.7-1l-.6-.7h-.7c-.5 0-.6 0-1 .3-.2.3-.3.4-.3 1s0 .6.6 1.1c.2.3.6.7.8.7.4.2 1 .2 1.4-.1zM34.9 49c.4-.3.6-.9.5-1.4 0-.3-.3-.6-.7-1l-.6-.7h-.6c-.6 0-.7 0-1 .4-.3.3-.4.4-.4 1s0 .6.6 1.1l.8.7c.4.2 1 .1 1.4-.1zm100.7-.4c.4-.2.6-.8.5-1.3 0-.3-.3-.6-.7-1l-.6-.7h-.7c-.5 0-.6 0-1 .4-.2.3-.3.4-.3 1 0 .5 0 .6.6 1.1l.8.7c.4.2 1 .1 1.4-.2zM40 44c.4-.2.6-.8.5-1.3 0-.3-.2-.6-.7-1l-.6-.7h-.6c-.6 0-.7 0-1 .4-.3.3-.3.4-.3 1 0 .5 0 .6.5 1l.8.8c.4.2 1 .1 1.4-.2zm90.5-.2c.3-.3.5-.8.4-1.3 0-.3-.2-.6-.6-1l-.7-.7h-.6c-.6 0-.7 0-1 .4-.3.3-.3.4-.3 1 0 .5 0 .6.5 1l.9.8c.4.2 1 0 1.4-.2zm-85-4c.5-.3.7-1 .6-1.4 0-.3-.3-.6-.7-1l-.6-.7H44c-.5 0-.6 0-1 .4-.2.3-.3.4-.3 1 0 .5 0 .6.5 1l.9.8c.4.2 1 .1 1.4-.2zm79.4-.4c.4-.3.6-.8.5-1.3 0-.3-.3-.6-.7-1l-.6-.7h-.6c-.6 0-.7 0-1 .4-.3.3-.4.4-.4 1 0 .5 0 .6.6 1l.8.8c.4.2 1 0 1.4-.2zm-5.3-1.8c.7-.4 1.2-1 1.6-1.7.3-.5.3-.7.3-1.4 0-1.2-.3-1.8-1.4-2.9-1-1-1.5-1.2-2.6-1.2-.8 0-1 0-1.5.3a4 4 0 00-1.7 1.8 4 4 0 000 2.7c.5 1 2 2.4 3 2.6a4 4 0 002.3-.2zm-61.9-4.9c.4-.3.6-.8.5-1.3 0-.3-.2-.6-.7-1l-.6-.7h-.6c-.6 0-.7 0-1 .3-.3.4-.3.4-.3 1s0 .6.5 1.2l.8.7c.4.1 1 0 1.4-.2zm54.8-.2c.4-.3.6-.9.5-1.3 0-.3-.2-.6-.7-1l-.6-.7h-.6c-.6 0-.7 0-1 .3-.3.3-.3.4-.3 1s0 .6.5 1.2l.8.6c.4.2 1 .2 1.4-.1zm-48-2.3c.3-.3.5-.9.4-1.3 0-.3-.2-.6-.7-1l-.6-.7H63c-.6 0-.7 0-1 .3-.3.3-.3.4-.3 1s0 .6.5 1.2l.8.6c.4.2 1 .2 1.5-.1zm41.4-.2c.4-.3.6-.9.5-1.4 0-.2-.2-.5-.7-1l-.6-.6h-.6c-.6 0-.7 0-1 .3-.3.3-.3.4-.3 1s0 .6.5 1.1l.8.7c.4.2 1 .2 1.4-.1zm-20-1.1c.8-.4 1.3-.9 1.7-1.7.2-.5.3-.7.3-1.4 0-1.2-.3-1.8-1.4-2.9-1-1-1.5-1.2-2.7-1.2-.7 0-1 0-1.4.3a4 4 0 00-1.7 1.8 4 4 0 000 2.7c.4 1 2 2.4 3 2.6a4 4 0 002.3-.2zm-14.7-.5c.3-.3.5-.8.4-1.3 0-.3-.2-.6-.6-1l-.7-.7h-.6c-.6 0-.7 0-1 .4-.3.3-.3.4-.3 1 0 .5 0 .6.5 1l.9.8c.3.2 1 0 1.4-.2zm28-.2c.3-.3.5-.8.4-1.3 0-.3-.2-.6-.7-1l-.6-.7h-.6c-.6 0-.7 0-1 .3-.3.4-.3.4-.3 1s0 .6.5 1.2l.8.7c.4.1 1 0 1.4-.2zm-21-1c.3-.2.6-.8.5-1.3 0-.2-.3-.5-.7-1l-.6-.6h-.7c-.5 0-.6 0-1 .3-.3.3-.3.4-.3 1s0 .6.5 1.1l.9.7c.4.2 1 .1 1.4-.1zm14 0c.4-.2.6-.8.5-1.3 0-.2-.3-.5-.7-1l-.6-.6h-.6c-.6 0-.7 0-1 .3-.3.3-.4.4-.4 1s0 .6.6 1.1l.8.7c.4.2 1 .1 1.4-.1z" fill="#fdfdfd"/><path d="M172 195.1c-3.2-.3-6.2-2-7.7-4.2l-.7-.8.4.3c1.3 1.1 3.2 2 5.1 2.4 1.4.3 5 .3 6.9 0 3.7-.7 6.7-2.1 8.9-4.3a12.6 12.6 0 002.3-13.6c-.3-.6-.3-.6 0-.4a13 13 0 012.1 3.8c.5 1.4.7 3.7.4 5.7-.4 2.6-1.4 4.7-3.3 6.6-3 3-7 4.4-12 4.5h-2.5zm-13.8-.5c-1.8-.3-4-1.3-5.4-2.3-1-.8-2.3-2.1-3-3.2l-.6-.8.8.8c1.8 1.8 3.8 2.8 6.4 3.3 1 .2 1.6.2 2.3 0 1.1-.3 1.8-1 1.8-1.9 0-.6-.2-1-.8-2-1.4-1.9-2.2-4-2.7-7-.3-1.4-.3-5 0-6.8.8-5.3 2.4-10 5.5-16.3 3.7-7.5 7.5-13.1 15-22.4.5-.6.6-.8.7-1.2 0-.6-.2-1.7-.8-2.9-.4-.8-.4-.9-.1-.5 1.5 1.7 2.6 4.3 2.4 5.5 0 .5-.2.7-2.6 3.6-7 8.8-11.8 16.5-15.3 24.8a41.6 41.6 0 00-3.5 15.1c0 3.7 1 7.5 2.7 9.9.9 1.2 1 1.6 1 2.1.2 1.6-1.5 2.6-3.8 2.2zm4.8-5.2l-.2-.3.3.2.2.3-.3-.2zm-14.2-1.5c-.2-.2-.2-.2 0 0l.2.1-.2-.1zm22.5-.6a3 3 0 01-1-2 2 2 0 010-1.2l.5-1.1c.3-.7 1.3-1.7 1.8-1.8.5-.2.4-.2 1.5.4.6.3 1.2.4 1.6.1l.5-.7c.3-.7.3-2.2 0-3.2l-.2-.7.4.4c.5.5 1 1.4 1.4 2.3.2.5.2 1 .2 1.7 0 1.2-.1 1.7-.7 2.2-.3.3-.4.3-.8.3-.3 0-.7-.2-1-.4-.8-.5-1.2-.5-1.8-.1-.6.3-1 .9-1.4 1.7-.5 1-.6 1.7-.5 2.2 0 .2.1.4 0 .4l-.5-.5zm4.7.4l.2-.2c.2-.1.2 0 0 0 0 .2-.2.3-.2.2zm.6-.5l.2-.2v.2l-.3.2.1-.2zm.5-.4l.3-.2-.2.2-.2.2.1-.2zm.4-.5l.3-.2-.1.2-.3.2.1-.2zm-76-.3a9 9 0 01-5-3.6l-.5-.7.8.6a7 7 0 002.5 1.4c2 .7 4.8.5 5.7-.5.4-.5.5-1 .5-2.5 0-2.9.6-6.6 1.7-10.8a118 118 0 0110-18.8c11.4-18.2 25.5-34.8 31.9-37.6l1-.3-1 1a85 85 0 00-5.9 7.3 44 44 0 00-4.5 4.7 211.8 211.8 0 00-28 41.4 18.3 18.3 0 00-2 5c-1 4-1.5 6.6-1.6 9.7 0 2.4-.2 2.7-.8 3.2-.6.5-1.2.6-2.8.6h-2zm32 0c-1.5-.1-3.4-.8-4.6-1.6-1-.5-2.4-2-3-3l-.5-.6.5.5c1.8 1.6 4.5 2.7 6.7 2.7 2.1 0 3.8-.9 4.1-2.3.2-.5 0-1-.4-1.7l-.7-1.1a12 12 0 01-.8-3c-.1-.8 0-1 .2-2 1.8-5.9 6.2-14 12-22.2 3-4 5.4-7 8.3-10 3.5-3.5 6-5.4 8.1-6.2l.7-.2-.2.2-1.3 1.5a88.9 88.9 0 00-5.3 6.4 95.1 95.1 0 00-20.8 32.7c-.3 1.1-.3 1.1-.1 2.1a8 8 0 001.4 3.8c.6.8.7 1.2.5 2-.5 1.4-2.6 2.4-4.8 2zm44.3 0s0-.2.2-.2c.2-.2.2-.2 0 0-.1.2-.2.2-.2.1zm-31.8-4.4c0-.1 0-.1 0 0v0zm-50.5-.4c0-.2 0-.2 0 0 .3 0 .3.2.2.2l-.2-.2zm50.4-.3c0-.1 0-.2 0 0v0zm-21-.7c-.1-.1-.1-.1 0 0l.2.2-.2-.2zm20.9-1v-.4.4zm0-2.2l.1-.3v.3zm33.2.1l-2.5-2.3a49 49 0 01-3.6-3.9l2.4 2.2a30.2 30.2 0 013.7 4zm-16-.2l.1-.2c.2 0 .2 0 0 0 0 .3-.2.3-.2.2zm.4-.6l.2-.2v.2l-.3.2.1-.2zm.8-1l.7-.5-.6.6-.6.6.5-.6zm-18.2.2v-.2.2zm28.6-.3l-.6-.7.6.6.7.7-.7-.6zm-81.7.2s0-.1.1 0v0zm0-.6v-.2V174.8zm72.1 0l.2-.3c.2 0 .2 0 0 0 0 .3-.2.3-.2.2zm-19-.6c0-.1.1-.2.1 0v0zm-23.8-.3v-.1V173.9zm-29.4-1.3v-.5V172.6zm93.5.7c-.2-.1-.1-.1 0 0l.2.2-.2-.2zm-40.1-.1v-.1.1zM122 173c0-.1 0-.2 0 0v0zm63.5-.6l-.3-.3.3.3.4.3-.4-.3zm-39.3-.1v-.2V172.3zm37.6-1.6l-1.3-1.4 1.4 1.3 1.3 1.4-1.4-1.3zm-61.9.5v-.3.3zm24.4.2v-.1.2c0 .1 0 0 0 0zm0-.8c0-.1.1-.1.2 0v.2l-.1-.2zm-53.5-.2v-.1V170.4zm78.7-.9l-.2-.2.2.2.2.2-.2-.2zm13.8 0l-.6-.3c-.3-.3-.5-1-.5-1.3.1-.2.1-.3.9-.3 1.5 0 3.4-.5 5.5-1.5 3.3-1.5 4.9-3.1 6.7-7 1.8-3.5 3.3-8.2 3.7-11 .1-1.3 0-2.7-.4-3.8l-.2-.7.5.6a7.7 7.7 0 011.6 6 39.9 39.9 0 01-5 13.5 13.8 13.8 0 01-7.4 5.4 9 9 0 01-4.8.5zm-92.4-.2v-.1.2c0 .1 0 0 0 0zm29-.2c0-.3.1-.4.1-.2v.2zm24.7.2v-.1.1zm34.8-1l-1-1 1 1zm-10.4.6l-.3-.3.3.3.3.3-.3-.3zm-24.3-.3c0-.1 0-.1 0 0 .1 0 0 .1 0 .2v-.2zm-53.7-.2c0-.1 0-.1 0 0v0zm77.4-.3c-.2-.2-.2-.2 0 0l.2.1-.2-.1zm-48.3-.3v-.1V167.8zm-29-.2c0-.1 0-.2 0 0v0zm-10 0c-.5-.2-1.2-.6-1.5-.9l-.2-.2.4.2c.4.2.7.3 1.5.3 1.2 0 1.8-.3 2.5-1s1-1.3 1-2.4c0-.9-.1-1.1-.3-1.5l-.3-.5.3.3.5.8c.3.5.3.7.3 1.5s0 1-.3 1.4a3.4 3.4 0 01-2.8 2h-1zm63.8-.1c0-.1 0-.2 0 0 .1 0 .1 0 0 .1v-.1zm36-.4l-.1-.2.2.2.2.2-.2-.2zm-89.7-.1v-.1.1zm53.8 0v-.1c.1 0 .1.2 0 .2v-.1zm-24.8-.2v-.1.1zm57.6-.3c-1-1.2-1.7-2.7-2-4.3-.3-1-.3-2.7-.1-4 .2-1.5 1.3-3.8 3-6.3 1.2-1.9 1.9-2.7 3.2-4 2.4-2.5 4.9-3.8 7.1-3.8.8 0 1 0 1.2.3.4.2.6.7.7 1.3l.1.4-.7.1c-2.7.3-5.8 2.2-8.3 5.3-1 1.2-2.5 3.6-3.2 5a11 11 0 00-.6 10.4l-.4-.4zm-86.5-.2c0-.1 0-.1 0 0v0zm29-.4c0-.1 0-.1 0 0v0zm0-.6c.1-.1.1-.2.2 0v.1l-.1-.1zm-28.8-.1c0-.2 0-.2 0 0v0zm-17.2-.2c-.3-.1-.6-.4-.6-.5h.4c.8 0 1.5-.7 1.4-1.5 0-.4 0-.5.4 0s.3 1.5-.3 1.9c-.3.2-1 .3-1.3.1zm46.2-.5s0-.1 0 0v0zm-47.3-.4l-.3-.4.4.3c.3.5.3.5-.1 0zm108.2.2l.3-.4.3-.3-.3.3-.3.4zm-114.3-.4l-.7-.5h.5c.8 0 1.5-.7 1.4-1.5 0-.5 0-.5.3-.1.5.6.3 1.5-.2 2-.4.1-1 .2-1.3 0zm53.6-.5c0-.1 0-.2 0 0 .1 0 .1 0 0 .1v-.1zm61.4 0l.3-.3-.1.2-.3.3.1-.3zm-116.1-.5l-.3-.3.3.3c.4.4.4.4 0 0zm116.4 0h.2c.2-.2.2-.2 0 0 0 .1-.2.2-.2 0zM75 162.6s.6-.7.7-.6l-.3.4-.4.2zm109.8 0l.2-.1c.2-.1.2-.1 0 0 0 .2-.2.3-.2.2zm-107.7-.3l-.2-.3.4.3c.4.4.3.4-.2 0zm108 0l.2-.2c.2-.2.2-.2 0 0 0 .2-.2.2-.2.2zm-123-.3l-.7-.5h.5c.8 0 1.5-.7 1.4-1.5 0-.5 0-.5.3-.1.5.6.3 1.6-.2 2-.4.1-1 .2-1.4 0zm5.7-.5l.7-.7-.4.4-.3.3zm2.1-.4c-.2-.1-.3-.3-.2-.3l.4.3c.3.4.3.4-.2 0zm-9 0l-.2-.4.3.3c.4.4.3.5 0 0zm125 .1l.2-.2c.1-.1.1-.1 0 0l-.2.2zm-125.2-1.7l.6-.7-.3.4-.3.3zm2-.4l-.2-.3.4.3c.4.5.3.4-.1 0zm-7.6 0c-.3 0-.6-.4-.6-.5h.4c.9 0 1.5-.6 1.5-1.5 0-.4 0-.4.3 0 .4.5.3 1.5-.3 1.9-.3.2-1 .3-1.3.1zm-1-.9l-.3-.3.3.3c.4.4.3.4 0 0zm-5.7-.3c-.5-.1-1.3-.5-1.6-.8l-.2-.3.5.3c.3.2.6.2 1.4.2 1.2 0 1.8-.2 2.5-1 .7-.6 1-1.2 1-2.4 0-.8-.1-1-.3-1.4l-.2-.5.2.2.5.8c.3.6.3.8.3 1.5 0 .8 0 1-.2 1.5a3.4 3.4 0 01-3 2l-1-.1zm5.4-1.3l.6-.6-.3.4-.3.2zm2-.3l-.2-.3.4.3c.4.4.3.4-.1 0zm84.4-4.3A154 154 0 01164 113c.2-.3.1-1.3 0-1.9l-.7-1.3c-.5-1-.3-1 .6.3.6 1 1.3 2.2 1.6 3 .2.8.2 1.8 0 2.1l-2.1 2.7a151.6 151.6 0 00-18 27.8 114.3 114.3 0 00-5.3 6.2zm-97.7-.4l-.6-.5h.5c.8 0 1.5-.7 1.4-1.5 0-.5 0-.5.3 0 .5.5.3 1.5-.2 1.8-.4.3-1 .3-1.4.2zm-1-1l-.3-.3.3.3c.4.5.3.5 0 0zm-.3-1.5l.6-.6s0 .2-.3.3l-.3.3zm2.1-.3l-.3-.3.4.3c.4.4.3.4-.1 0zm128.4.3l.2-.2c.2-.2.2-.2 0 0 0 .2-.2.2-.2.2zm.3-.5l.2-.2c.2 0 .2 0 0 0 0 .3-.2.3-.2.2zm.4-.4l.1-.2c.2-.1.2-.1 0 0l-.1.2zm.4-.6l.3-.2-.2.2-.2.2.1-.2zm.5-.6l.3-.2-.2.2-.3.3.2-.3zM37 147c-.3-.1-.6-.4-.6-.5h.4c.8 0 1.5-.7 1.4-1.5 0-.5 0-.5.4 0s.3 1.5-.3 1.8c-.3.3-1 .3-1.3.2zm137.8-1.6zm-139 .7l-.2-.4.4.3c.4.5.3.5-.1 0zm110.7-1.6l.3-.2-.2.2-.2.2.1-.2zm-110.9 0c0-.1.6-.7.7-.6l-.3.3-.4.3zm2.2-.3l-.3-.3s.2 0 .4.3c.4.4.3.4-.1 0zm138.7-.3l.2-.3-.1.3-.3.3s0-.2.2-.3zm-29.2-.3l.2-.2-.1.2-.3.3.2-.3zm29.7-.2l.3-.2-.2.2-.2.2.1-.2zm.4-.2l.2-.2c.1-.1.1-.1 0 0l-.2.2zm-29.4-.4l.2-.2v.2l-.3.2.1-.2zm30.1-.1l.2-.2c.2-.2.2-.2 0 0 0 .2-.2.2-.2.2zm21-.9l-.6-.6.7.6.6.7-.7-.7zm-50.3 0l.3-.1-.2.2-.2.2.1-.2zm-117 0l-.6-.6h.5c.8 0 1.5-.6 1.4-1.4 0-.5 0-.5.4-.1.4.5.3 1.5-.3 1.9-.4.2-1 .3-1.3.1zm-1-1l-.3-.3s.2 0 .3.3c.4.4.4.4 0 0zm119 0l.2-.2-.2.3-.3.2.2-.2zm46.5-.7l-2.7-.8c-.2 0 .2-.3 1.2-1 2.5-1.5 3.7-2 5.1-2 .7 0 1 0 1.1-.2.3-.1.6-.7.6-1.1 0-.4.2-.3.7.2.4.4.6.7.7 1.1.2.8.2 1.3-.3 1.8-.3.3-.3.3-1.2.3-.7 0-1 0-1.7.3-.9.3-2.6 1.1-2.8 1.4h-.7zm-45.7-.2l.3-.3.4-.3-.4.3c-.2.4-.3.4-.3.3zm-62.7-.4c-1.6-.3-2.6-.7-4-1.5a12.7 12.7 0 01-3.6-3.6l.6.5c1.2 1 2.9 1.9 4.5 2.3a21.6 21.6 0 005.7.2c8-1 19.5-9.6 30.9-23.3 1.6-2 1.8-2.2 1.7-1.9l-2.8 4.4a419 419 0 01-8.3 11.4l-1 .8c-6.6 6-13.5 10-18.6 10.7-1.3.2-4 .2-5 0zm-69-.3a.9.9 0 01-.1-.5 9461.7 9461.7 0 007.4-5.2c-.2.3-.2.8 0 1.3a239.2 239.2 0 00-6.3 4.4c-.5.3-.6.3-1 0zm11.6 0l.7-.6-.4.4-.3.3zm2.1-.3c-.2-.1-.3-.3-.2-.3l.4.3c.3.4.3.4-.2 0zm155.3-.3l-.4-.4.4.4.4.4-.4-.4zm-35.7-.4l.5-.4-.4.4a3 3 0 01-.5.4l.4-.4zm35.1-.2c0-.2 0-.2 0 0 .2 0 .3.1.3.2l-.3-.2zm-31.7-3.3zM27.5 136l-.7-.5h.5c.8 0 1.5-.7 1.4-1.5 0-.5 0-.5.4 0s.2 1.5-.3 1.8c-.4.3-1 .3-1.3.2zm157.8-.9l-.5-.5.6.5.4.5-.5-.5zm-158.8 0l-.2-.2.2.2.2.2-.2-.2zm53.4-1v-.1c.3.1.3.2.2.2l-.2-.2zm112.4-.5l.4-.3-.3.3-.4.4s0-.2.3-.4zm-1-.3l-.6-.5.6.5.5.6-.5-.6zm-6.2 0l.4-.4-.3.3-.4.4.3-.4zm-156.6 0c-.1-.2-.6-.5-1-.5l-.5-.1 11.2-7.8a360.7 360.7 0 0014.3-10l27.6-18 .6-.3.5 1c.5 1 .5 1.1.4 1.3a23491.7 23491.7 0 01-53.1 34.4zm172.2-.3l-.3-.3.3.3.4.3-.4-.3zm-10.3-.4l-.2-.2.3.2.2.3-.3-.3zM23.6 132h-.2c-.3 0-1.3-.6-1.6-.9l-.2-.2.4.2a4.1 4.1 0 003 0l-1.4 1zm101-.3a354.7 354.7 0 0116.6-26.7c.1-.3.2-.6.1-.8 0-.3 0-.3.6.3.8.9 1 1.2 1 2 0 .7-.2 1-1.9 3.4a201.6 201.6 0 00-7.8 12.2 231.7 231.7 0 00-8.4 9.5l-.5.6zm34.4-.3l.4-.3-.3.3-.4.4s0-.2.3-.4zm1.1-1l.3-.3-.2.3-.3.2.2-.2zM26.3 130a3 3 0 00.6-2.2c0-.8 0-1-.3-1.4l-.2-.5.3.2c.6.6 1 2.3.8 3 0 .1-.4.5-.8.7-.6.5-.6.5-.4.2zm134.8-.6l.2-.2v.2l-.3.2.1-.2zm14.7 0c-.1-.1-.1-.1 0 0l.2.2-.2-.2zm-14.1-.5l.2-.1c.1-.2.1-.2 0 0s-.2.2-.2.1zm13.6-.1c-.1-.2-.1-.2 0 0l.2.1-.2-.1zm-12.9-.5l.2-.2c.2-.1.2-.1 0 0l-.2.2zm.5-.4l.2-.2c.2-.1.2-.1 0 0 0 .2-.2.3-.2.2zm10.8-.7l-.2-.3.2.2.2.3-.2-.2zm-97-.3c0-.1 0-.1 0 0 .1 0 .1.1 0 .2v-.2zm6.6-1.9h.2-.2zm4 0h.3-.2zm-5 0c0-.1.1-.1.1 0h-.1c-.1 0-.1 0 0 0zm6.6 0c.1-.1.2-.1.2 0h-.2zm80.2-.3h.1-.1zm-90.4-.8h.2-.2zM20 123c-.3-.1-.6-.4-.6-.5h.4c.9 0 1.5-.7 1.5-1.5 0-.4 0-.5.3 0 .4.5.3 1.5-.3 1.9-.3.2-1 .2-1.3.1zm-1-1l-.3-.3.3.3c.4.5.3.5 0 0zm115-1.1l.4-.4.3-.3-.3.4-.4.3zm-115.3-.4l.6-.6-.3.4-.3.2zm2-.3l-.2-.3.4.3c.4.4.3.4-.1 0zm114.9-1l.4-.4-.3.4-.4.4s0-.2.3-.4zm1.5-1.6l.5-.5-.4.5a3 3 0 01-.5.4l.4-.4zm-119.2-1.5c-.3-.1-.6-.4-.6-.5h.4c.9 0 1.5-.7 1.5-1.5 0-.5 0-.5.3 0 .4.5.3 1.5-.3 1.8-.3.3-1 .3-1.3.2zm121.4-.8l.7-.7-.6.7c-.3.4-.7.7-.8.7l.7-.7zm-122.5-.1l-.2-.4.3.3c.4.5.3.5 0 0zm-.2-1.6l.6-.6-.3.3-.3.3zm2-.3l-.2-.3s.2 0 .4.3c.4.4.3.4-.1 0zm123.4-.8l.8-.8.8-.8-.8.8-.8.8zm3.7-3.7l.6-.4-.5.5-.5.4zm-129.6.2l-.6-.5h.5c.8 0 1.5-.7 1.4-1.5 0-.5 0-.5.3-.1.5.6.3 1.5-.2 2-.4.1-1 .2-1.4 0zm-1-1l-.3-.3.3.3c.4.4.3.5 0 0zm131.9-.3l.3-.4.4-.3-.3.4-.4.3zm1.3-1.2l.3-.3-.2.3-.3.3.2-.3zm-133.5 0l.6-.7s0 .2-.3.4l-.3.3zm2.1-.4l-.3-.3.4.3c.4.4.3.4-.1 0zm68.6-.1l-.2-.4-.4-.8c-.3-.7-.3-.7-.1-.8.2 0 .3-.3 1-2l.8-2.2.8.3.7.6a45.6 45.6 0 01-1.6 4c-.5 1.5-.7 1.7-1 1.3zm63.6-.2l.2-.2-.1.2-.3.2.2-.2zm11.3-.2l-.4-.5.5.5.4.4-.5-.4zm-10.2-.6l.1-.2c.2-.2.2-.2 0 0l-.1.2zm9.2-.4c-.2-.2-.2-.2 0 0l.2.1-.2-.1zM91.6 103c-1-.6-1.2-.8-1-.8.1 0 .2-.4 0-1a24.3 24.3 0 01-.4-3.3 238 238 0 01-.8-7.1L103 82c3.7-2.5 3.6-2.4 3.9-2.9l.2-.8V78c.3 0 1 .6 1.3 1 .2.3.2.5.2 1 0 1.1-.2 1.3-2.4 2.8a427.7 427.7 0 00-14.7 9.6v1a1003 1003 0 011.2 10c-.1.2-.3.1-1-.4zm48.6-.8l-.4-.4.4.4.4.3-.4-.3zm14.2.3H154.6h-.2zm-139.2-.6c-.3 0-.6-.4-.6-.5h.4c.8 0 1.5-.6 1.4-1.5 0-.4.1-.4.4 0 .4.5.3 1.5-.3 1.9-.3.2-1 .3-1.3.1zm124.1-.5c0-.1 0-.1 0 0 .2 0 .3.2.3.2l-.3-.2zM14.1 101l-.3-.3s.2 0 .4.3c.4.4.3.4-.1 0zm-.3-1.6l.7-.6-.3.4-.4.2zm2.2-.3l-.3-.3.4.3c.4.4.3.4-.1 0zm115.6-.9h0s-.1 0 0 0zM14.8 96.7c-.5-.1-1.2-.5-1.5-.8l-.2-.2.4.2c.4.2.7.2 1.5.2 1.2 0 1.7-.2 2.5-1 .7-.6.9-1.2.9-2.4 0-.8 0-1-.2-1.4l-.3-.5.3.2c.1.2.4.5.5.9.3.5.3.7.3 1.5 0 .7 0 1-.3 1.4a3.4 3.4 0 01-2.9 2h-1zm137.6 0c-.5-.2-1.3-.6-1.5-.9l-.3-.2.5.2c.4.2.6.2 1.5.2 1.1 0 1.7-.2 2.4-1 .7-.6 1-1.2 1-2.4 0-.8 0-1-.3-1.4l-.2-.5.2.2.6.9c.2.5.3.7.3 1.5 0 .7 0 1-.3 1.4a3.4 3.4 0 01-2.9 2h-1zM15.5 87.4c-.3-.1-.6-.4-.6-.5h.4c.9 0 1.5-.7 1.5-1.5 0-.5 0-.5.3-.1.4.6.3 1.6-.3 2-.3.2-1 .2-1.3 0zm136.6-.2l-.6-.5h.5c.8 0 1.5-.7 1.4-1.5 0-.5 0-.5.3-.1.5.6.3 1.6-.2 2-.4.1-1 .2-1.4 0zm-137.7-.8c-.2-.1-.3-.3-.2-.3l.3.3c.4.4.3.5 0 0zm74.2 0a9320.9 9320.9 0 00-6.8-54.4c.1-.1.6.1.7.4l3.5 27 3.4 26.8-.3.2c-.4.3-.5.3-.5 0zm62.4-.2l-.2-.3.3.3c.4.4.3.5 0 0zM14.2 85l.6-.6-.3.3-.3.3zm2-.3l-.2-.4.4.4c.4.4.3.4-.1 0zm134.6 0l.6-.6s0 .2-.3.4l-.3.3zm2.1-.3l-.3-.3.4.3c.4.5.3.4-.1 0zm-136-4c-.3 0-.6-.3-.6-.4 0 0 .2-.1.4 0 .8 0 1.5-.7 1.4-1.5 0-.5 0-.5.4-.1.4.6.3 1.5-.3 2-.3.1-1 .2-1.3 0zm134-.3c-.3 0-.6-.4-.6-.5h.4c.8 0 1.5-.6 1.4-1.5 0-.4 0-.4.4 0 .4.5.3 1.5-.3 1.9-.3.2-1 .3-1.3.1zm-135.1-.6l-.3-.3.4.3c.3.4.3.4-.1 0zm134-.3l-.3-.3s.2 0 .4.3c.4.4.3.4-.1 0zM15.5 78l.7-.7-.3.4-.4.3zm2.1-.4l-.2-.3.4.3c.4.4.3.4-.2 0zm89.4 0v.1zm42.5 0l.7-.6-.3.4-.4.2zm2.1-.3l-.2-.3.4.3c.4.4.3.4-.2 0zM105.3 76h.1-.1zm-27.8-3.6l-4.3-6.6-4.4-6.6a15757.7 15757.7 0 00-15.5-23.4l.1-.8c.2-.9.2-2-.1-2.6l-.3-.5.3.3.5.8c.3.5.3.7.3 1.4v.9l1.1 1.6a2815.6 2815.6 0 0022.7 34.3l1.4 2.2V75l-1.8-2.6zm-58.6 1c-.3 0-.7-.4-.7-.5h.5c.8 0 1.5-.6 1.4-1.5 0-.4 0-.4.4 0 .4.5.3 1.5-.3 1.9-.3.2-1 .3-1.3.1zm130-.2c-.3 0-.6-.4-.6-.5h.4c.9 0 1.5-.6 1.4-1.5 0-.4.1-.4.4 0 .4.5.3 1.5-.3 1.9-.3.2-1 .3-1.3.1zm-131.1-.7l-.3-.3s.2 0 .4.3c.3.4.3.4-.1 0zm130-.2c-.2-.2-.3-.3-.2-.4l.3.4c.4.4.3.4 0 0zM17.5 70.9l.7-.6-.3.4c-.1.2-.4.3-.4.2zm2.1-.3l-.2-.3.4.3c.4.4.3.4-.2 0zm128 .1l.6-.6-.3.4-.4.2zm2-.3l-.2-.3.4.3c.4.4.3.4-.1 0zm-128-3.6c-.3 0-.6-.4-.6-.5h.4c.9 0 1.5-.6 1.4-1.5 0-.4.1-.4.4 0 .4.5.3 1.5-.3 1.9-.3.2-1 .3-1.3.1zm124.6-.3c-.3 0-.6-.4-.6-.5h.4c.8 0 1.5-.6 1.4-1.5 0-.4 0-.4.4 0 .4.5.3 1.5-.3 1.9-.3.2-1 .3-1.3.1zM20.5 66l-.2-.3.3.3c.4.4.3.4 0 0zm124.6-.3l-.3-.4.4.4c.3.4.3.4-.1 0zM20.2 64.3l.7-.6-.3.4-.4.2zm2.2-.3l-.3-.3.4.3c.4.4.3.4-.1 0zm122.4 0s.6-.7.7-.6l-.3.4-.4.2zm2.1-.3l-.2-.3.4.3c.4.4.3.4-.2 0zM24.8 62.5c-.5-.2-1.3-.6-1.5-.9l-.3-.2.5.2c.4.2.6.3 1.5.3 1.1 0 1.7-.3 2.4-1s1-1.3 1-2.4c0-.9 0-1.1-.3-1.5l-.2-.5.2.3c.2.1.4.5.6.8.2.5.3.7.3 1.5s0 1-.3 1.5a3.4 3.4 0 01-2.9 1.9h-1zm117.8-.3c-.5 0-1.3-.5-1.6-.8l-.2-.2.5.2c.4.2.6.3 1.4.3 1.2 0 1.8-.3 2.5-1s1-1.3 1-2.4c0-.9-.1-1.1-.3-1.5l-.2-.5.2.3.6.8c.2.5.3.7.3 1.5s0 1-.3 1.5a3.4 3.4 0 01-3 1.9h-1zM29 54.6l-.6-.5h.5c.8 0 1.5-.7 1.4-1.5 0-.5 0-.5.3-.1.5.6.3 1.6-.2 2-.4.2-1 .2-1.4 0zm109.7-.3l-.6-.5h.5c.8 0 1.5-.7 1.4-1.5 0-.5 0-.5.3-.1.5.6.3 1.5-.2 2-.4.1-1 .2-1.4 0zM28 53.6l-.2-.3.3.3c.4.4.4.5 0 0zm109.7-.3l-.2-.3.3.3c.4.4.4.5 0 0zm-110-1.2l.7-.6-.3.3-.3.3zm2.2-.3l-.2-.4.3.4c.4.4.4.4 0 0zm107.6 0l.6-.7s0 .2-.3.4l-.3.3zm2.1-.4c-.2-.1-.3-.3-.2-.3l.3.3c.4.4.4.4 0 0zm-106-2.3c-.2 0-.6-.4-.6-.5h.5c.8 0 1.5-.6 1.4-1.5 0-.4 0-.4.3 0 .5.5.3 1.5-.2 1.9-.4.2-1 .3-1.3.1zm100.7-.3l-.6-.5h.5c.8 0 1.5-.6 1.4-1.5 0-.4 0-.5.3 0 .5.5.3 1.5-.2 1.9-.4.2-1 .3-1.4.1zm-101.7-.6l-.3-.4.3.4c.4.4.4.4 0 0zm100.6-.3l-.2-.4.3.3c.4.5.4.5 0 0zM32.2 46.6s.6-.7.7-.6l-.4.4-.3.2zm2.1-.3l-.2-.3.3.3c.4.4.4.4 0 0zm98.6 0l.6-.6s0 .2-.3.4l-.3.2zm2.1-.3l-.2-.3.3.3c.4.4.3.4 0 0zM38.7 44c-.3-.1-.6-.4-.6-.5h.4c.8 0 1.5-.7 1.4-1.5 0-.4 0-.5.4 0s.3 1.5-.3 1.9c-.3.2-1 .2-1.3.1zm90.4-.2c-.3-.1-.6-.4-.6-.5h.4c.9 0 1.5-.7 1.5-1.5 0-.5 0-.5.3 0 .4.5.3 1.5-.3 1.8-.3.3-1 .3-1.3.2zm-91.5-.7l-.3-.4.4.3c.4.5.3.5-.1 0zM128 43l-.2-.4.3.3c.4.5.3.5 0 0zm-90.7-1.4s.6-.7.7-.6l-.3.4-.4.2zm2.2-.3l-.3-.3.4.3c.4.4.3.4-.1 0zm88.3.1l.6-.6-.3.3-.3.3zm2-.3l-.2-.3.4.3c.4.4.3.4-.1 0zm-85.6-1.3l-.6-.5h.5c.8 0 1.5-.7 1.4-1.5 0-.4 0-.5.3 0 .5.5.3 1.5-.2 1.9-.4.2-1 .3-1.4.1zm79.4-.3l-.7-.5h.5c.8 0 1.5-.7 1.4-1.5 0-.5 0-.5.4 0s.3 1.5-.3 1.8c-.4.3-1 .3-1.3.2zM43 38.9l-.2-.4.3.3c.4.5.4.5 0 0zm79.4-.3l-.3-.4.3.3c.4.5.4.5 0 0zm-72.6-.8c-.4 0-1.2-.5-1.5-.8l-.2-.2.4.2 1 .3c.3 0 .4 0 .5.3l.2.3h-.4zm67.4 0c-.5-.2-1.3-.6-1.5-.9l-.2-.2.4.2c.4.2.7.2 1.5.2 1.1 0 1.7-.2 2.4-.9.8-.7 1-1.3 1-2.5 0-.8 0-1-.2-1.4l-.3-.5.3.2.5.9c.3.5.3.7.3 1.5 0 .7 0 1-.3 1.4a3.4 3.4 0 01-2.9 2h-1zM43 37.2l.6-.6s0 .2-.3.4l-.3.2zM45 37l-.3-.3.4.3c.4.4.3.4-.1 0zm77.2 0c0-.1.6-.7.7-.6l-.4.3-.3.3zm2.1-.3l-.2-.3.4.3c.3.4.3.4-.2 0zm-67.9-4c-.3 0-.6-.3-.6-.4h.4c.9 0 1.5-.7 1.4-1.5 0-.5.1-.5.4 0 .4.5.3 1.5-.3 1.8-.3.3-1 .3-1.3.2zm54.8-.1c-.3-.1-.6-.4-.6-.5h.4c.8 0 1.5-.7 1.4-1.5 0-.5.1-.5.4-.1.4.6.3 1.6-.3 2-.3.1-1 .2-1.3 0zm-55.9-.7l-.3-.4.4.3c.4.5.3.5-.1 0zm54.8-.3l-.3-.3.4.3c.4.4.3.5-.1 0zm-59.8-1.2h-.6l-1-1.6-4.3-6.5c-3.2-4.8-3.2-4.9-3-5 .3-.3.6-.3.8 0l1.4 2A5309.5 5309.5 0 0051 30.6h-.6zm4.7-.1l.7-.6-.3.3-.4.3zm8.1 0c-.3-.1-.6-.4-.6-.5h.4c.9 0 1.5-.7 1.4-1.5 0-.5.1-.5.4-.1.4.6.3 1.6-.3 2-.3.1-1 .2-1.3 0zm-6-.3l-.2-.3s.2 0 .4.3c.4.4.3.4-.1 0zm47.5 0c-.3 0-.6-.3-.6-.4h.4c.8 0 1.5-.7 1.4-1.5 0-.5.1-.5.4-.1.4.6.3 1.5-.3 2-.3.1-1 .2-1.3 0zm5.2 0l.7-.6-.3.4-.4.3zm2.2-.2l-.3-.4.4.4c.4.4.3.4-.1 0zm-50-.5c-.2-.1-.3-.3-.2-.3l.3.3c.4.4.3.5 0 0zm41.5-.2l-.3-.3.4.3c.4.4.3.4-.1 0zm-19.8 0c-.5-.2-1.3-.6-1.5-.9l-.3-.2.5.2c.4.2.6.2 1.4.2 1.2 0 1.8-.2 2.5-.9s1-1.3 1-2.5c0-.8 0-1-.3-1.4l-.2-.5.2.3c.2 0 .4.5.6.8.2.5.3.7.3 1.5 0 .7 0 1-.3 1.4a3.4 3.4 0 01-2.9 2h-1zm-13.9-.6c-.3-.1-.6-.4-.6-.5h.4c.9 0 1.5-.7 1.4-1.5 0-.5.1-.5.4 0 .4.5.3 1.5-.3 1.8-.3.3-1 .3-1.3.2zm28-.2c-.3-.1-.6-.4-.6-.5h.4c.8 0 1.5-.7 1.4-1.5 0-.5 0-.5.4-.1.4.6.3 1.6-.3 2-.3.2-1 .2-1.3 0zm-36-.5l.6-.7-.3.4-.4.3zm7-.2c-.3-.2-.4-.4-.3-.4l.3.3c.4.5.3.5 0 0zm-5-.2l-.2-.3.4.4c.4.4.3.4-.1 0zm32.9 0l-.3-.4.4.3c.3.4.3.5-.1 0zm6.5.2l.7-.7-.3.4-.4.3zm2.2-.4l-.3-.3.4.3c.4.4.3.4-.1 0zm-28.6.1c-.2 0-.6-.4-.6-.5h.4c.9 0 1.5-.6 1.5-1.5 0-.4 0-.4.3 0 .5.5.3 1.5-.2 1.9-.4.2-1 .3-1.4.1zm14 0c-.2 0-.6-.4-.6-.5h.5c.8 0 1.5-.6 1.4-1.5 0-.4 0-.4.4 0 .4.5.3 1.5-.3 1.9-.3.2-1 .3-1.3.1zm-15-.9l-.3-.3s.2 0 .3.3c.4.4.3.4 0 0zm14 0l-.3-.3s.2 0 .4.3c.3.4.3.4-.1 0zM68.4 26l.7-.6-.3.3-.4.3zm2.2-.3l-.3-.3.4.3c.4.4.3.4-.1 0zm25.8 0s.6-.6.7-.5l-.3.3-.4.3zm2.1-.2l-.2-.4.4.4c.4.4.3.4-.2 0zm-23-.7l.6-.6-.3.4-.3.2zm14 0l.7-.6-.3.4c-.1.2-.4.3-.4.2zm-12-.3l-.2-.3.4.3c.4.4.3.4-.1 0zm14.1 0l-.2-.3.4.3c.3.4.3.4-.2 0z" fill="#b9b9b9"/><path d="M85.8 166l.3-.2-.2.2-.3.3.2-.3zM51 156.3l.3-.3-.2.3-.3.2.2-.2zm-25-26l.3-.3-.2.2c0 .2-.2.2-.2.2l.1-.2zm64.8-28.6v-.1V101.7zm-.2-.5c0-.2 0-.2.1-.1v.1zm0-1v-.1V100.2zm-.2-.8c0-.1 0-.2 0 0 .1 0 .1 0 0 .1v-.1zm0-1c0-.1 0-.2 0 0V98.4zm-.3-1.8s0-.1 0 0c.1 0 .1.2 0 .2v-.2zm0-.8v-.1V95.8zm-72.6-.6l.3-.3-.2.3-.3.3s0-.2.2-.3zM155 95l.3-.3-.2.3-.3.2.2-.2zM89.8 95c0-.1 0-.2 0 0v0zm0-.9c0-.1 0-.2 0 0v0zm-.2-.9v-.1V93.2zm-.1-.8v-.1.1zm-.1-.9v-.1V91.5zM78 91c-.1-.3-.1-.3 0-.1l.2.3-.2-.2zm10.4-4.8c0-.1 0-.2.1 0v0zm0-.9s0-.1 0 0v0zm-.3-1.5v-.1c.1 0 .1.2 0 .2v-.1zm0-.9c0-.1 0-.1 0 0v0zm-.2-.8c0-.1 0-.2 0 0 .1 0 .1 0 0 .1v-.1zm0-.9s0-.1 0 0v0zm-.2-.8c0-.1 0-.1 0 0 .1 0 .1.1 0 .1zm0-.8c0-.2 0-.2 0 0v.1s-.1 0 0-.1zm-.2-.9s0-.1 0 0v0zm-.2-1.5V77v.1zm-.1-.9c0-.1 0-.1 0 0v0zm-.1-.8c0-.1 0-.2 0 0v0zm-.1-.9s0-.1 0 0v0zm-.1-.8c0-.1 0-.1 0 0v.1zm-7.6-1v-.5.4zm7.5.2c0-.2 0-.2 0 0v0zm-.1-.9s0-.1 0 0v0zm-18.6 0v-.2.1c.1.2 0 .2 0 0zm18.4-1.5v-.1.1zm-.2-.9c0-.1 0-.1.1 0v0zm0-.8c0-.1 0-.2 0 0v0zm-7-1.4c0-.6 0-.9.1-.6V67.5zm6.8.5s0-.1.1 0v0zM66 67.8v-.3.2c.2.4.2.4 0 0zm20.2-.6c0-.1 0-.1.1 0v.1zm0-.8c0-.2 0-.2 0 0v0zm-.2-.9s0-.1 0 0c.1 0 .1.1 0 .2v-.2zm0-.8c0-.1 0-.2 0 0v0zm-.2-.7v-.1c.1 0 .1.2 0 .2V64zm-22.1-.6V63v.2c.2.4.2.4 0 0zm22-.3c0-.1 0-.1 0 0 .1 0 .1.1 0 .2V63zm-6-1.3v-.5.5zm6 .5c0-.1 0-.2 0 0v.1s-.1 0 0-.1zm-.2-.9s0-.1 0 0v0zm-58-.5l.2-.2-.1.2-.3.3.1-.3zm117.7-.2l.3-.2-.2.2-.3.3.2-.3zm-59.8 0v-.2.2zm-.1-1v.1zm-24-.8v-.3l.2.3v.3l-.2-.3zm23.9 0s0-.1 0 0v0zm-.1-.8c0-.1 0-.2 0 0v0zm-.1-.7v-.1.1zm-5.2-1.1v-.6V56.3zm5 .2c0-.1.1-.1.1 0v0zm0-.8c0-.1 0-.2 0 0v0zm-.1-.9s0-.1 0 0v0zM59 54.6c-.1-.2-.1-.3 0 0l.2.2c0 .2 0 .1-.2-.2zm25.5-.6c0-.1 0-.1 0 0v.1zm-.1-.8c0-.2 0-.2 0 0v0zm-.1-.9s0-.1 0 0v0zm-4.5-1.6v-.5.5zm4.3.8c0-.1 0-.2.1 0v0zm-27.4-1.3c-.1-.3-.1-.3 0 0l.2.2c0 .2 0 .1-.2-.2zm27.2-.3c0-.1 0-.1.1 0v0zm0-.8c0-.1 0-.2 0 0v0zm-.2-.9s0-.1 0 0c.1 0 .1.1 0 .2v-.2zm0-.8c0-.1 0-.1 0 0v.1zm-.2-.8v-.1c.1 0 .1.2 0 .2v-.1zM80 45.2v-.6V45.2zm-25.5.6c-.1-.3-.1-.3 0 0l.2.2c0 .2 0 .1-.2-.2zm29 0v-.1c.1 0 .1.1 0 .2v-.2zm0-1v.1zm-.3-1.5c0-.1 0-.1 0 0v0zm-.1-.8c0-.1 0-.2 0 0v0zm-.1-.9s0-.1 0 0v0zm-.1-.8c0-.1 0-.1 0 0v0zM80 39.5V39v.5zm2.7.5v-.1.1zm-.1-.9s0-.1 0 0v0zm-.1-.8c0-.1 0-.2 0 0v0zm-.2-1.6c0-.1 0-.1 0 0v0zm37.6-.5l.3-.3s0 .2-.2.3l-.3.3s0-.2.2-.3zm-37.7-.3c0-.1 0-.2 0 0v0zM82 35s0-.1 0 0v0zm-2-1v-.6V34zm1.8.2c0-.1 0-.1.1 0v0zm0-.8v-.1.1zm-.2-.9s0-.1.1 0v0zm0-.6c0-.1 0-.1 0 0v0zm-.2-.8V31c.1 0 .1.2 0 .2v-.1zm-31-.7H50.8h-.1zm35.7-2.9l.3-.3s0 .2-.2.3l-.3.3.2-.3zm-41.6-.4V27c.1.3 0 .3 0 .1zm-2.4-4.5v-.2l.1.2c.2.3 0 .3 0 0zM40 18.2V18l.1.2c.2.3 0 .3 0 0zm-.5-2.4h0c-.1.1-.1.1 0 0z" fill="#e2a0a0"/><path d="M83 167h0c-.1 0-.1 0 0 0zm.7 0h.1-.1zm2-1l.5-.5-.3.5a3 3 0 01-.5.4l.4-.4zm-4.7 0l-.3-.3.3.3.3.2-.3-.2zm5.8-2v-.2.2zm-6.8-.2c0-.1 0-.1 0 0v.1zm0-.5c0-.1 0-.2 0 0v0zm6.8-.1c0-.1 0-.2 0 0v0zm-1-2l-.3-.3.3.2.3.3-.3-.2zm-4.9 0l.3-.3-.2.2c0 .2-.2.3-.2.3l.1-.3zm2.2-1c0-.1.1-.1.2 0H83s-.1 0 0 0zm.5 0c0-.1.2-.1.2 0h-.2zm-35.5-3h0s-.1 0 0 0zm.7 0h.1c-.2 0-.2 0 0 0zm2-1l.5-.4-.3.4a3 3 0 01-.5.4l.4-.4zm-4.7 0l-.3-.2.3.2.3.3-.3-.3zm5.8-2v-.1.1zM45 154v-.1.1zm0-.6s0-.1 0 0v0zm6.8 0v-.1 0zm-1-2l-.2-.4.2.3.3.3-.3-.3zm-4.9-.1l.3-.2-.1.2-.3.2.1-.2zm2.2-1h0s-.1 0 0 0zm.5 0h.1-.1zM23 131.2h.1c-.1 0-.2 0 0 0zm.8 0h0c-.1 0-.1 0 0 0zm2-1l.5-.4-.4.4a3 3 0 01-.4.5l.3-.5zm-4.7 0l-.3-.2.3.2.2.3-.2-.2zm5.7-2c0-.1 0-.2 0 0 .1 0 .1 0 0 .1v-.1zM20 128c0-.1 0-.2 0 0 .1 0 .1 0 0 .1v-.1zm0-.5v-.1c.1 0 .1.2 0 .2v-.1zm6.8-.1v-.1c.1 0 .1.2 0 .2v-.1zm-1-2l-.2-.3.3.2.3.3-.3-.3zm-4.8 0l.2-.3v.2l-.3.2.1-.2zm2.1-1.1h.1c-.1 0-.1 0 0 0zm.6 0h0c-.1 0-.1 0 0 0zm66.5-22.3l.2-.1h.2l-.2.2-.2-.1zm.2-1.3v-.1c0 .2.1.3 0 .4v-.3zm-3.1-.7c-.2-.2-.2-.2 0 0l.2.1-.2-.1zm3-.2v-.2V99.9zm0-1s0-.1 0 0v.1zm-.2-.8V98v.2zm0-1v-.2.2zm-.2-.9s0-.1 0 0c.1 0 0 .1 0 .2v-.2zm-75.4 0c.1-.1.2-.1.2 0h-.2zm.8 0c0-.1.1-.1.2 0h-.2s-.1 0 0 0zM152 96h.1c-.1 0-.2 0 0 0zm.8 0h0c-.1 0-.1 0 0 0zm-63-.5v-.2V95.5zM17.2 95l.5-.4-.4.4c-.3.2-.4.5-.4.5l.3-.5zm-4.7 0l-.3-.2.3.2.3.4-.3-.3zm142.3 0l.5-.5-.4.4a3 3 0 01-.4.5s0-.2.3-.5zm-4.8 0l-.2-.3.3.2.3.3-.4-.2zm-60.4-.5v-.1.1zm0-.8v-.2.2zM18.2 93c0-.1 0-.2.1 0v0zm-6.8-.1c0-.1 0-.2.1 0v0zM156 93c0-.1 0-.2 0 0 .1 0 .1 0 0 .1V93zm-66.4-.2v-.2.2zm59.6 0c.1 0 0 .2 0 .2V93zm-137.6-.3c0-.2 0-.2.1-.1v.1zm6.8-.1c0-.2 0-.2.1-.1v.1zm130.8 0v-.1c.1 0 0 .2 0 .2v-.1zm6.8-.2s0-.1 0 0c.1 0 .1.1 0 .2v-.2zM89.4 92s0-.1 0 0v0zm-11-.5c-.2-.3-.1-.3 0-.1v.2zm10.9-.2c0-.1 0-.1 0 0v0zm-72-.9l-.2-.2.3.2.3.3-.3-.3zm-4.8 0l.3-.2-.2.2-.2.2.1-.2zm142.4 0l-.2-.4.3.3c.3.2.3.3.2.3l-.3-.3zm-4.8 0c0-.2.2-.3.2-.3l-.1.2-.3.2.2-.2zm-135.5-1h.2-.2zm.6 0h0s-.1 0 0 0zm137-.1h.1c-.1 0-.2 0 0 0zm.5 0h.2-.2zM76 86.9c-.1-.3-.1-.3 0-.1l.2.3-.2-.2zm12.5-.4c0-.1 0-.2.1 0v0zm0-.9s0-.1 0 0v0zm-.2-.8c0-.1 0-.1.1 0v.1zm0-.7c0-.1 0-.2 0 0v0zm-.2-.9s0-.1 0 0c.1 0 .1.1 0 .2v-.2zm-14.4-.6c0-.2-.1-.4 0-.4l.2.7-.2-.3zm14.3-.2c0-.1 0-.2 0 0 .1 0 .1.1 0 .1v-.1zm0-.8v-.1.1zm-.2-.9c0-.1 0-.1 0 0 .1 0 .1.1 0 .2v-.2zm0-.8c0-.1 0-.2 0 0v.1s-.1 0 0-.1zm-.2-.9s0-.1 0 0c.1 0 0 .1 0 .2V79zm-16.2-.8c0-.2 0-.2 0 0 .1 0 .2 0 .1.1v-.1zm16.1 0c0-.1 0-.1 0 0v.1zm-.1-.7c0-.1 0-.2 0 0v0zm-.1-.9s0-.1 0 0v0zm-.1-.8c0-.1 0-.2 0 0v0zm-8-.7zM87 75v-.1.1zm-7.8-1v-.3V74zm7.7.1c0-.1 0-.1 0 0v0zM69 73.8c0-.2 0-.2 0 0 .1 0 .2 0 .1.1v-.1zm9.2 0c0-.2-.1-.2 0-.2v.2l.1.2-.1-.2zm8.6-.5c0-.1 0-.2 0 0v0zm-.1-.9s0-.1 0 0v0zm-.1-.8c0-.1 0-.1 0 0v0zm-.3-1.6s0-.1.1 0v0zm-19.6-.6c0-.2 0-.2 0 0 .1 0 .2 0 .1.1l-.1-.1zm12.7-.4v-.2.2zm6.8.2c0-.1 0-.2.1 0v0zM75 68.8v-.2l.1.2c0 .2.1.2 0 .2v-.2zm11.2-.4c0-.2 0-.2.1-.1v.1zm-11.8-.5c0-.1-.1-.2 0-.2l.1.2v.2l-.1-.2zm11.7-.4c0-.1 0-.1.1 0v0zm0-.8c0-.1 0-.2 0 0v0zm-.2-.9s0-.1 0 0c.1 0 .1.1 0 .2v-.2zm-21.3-.6c0-.1 0-.2 0 0l.1.1-.1-.1zm21.2-.2c0-.1 0-.1 0 0 .1 0 .1.1 0 .1V65zm-6.2-1.6v-.2V63.4zm6 0s0-.1 0 0c.1 0 .1.1 0 .2v-.2zm0-.8c0-.1 0-.2 0 0v.1s-.1 0 0-.1zm-15-.5zM24.5 62h.1-.1zm.7 0h.1c-.1 0-.2 0 0 0zm60.2-.1v-.1.1zm56.9-.2h.2l-.2.1s-.1 0 0 0zm.7 0h.2l-.1.1h-.1zM27.3 61c.2-.3.4-.4.5-.4l-.4.4c-.2.3-.4.4-.5.4l.4-.4zm-4.8 0l-.2-.3.3.3.2.3-.3-.3zm62.8 0c0-.1 0-.1 0 0v0zm59.8-.2l.4-.5-.3.5a3 3 0 01-.5.4l.4-.4zm-82.8.1c0-.1 0-.2 0 0l.1.1-.1-.1zm78-.1l-.3-.3.3.3.3.3-.3-.3zM85.2 60c0-.1 0-.2 0 0v0zm-.1-.9s0-.1 0 0v0zm-56.8-.4c0-.1 0-.1 0 0 .1 0 0 .1 0 .2v-.2zm-6.8 0v-.1 0zm124.6-.2c0-.1 0-.1 0 0v0zm-6.8 0v-.2.2zM85 58.3c0-.1 0-.1 0 0v0zm-5.3-.5v-.3.3zm-58.2.3c0-.1 0-.2 0 0v0zm6.8-.1c0-.1 0-.2 0 0 .1 0 .1 0 0 .1v-.1zm111-.1c0-.1 0-.2 0 0v0zm6.8-.1c0-.1 0-.2 0 0v0zm-61.3-1v-.1 0zM27.3 56l-.2-.3.3.2c.3.3.3.4.2.4l-.3-.3zm39.4.1zm-44.2-.1c0-.2.2-.3.2-.3l-.1.3-.3.2.2-.2zm62.2-.1c0-.1 0-.2 0 0v0zm60.4-.1l-.2-.3.3.2.2.3-.3-.2zm-4.8 0c0-.2.2-.3.2-.3l-.1.2-.3.3.2-.3zm-55.7-.7V55v.1zM59.3 55c-.1-.3-.1-.4 0-.2V55.1zm-34.7 0h.1c-.1 0-.2 0 0 0zm.5 0h.1c-.1 0-.1 0 0 0zm40.7-.1zm76.6-.2h.2s0 .1-.2 0c0 0-.1 0 0 0zm.5 0h.2s0 .1-.1 0h-.1zm-58.4-.5c0-.1 0-.1 0 0v0zm-.1-.8c0-.1 0-.2 0 0v0zm-4.6-1.2V52 52.3zm4.5.3s0-.1 0 0v0zm-.1-.8c0-.1 0-.1 0 0v0zM84 51c0-.2 0-.2.1-.1v.1zm-27-.4s-.1-.1 0-.2v.1c.1.2 0 .3 0 .1zm27-.4s0-.1 0 0v0zM62.5 50l-.1-.2.2.2v.2l-.1-.2zm21.2-.6c0-.1 0-.2.1 0v0zm-22-.7l-.1-.2.1.2c0 .1.1.2 0 .2v-.2zm22-.1v-.1.1zm-.2-.9c0-.1 0-.1 0 0 .1 0 .1.1 0 .2v-.2zm-3.7-1v-.3.3zm3.6.2c0-.1 0-.2 0 0 .1 0 .1 0 0 .1V47zm-28.8-.6c-.1-.3-.1-.4 0-.2V46.3zm28.7-.3s0-.1 0 0c.1 0 .1.1 0 .2V46zm0-.8c0-.1 0-.1 0 0v0zm-.2-.8v-.1c.1 0 .1.2 0 .2v-.1zM58.7 44c0-.1-.1-.2 0-.2v.2c.2.1.2.2.1.2l-.1-.2zm24.4-.5s0-.1 0 0c.1 0 .1.1 0 .2v-.2zM57.8 43v-.3l.2.3v.2l-.2-.2zm25.2-.1c0-.1 0-.2 0 0v0zm-30.6-1l-.2-.3.4.7-.2-.3zm30.5.2v-.1.1zm-3-.9l.1-.3V41.1zm-23 .4l-.2-.4s.2 0 .2.2c.2.3.2.4 0 .2zm25.9-.4c0-.1 0-.1 0 0v0zm-.1-.8c0-.1 0-.2 0 0v0zm-.1-.9s0-.1 0 0v0zm-.1-.8c0-.1 0-.1 0 0v0zm-.1-.8v-.1.1zm-32.7-.6h.2s0 .1-.2 0c-.1 0-.1 0 0 0zM54 37c0-.1-.1-.2 0-.2v.2l.1.2-.1-.2zm28.3 0s0-.1 0 0v0zm34.7.1h.1c-.1 0-.2 0 0 0zm.8 0h0c-.1 0-.1 0 0 0zm-70.1-.8l-.3-.3.3.2.3.4-.3-.3zm72.1-.2l.5-.4-.4.4c-.3.2-.4.5-.4.5l.3-.5zm-4.8 0l-.2-.2.3.2.3.3-.4-.2zm-32.8 0v.1zm-2.1-.5v-.3.3zm2-.2v-.1.1zm-.1-.9c0-.1 0-.1 0 0v0zm-28.5-.2V34 34.3zm-6.9-.2c0-.1 0-.2.1 0v0zm74.2 0c0-.1 0-.2 0 0 .1 0 .1.1 0 .1v-.1zM114 34c0-.1 0-.2 0 0 .1 0 .1 0 0 .1V34zm-32.2-.3c0-.1 0-.2.1 0v0zm-35.2-.1c0-.2 0-.2.1 0v0zm6.9-.1v-.1.1zm60.5 0v-.1c.1 0 .1.2 0 .2v-.1zm6.8-.1v-.1c.1 0 .1.2 0 .2v-.1zm-39-.6s0-.1 0 0v0zm-29.3-1.3l-.3-.3.3.2.3.3s-.2 0-.3-.2zm67.4-.1l-.3-.3.3.2.3.3-.3-.2zm-4.9 0l.2-.3v.2l-.3.2.1-.2zm-65.4-1c-.2-.3-.2-.3 0-.1a17.2 17.2 0 00.2.2s-.2 0-.2-.2zm67.5 0c.1-.1.2-.1.2 0h-.1c-.1 0-.2 0 0 0zm.6 0c0-.1.1-.1.2 0h-.2c-.1 0-.1 0 0 0zm-68.4-.5zm-3.9-1.3c0-.1 0-.1.1 0 0 0 .1.1 0 .2v-.2zm38-.2h.1-.1zm.7 0h.1c-.1 0-.2 0 0 0zm2-1l.6-.4-.4.5c-.2.3-.4.4-.5.4l.4-.4zm-4.7 0l-.2-.2.3.2.2.3-.3-.2zm5.8-2c0-.1 0-.1 0 0v0zm-41-.1V25l.1.3s.1.2 0 .2v-.2zm34.2 0c0-.1 0-.2 0 0v0zm0-.5c0-.2 0-.2 0 0v0zm6.8-.1v-.1.1zm-44-.3c0-.1 0-.1.1 0 0 0 .1.1 0 .2v-.2zm2.2-.3zm40.8-1.4l-.2-.3.3.2.3.3-.4-.2zm-4.8 0c0-.2.2-.3.2-.3l-.1.2-.3.2.2-.2zm-37 0l-.1-.5.2.3c.2.2.1.3 0 .1zm39.1-1c0-.1.2-.1.2 0h-.2zm.5 0c.1-.1.2-.1.2 0h-.1c-.1 0-.2 0 0 0zM41 20c-.1-.1-.1-.1 0 0 0 0 .1.1 0 .2V20zm1.3-.6v-.2l.1.2.1.2-.2-.2zm-1-1.7c-.2-.1-.2-.2-.1-.2l.3.5-.3-.3zM40 16.1c-.1-.2-.1-.3 0-.2l.3.5-.3-.3z" fill="#f46363"/><path d="M157.2 192.5h.4-.4zm2.7-.8l.3-.2-.2.2c0 .2-.2.2-.2.2l.1-.2zm.4-.4v-.1c.1 0 0 0 0 .1s-.1.1 0 0zm4.4-.4c-.1-.1-.1-.1 0 0l.2.2-.2-.2zm-.6-.4l-.3-.4.4.3.3.4-.4-.3zm19-.5l.1-.2c.2 0 .2 0 0 0 0 .3-.2.3-.2.2zm-32.7-.4l-.2-.3.3.2.3.3-.4-.2zm33 .1l.2-.2c.2-.1.2-.1 0 0l-.1.2zm.8-.6l.4-.4-.3.4-.4.3.3-.3zm-35.1-.9c-.1-.2-.1-.2 0 0l.2.1-.2-.1zm36.2-.3l.5-.4-.3.4-.5.4.3-.4zm-14.2-.7l-.4-.5.5.5.4.5-.5-.5zm14.7.2l.2-.2c.1-.1.1-.1 0 0l-.2.2zm-27.2-.5l-.2-.4.3.4c.2.4.1.5-.1 0zm-57-2.8h.2-.1zm-1.1 0c0-.1.1-.1.2 0h-.2c-.1 0-.1 0 0 0zm2.4 0c0-.1.1-.1.2 0h-.2s-.1 0 0 0zm29.6 0h.3-.3zm-1-.2H131.7s-.1 0 0 0zm2.2 0h0s-.1 0 0 0zm-29.1-.4l.3-.3.3-.3-.3.3-.3.3zm66.3-1l.2-.1c.1-.1.1-.1 0 0l-.2.2zm-74.8-.7l-.4-.5.5.4.4.5-.5-.4zm9.3-.7v-.5V181zm66.1.7l.4-.3-.3.3-.4.4.3-.4zm-45 0c0-.2 0-.2.1 0 .2.1.2.2.1.2l-.1-.2zm30.5 0v-.1 0zm18.8-.2l.2-.2-.1.2-.3.2.2-.2zm-50.2-.6l-.5-.6.6.5.5.7-.6-.6zm11.2.3v-.2V181.3zm20-.2c0-.2 0-.3.1-.2V181.1zm-11-.5c0-.2 0-.2.1 0v0zm11-.5v-.2.2zm-51.3-1.5v-.1V178.6zm.1-1v-.2V177.5zm40.3 0v-.1.1zm33-.8c-.2-.2-.2-.2 0 0l.2.1-.3-.1zm-73.2-.1c0-.1 0-.2 0 0 .1 0 .1.1 0 .1v-.1zm51-.3c0-.2 0-.2.1-.1V176.4zm21.8 0l-.2-.3.2.2.2.2-.2-.2zm-43.7-.1c0-.1 0-.2 0 0v0zm-29-.3c0-.2 0-.2.1-.1v.1zm40.2 0v-.1.1zm31.1-1.2l-1.1-1.1 1.2 1.1zm-42.4.6c0-.1 0-.2 0 0v0zm-28.8 0c0-.2 0-.2.1-.1v0zm51-.1v-.1.1zm-10.8-.7c0-.1 0-.1 0 0v0zm10.9-.1c0-.1 0-.2 0 0v0zm-64.2-.1c0-.1 0-.2.1 0v0zm13.3-.2c0-.1 0-.2.1 0v0zm51-.4v-.1.1zm-11-.2c0-.2.1-.2.1-.1v.1zm29.2-.5l-.6-.6.6.6.6.6-.6-.6zm-18.1 0s0-.1 0 0v0zm-35.1-.5c0-.1 0-.1 0 0v.1zm35.2 0c0-.1 0-.1 0 0v.1zm16.8-.5l-.4-.5.5.5.5.5-.6-.5zm-16.7 0c0-.1 0-.2 0 0v0zm15.4-1.2l-.7-.8.8.7zm-80 0c0-.2 0-.2.1-.1v0zm79.1-1c-.1-.2-.1-.2 0 0l.2.1-.2-.1zm-49.8-.2v-.1V169.7zm-29.2 0c0-.1 0-.2.1 0v0zm87.1-3l-.3-.3.3.3.3.3-.3-.3zm-.4-.5c-.2-.2-.2-.2 0 0l.2.1-.2-.1zm-41-1l.2-.2v.2l-.2.2v-.2zm55-.9l.3-.2-.2.2-.3.3.2-.3zm-117.7.1h.2-.2zm.6 0h0s-.1 0 0 0zm.7-.3l.2-.2-.1.2-.3.2.2-.2zm117.3-.5l.5-.4-.5.5-.5.4zm-117-.2c0-.1 0-.2.1 0v0zm-8.8-.1h.1c-.1 0-.2 0 0 0zm.5 0h.1c-.1 0-.1 0 0 0zm.7-.4l.3-.2-.2.2-.2.2.1-.2zm7.6 0c0-.2 0-.2.1-.1v.1zm117.6 0l.3-.3-.2.2-.2.2.1-.2zm-84.7-.2l.2-.2v.2l-.2.2v-.2zm85-.2l.2-.2c.2-.1.2-.1 0 0l-.2.2zm-125-.3s0-.1 0 0v0zm0-.5c0-.1 0-.1 0 0v.1zm-8.8-.4h.1-.1zm.5 0h.1c-.1 0-.2 0 0 0zm.7-.4l.3-.2-.2.2-.2.2.1-.2zm.4-.7s0-.1 0 0v0zm0-.5c0-.1 0-.1 0 0v0zm99.1-1.1l.6-1.1-.2.5-.4.6zm-107.6-.1h0s-.1 0 0 0zm.5 0h.1-.1zm.7-.4l.2-.2v.2l-.3.2.1-.2zm.4-.7c0-.1 0-.1 0 0v0zm0-.5c0-.1 0-.2 0 0v0zm83.6-4.3v-.2c.2 0 .2 0 .1.2h-.1zm.5-.7l.2-.2c.2-.1.2-.1 0 0l-.2.2zm.3-.4l.2-.2c.2-.1.2-.1 0 0l-.2.2zm-98.6-.6h.1-.1zm.5 0h.1c-.1 0-.2 0 0 0zm138.8 0s0-.2.2-.2c.1-.2.1-.2 0 0s-.2.2-.2.1zm-138-.3c0-.2.1-.2.2-.2l-.2.2-.2.2.1-.2zm98 0l.2-.3c.2 0 .2 0 0 0 0 .3-.2.3-.2.2zm6.4 0l.2-.3c.2 0 .2 0 0 0 0 .3-.2.3-.2.2zm33.9-.2l.2-.2c.1-.1.1 0 0 0l-.2.2zm-40-.3l.2-.2c.2-.1.2-.1 0 0l-.1.2zm-98-.2c0-.2 0-.2 0 0 .1 0 0 0 0 .1v-.1zm138.3.1l.2-.2c.1-.1.1-.1 0 0l-.2.2zm-39.8-.4l.2-.2c.1-.1.1-.1 0 0l-.2.2zm40.3-.2l.3-.3-.2.3-.3.2.2-.2zm-138.8 0v-.1 0zm105-.1l.3-.2c.1-.1.1-.1 0 0l-.2.2zm-6-.4l.3-.2-.1.2-.3.2.2-.2zm40.7-.5l.7-.7-.6.7-.7.6.6-.6zm-34.3.4l.2-.1c.1-.2.1-.2 0 0s-.2.2-.2.1zm-6-.4l.2-.2c.2 0 .2 0 0 0-.1.3-.2.3-.2.2zm.6-.7l.2-.2-.1.2-.2.2v-.2zm6.1.2l.2-.2c.2-.1.2-.1 0 0 0 .2-.2.3-.2.2zm34.8-.7l.5-.5-.5.5-.5.5zm-34.4.2l.2-.2c.2-.1.2-.1 0 0 0 .2-.2.3-.2.2zm-5.9-.4l.3-.2-.2.2-.2.2.1-.2zm6.4-.1l.1-.2c.2-.2.2-.2 0 0l-.1.2zm34.7-.4l.2-.2-.1.2-.2.2.1-.2zm-40.6-.1l.3-.2-.1.2c-.2 0-.3.2-.3.2l.1-.2zm-108.3-.1h.2-.2zm.6 0h0s-.1 0 0 0zm114.1-.1c.1-.2.3-.2.3-.2l-.2.2-.2.2.1-.2zm34.6 0l.1-.2c.2 0 .2 0 0 0 0 .3-.1.3-.1.2zm-148-.2c0-.2.2-.3.2-.3l-.1.3-.3.2.2-.2zm107.7-.4l.3-.3-.2.3-.3.2.2-.2zm6.3-.1l.3-.3-.2.3-.3.2.2-.2zm-113.6-.2v-.1.1zm132 0l.1-.1c.2-.1.2-.1 0 0l-.1.2zm-17.7-.6l.3-.2-.2.2-.3.3.2-.3zm-114.3 0s0-.1 0 0v0zm108 .2l.1-.2c.2-.2.2-.1 0 0l-.1.2zm24.5-.2s0-.2.2-.2c.1-.2.1-.2 0 0l-.2.2zm-23.8-.7l.3-.2-.1.2c-.2 0-.3.2-.3.2l.1-.2zm6.4-.2l.4-.4-.3.4-.4.4s0-.2.3-.4zm18.2-.3l.2-.2c.2-.1.2-.1 0 0l-.2.2zm-23.8-.4l.2-.2-.1.2-.3.2.2-.2zm24.1 0l.2-.2c.2-.1.2-.1 0 0 0 .2-.2.3-.2.2zm-16.2-1.8zm2.3 1.4l.2-.2c.1-.2.2-.1 0 0l-.2.2zm14.2 0l.2-.2c.2-.2.2-.1 0 0 0 .2-.2.2-.2.2zm-23.7-.4l.3-.2-.2.2-.2.2.1-.2zm9.8 0s0-.2.2-.2c.2-.2.2-.2 0 0-.1.2-.2.2-.2.1zm14.3 0l.1-.2c.2-.2.2-.2 0 0 0 .2-.1.2-.1.1zm.3-.5l.2-.2c.1 0 .1 0 0 0-.1.3-.2.3-.2.2zm-23.5-.5l.3-.3-.2.3-.3.2.2-.2zm23.8.1l.2-.2c.1-.1.1-.1 0 0l-.2.2zm-14.2-.1l.2-.2c.2-.1.2-.1 0 0 0 .2-.2.3-.2.2zm-127.5-.2h.1c-.1 0-.2 0 0 0zm.5 0h.1c-.1 0-.1 0 0 0zm.7-.4l.3-.2-.2.2-.2.2.1-.2zm112.8 0l.2-.2v.2l-.2.2v-.2zm45.4.1a4 4 0 01-1.4-.8c-.2-.2-.2-.2.3 0 .8.5 1.4.4 2.4-.1a29.1 29.1 0 001.4-.8s.2.2.6.2l.7.2s-.2.3-1.3.9c-.8.4-1 .5-1.6.5h-1zm-31.4 0l.1-.2c.2-.1.2-.1 0 0l-.1.2zm-9.2-.6l.3-.2-.1.2-.3.3.1-.3zm23.6.3l.2-.2c.2-.2.2-.1 0 0 0 .2-.2.2-.2.2zm-14-.2s0-.2.2-.2c.1-.2.1-.2 0 0l-.2.2zM33 140c0-.1 0-.1 0 0 .1 0 .1.1 0 .2v-.2zm141.2 0l.2-.2c.2-.2.2-.2 0 0 0 .2-.2.2-.2.1zm-13.8-.4c0-.2.2-.2.2-.2l-.1.2-.3.2.2-.2zM33 139.5c0-.1 0-.1 0 0 .1 0 .1.1 0 .1v-.1zm141.5 0l.2-.2c.2 0 .2 0 0 0 0 .3-.2.3-.2.2zm-16.5-.4l.3-.3-.2.3-.3.3s0-.2.2-.3zm-6.8.1l.3-.3.4-.3-.3.3-.4.3zm9.7-.3l.2-.2-.1.2-.3.2.2-.2zm14 .1l.3-.2c.1-.1.1-.1 0 0l-.2.2zm-16.1-.6l.2-.2-.1.2-.3.2.2-.2zm2.7-.2l.3-.2-.2.2-.3.3.2-.3zm13.9.3l.2-.2c.1-.1.1-.1 0 0l-.2.2zm-16.1-.4l.1-.2c.2-.2.2-.2 0 0l-.1.2zm16.7-.3l.2-.2-.1.2-.3.2.2-.2zm-14.1 0l.3-.4.4-.3-.4.3c-.2.4-.3.4-.3.3zm-8.7-.7l.6-.6-.5.6-.6.6.5-.6zm-66.1.3h.2-.2zm3.1 0h.2-.2zm-3.9-.1h.1c-.1 0-.2 0 0 0zm5 0h.1-.2zm85 0l.2-.2c.2 0 .2 0 0 0 0 .3-.2.3-.2.2zm-84.3-.1h0s-.1 0 0 0zm34.7-.2l.2-.2c.1-.1.1-.1 0 0l-.2.2zm36.3-.5l.4-.4s0 .2-.3.4l-.4.3.3-.3zm14 .1l.1-.2v.2l-.3.2.1-.2zm.4-.6l.3-.2-.2.2-.2.2.1-.2zm23.7-.1l.3-.2-.2.2-.2.2.1-.2zm-37.2-.4v-.2c-.1 0 0 0 0 0l.2.1c-.2.2-.3.2-.2 0zM27 135.3h.1c-.2 0-.2 0 0 0zm.5 0h.1c-.1 0-.2 0 0 0zm.7-.4l.3-.2-.2.2c0 .2-.2.3-.2.3l.1-.3zm52.8 0c-.2-.2-.2-.2 0 0l.2.1-.2-.1zm97.1-.5v-.2.2zm-79.4.3l.2-.2h.2l-.2.1c-.1.1-.2.1-.2 0zm-72.7-.4v-.1.1zm2.6 0v-.1c.1 0 .1.2 0 .2v-.1zm51.6 0v-.1c.3.1.3.2.2.2l-.2-.2zm-54.2-.6s0-.1 0 0v0zm2.6 0s0-.1 0 0c.1 0 .1.1 0 .2v-.2zm51-.2c-.1-.2-.1-.2 0 0 .2 0 .2.1.2.2l-.2-.2zm49.6.2s0-.2.2-.2c.1-.2.1-.2 0 0l-.2.2zM26.3 133c.1-.2.3-.2.3-.2l-.2.2-.2.2.1-.2zm2 0l-.3-.3.3.2.2.2-.3-.2zm101.2.1l.2-.1c.1-.2.1-.2 0 0s-.2.2-.2.1zM27 132.7h.1-.1zm.5 0h.1c-.1 0-.2 0 0 0zm130.5-.5l.6-.5-.5.5-.5.5.4-.5zm-27.8 0h.2c.2-.2.2-.2 0 0 0 .1-.2.2-.2 0zm-6 0v-.2c.1 0 .1 0 0-.1 0 0 0-.1.1 0 .1 0 .1 0 0 .2s-.2.2-.2 0zm6.4-.4l.2-.2c.2-.1.2-.1 0 0 0 .2-.2.3-.2.2zm-5.8-.4l.3-.2-.2.2-.2.2.1-.2zm-20.9 0l.2-.1c.2-.2.2-.2 0 0 0 .2-.2.2-.2.2zm27 0l.2-.2c.2-.2.2-.2 0 0 0 .2-.1.2-.1.1zm28.7-.6l.3-.3-.2.3-.3.3.2-.3zm-34-.2l.2-.3s0 .2-.2.3l-.3.3s0-.2.2-.3zm5.8.2l.2-.2c.1 0 .1 0 0 0-.1.3-.2.3-.2.2zm-26.3-.2l.2-.2c.1-.1.1-.1 0 0l-.2.2zm.4-.3l.2-.2c.1-.1.2-.1 0 0l-.2.2zm26.3 0l.2-.2c.1-.1.1-.1 0 0l-.2.2zm-5.7-.4l.3-.3-.2.3-.3.2.2-.2zm34.6 0c0-.2.2-.3.2-.3l-.1.2-.3.2.2-.2zm-54.7 0l.2-.2c.2-.1.2-.1 0 0 0 .2-.2.3-.2.2zm26.2-.1l.2-.2c.2-.1.2-.1 0 0l-.2.2zm-25.8-.2l.2-.2c.2-.1.2-.1 0 0 0 .2-.2.3-.2.2zm20.5-.6l.3-.2-.2.2-.3.3.2-.3zm5.9 0l.2-.1-.1.2-.2.2v-.2zm28.5.3l.2-.2c.2-.2.2-.2 0 0 0 .2-.2.2-.2.2zm-54.2-.3l.3-.2-.2.2-.2.2.1-.2zm.6-.5l.3-.3-.1.3-.3.2.1-.2zm25.5.1l.1-.2c.2 0 .2 0 0 0 0 .3-.1.3-.1.2zm28.9 0l.2-.2c.1 0 .1 0 0 0-.1.3-.2.3-.2.2zm12.4-.6l-.6-.6.6.6.6.7-.6-.7zm-46.9.2l.3-.3-.2.3-.3.3s0-.2.2-.3zm-19.2-.3l.2-.2-.1.2-.3.2.2-.2zm25.3 0l.3-.2-.2.2-.2.2.1-.2zm29.5-.2l.2-.2c.2-.1.2-.1 0 0 0 .2-.2.3-.2.2zm-54.1-.3l.3-.3-.2.3-.3.2.2-.2zm19.2 0l.3-.3-.2.3-.3.2.2-.2zm6-.1l.2-.2-.1.2-.3.2.2-.2zm39-.4c-.2-.2-.2-.2 0 0l.2.2-.2-.2zm-63.6 0l.3-.4.4-.3-.3.3c-.3.4-.4.4-.4.3zm25-.2l.3-.2-.1.2-.3.2.2-.2zm-5.6-.2l.3-.2-.2.2-.3.3.2-.3zm-15.3-.2l.2-.2c.1-.1.1 0 0 0l-.2.2zm21.6-.3c0-.2.2-.3.3-.3l-.2.3-.3.3s0-.2.2-.3zm-24.2-.6l.6-.5-.5.5-.6.5.5-.5zm18.4.5l.3-.3.4-.3-.3.3-.4.3zm6.4-.7l.3-.2-.2.2-.2.2.1-.2zm-51 0h.4-.4zm-2.2-.2h.2s0 .1 0 0h-.2zm5.3 0h.2c.1 0 0 0 0 0H88zm42.3 0l.4-.4.3-.3-.3.4-.4.3zm-53-.5l.2-.2-.2.2-.3.3.2-.3zm91.3.2h.1-.1zm-32.2 0l.4-.4.3-.3-.3.3c-.3.4-.4.4-.4.3zm-21.4-.3l.2-.2c.2 0 .2 0 0 0 0 .3-.2.3-.2.2zm-1.1-1.7zm17.3 1.3l.3-.3.4-.3-.4.3-.3.3zm6-.3l.4-.3.3-.3-.3.3-.3.3zm-21.3-.4l.2-.2c.1-.1.1-.1 0 0l-.2.2zm16.5-.6l.4-.4s0 .2-.3.4a3 3 0 01-.5.4l.4-.4zm6.2-.5l.5-.4-.5.5-.5.4zm-119.1.3h0s-.1 0 0 0zm.5 0h.1-.1zm.7-.3l.2-.2-.1.2-.2.2v-.2zm.4-.7c0-.1 0-.2 0 0v0zm112.3.1l.3-.3.4-.3-.3.3-.4.3zm-16.2-.2l.2-.2c.2-.1.2-.1 0 0 0 .2-.2.3-.2.2zm40.3-.1l.2-.2c.1-.1.1-.1 0 0l-.2.2zM21.2 121v-.1.1zm119.9-1.2zm16.8 1l.2-.1c.1-.1.1-.1 0 0l-.2.2zm-14-.1l.1-.2c.2-.2.2-.1 0 0l-.1.2zm14.3-.2s0-.2.2-.2c.2-.2.2-.2 0 0l-.2.2zm-41.4-.7l.6-.6-.5.6-.6.6.5-.6zm17.8.6l.4-.4.3-.3-.3.3-.4.4zm9.6-.2l.2-.1c.1-.2.1-.2 0 0s-.2.2-.2.1zm14.6-.6l.2-.2c.2-.1.2-.1 0 0 0 .2-.2.3-.2.2zm-13.9-.3l.2-.2c.1-.1.2-.1 0 0l-.2.2zm14.2-.1l.2-.2c.2-.1.2-.1 0 0 0 .2-.2.3-.2.2zm-22.8-.6l.4-.4s0 .2-.3.4l-.4.3.3-.3zm-18.2-.2l.4-.3-.3.3-.4.4s0-.2.3-.4zm27.2.4l.2-.2c.2-.1.2-.1 0 0 0 .2-.2.3-.2.2zm14.2 0l.1-.2c.2-.1.2-.1 0 0l-.1.2zm-13.7-.6l.2-.2-.1.2-.2.2v-.2zm-2.4-.6l.4-.5s0 .2-.3.5a3 3 0 01-.5.4l.4-.4zm2.8 0l.3-.1-.2.2-.2.2.1-.2zm14 .2l.2-.2c.1 0 .2 0 0 0-.1.3-.2.3-.2.2zm-41.4-.2l.4-.3.3-.3-.3.3-.4.3zm41.8-.3l.2-.2c.2-.1.2-.1 0 0l-.2.2zm-22.6-.6l.6-.5-.5.5-.5.5.4-.5zm8.6.5l.2-.2c.1-.1.1-.1 0 0l-.2.2zm-2.3-.4l.3-.3-.2.3-.3.2.2-.2zm16.6 0h.2c.2-.2.2-.2 0 0 0 .1-.2.2-.2 0zm-41-.3c0-.2.2-.3.3-.3l-.2.3-.3.2.2-.2zm27.4-.1l.2-.2-.1.2-.3.2.2-.2zm14 0l.2-.2c.2-.1.2-.1 0 0 0 .2-.2.3-.2.2zm-16.2-.3l.2-.2-.1.2-.3.2.2-.2zm-24.6-.4l.3-.2-.2.2-.3.3.2-.3zm27.3 0l.3-.2-.2.2-.3.3.2-.3zm-2.2 0l.2-.2-.1.2-.3.2.2-.2zm16.2.1l.2-.1c.1-.2.1-.2 0 0s-.2.2-.2.1zm-144.3-.2h0s-.1 0 0 0zm.5 0h.1-.1zm.7-.3l.2-.3v.3c-.2 0-.3.2-.3.2l.1-.2zm127.3.1l.1-.2c.2 0 .2 0 0 0 0 .3-.1.3-.1.2zm16.3-.3c.2 0 .3-.2.3-.2l-.1.2-.3.3.1-.3zm-14 .1l.3-.3.3-.3-.3.3-.3.3zm-27.1-.3l.2-.2-.1.2c-.1.2-.2.2-.3.2l.2-.2zm25.2.2l.2-.2c.1-.1.1-.1 0 0l-.2.2zm16.4-.5l.2-.2-.1.2-.3.2.2-.2zm-143.7 0v-.1.1zm121.8-.9l1-1c.1 0-.3.5-.9 1l-1 1 1-1zm-19.2.6l.2-.2v.2l-.3.2.1-.2zM19.1 114s0-.1 0 0v0zm130.6-.3l.4-.6c.3 0 .2.1-.4.6l-.5.6zm13.6.3l.2-.2-.1.2-.2.2.1-.2zm-41-.3l.2-.2-.2.2-.2.2.1-.2zm41.4-.2l.1-.1c.2-.2.2-.2 0 0 0 .2-.1.2-.1.1zm-41-.4l.3-.3-.1.3c-.2 0-.3.2-.3.2l.1-.2zm.5-.6l.3-.1s.1 0 0 0l-.3.2c-.1 0-.1 0 0 0zm.4-.4l.1-.3h.3l-.2.2-.1.1v.1h-.1zm20.8-1.8l1-1-1 1-.8.9.8-1zm19.1-.2v-.2l.1.3v-.1zm-147.8-1.6h.1-.1zm.5 0h.1c-.1 0-.2 0 0 0zm130.2 0l.3-.4.4-.3-.4.3-.3.3zM16.9 108l.3-.2-.2.2-.2.2.1-.2zm.4-.7s0-.1 0 0v0zm130.5-.3l.2-.2-.1.2-.3.2.2-.2zm-130.5-.2c0-.1 0-.1 0 0v0zm143.7-.5l-.2-.3.3.2.3.3-.4-.2zm-12.4 0l.2-.2c.1-.1.1-.1 0 0l-.2.2zm.7-.6l.2-.2c.2-.1.2-.1 0 0l-.2.2zm10.4-.7l-.2-.3.3.2.2.3-.3-.2zm-18.4-.8v-.2.2zm-.7-1.6c-.1-.2-.1-.2 0 0l.2.1-.2-.1zm-1-1c0-.1 0-.1.1 0l.2.2-.2-.1zm-124.8-.4h.2l-.2.1c-.1 0-.1 0 0 0zm.5 0h.2l-.2.1s-.1 0 0 0zm.7-.3l.2-.2-.1.2-.3.2.2-.2zm.4-.7c0-.1 0-.1 0 0v0zm0-.5c0-.1 0-.2 0 0v0zm114.9-1.6h0s-.1 0 0 0zM15 87h0s-.1 0 0 0zm.5 0h.1-.1zm.7-.4l.2-.2-.1.2-.2.3v-.3zm135.4.2h.1-.1zm.5 0h.1c-.1 0-.2 0 0 0zm.7-.4l.3-.2-.2.2-.2.2.1-.2zM16.7 86v-.1.1zm136.6-.3s0-.1 0 0v0zm-136.6-.3s0-.1 0 0v0zm136.6-.2c0-.1 0-.1 0 0v0zM16.4 80h.1c-.1 0-.1 0 0 0zm.6 0h0c-.1 0-.1 0 0 0zm89.5-.3c0-.2.2-.3.3-.3l-.2.3-.3.2.2-.2zm-88.8 0c0-.2.2-.3.2-.3l-.1.2-.3.2.2-.2zm132.7 0h.1c-.1 0-.1 0 0 0zm.6 0h0s-.1 0 0 0zm.7-.4l.2-.2-.1.2-.3.2.2-.2zM18 78.8s0-.1.1 0v0zm89-.3c0-.1 0-.1 0 0v0zm45 0c0-.1 0-.1.1 0v0zm-134-.2c0-.1 0-.1.1 0v.1zm134-.3c0-.1 0-.2.1 0v0zm-45.7-1.4l-.2-.3.3.3.3.3-.4-.3zM18.4 73h.1c-.1 0-.2 0 0 0zm.6 0h0c-.1 0-.1 0 0 0zm.7-.4l.2-.2-.1.2-.3.2.2-.2zm128.8.1h.2l-.2.1c-.1 0-.1 0 0 0zm.5 0h.2l-.2.1s-.1 0 0 0zm.7-.3l.2-.2-.1.2-.3.2.2-.2zM20 71.8c0-.1 0-.1 0 0 .1 0 .1.1 0 .2v-.2zm130-.2c0-.1 0-.1.1 0v0zm-130-.3c0-.1 0-.2 0 0 .1 0 .1 0 0 .1v-.1zm130-.2c0-.1 0-.2.1 0v0zM21.3 66.3h0c-.1 0-.1 0 0 0zm.5 0h0s-.1 0 0 0zm.7-.4l.2-.2-.1.2-.3.2.2-.2zm123.3 0h.2l-.1.1c-.1 0-.2 0 0 0zm.6 0h.2l-.2.1c-.1 0-.1 0 0 0zm.7-.3l.2-.2-.1.2-.3.2.2-.2zm-124.2-.4c0-.1 0-.1 0 0v0zm124.5-.3c0-.1 0-.1.1 0v0zm-124.5-.2c0-.1 0-.2 0 0v0zm124.5-.3c0-.1 0-.2.1 0v0zM28.6 54h.1-.1zm.5 0h.1c-.1 0-.2 0 0 0zm.7-.4l.3-.2-.2.2c0 .2-.2.3-.2.3l.1-.3zm108.5 0h.2l-.1.1h-.1zm.5 0h.2l-.1.1c-.1 0-.2 0 0 0zm.7-.3l.3-.2-.2.2-.2.2.1-.2zM30.2 53v-.1.1zm109.7-.4s0-.1 0 0v0zm-109.7-.2s0-.1 0 0v0zm109.7-.3c0-.1 0-.1 0 0v0zM33 48.5h.2l-.1.1H33zm.5 0h.2l-.1.1c-.1 0-.2 0 0 0zm.7-.3l.3-.2-.2.2-.2.2.1-.2zm99.5 0h.2s0 .1-.1 0h-.1zm.5 0h.2s0 .1-.1 0c-.1 0-.2 0 0 0zm.7-.3l.3-.2-.2.2-.2.2.1-.2zm-100.3-.4c0-.1 0-.1 0 0 .1 0 .1.1 0 .1zm100.7-.3c0-.1 0-.2 0 0v0zM34.7 47c0-.1 0-.2 0 0 .1 0 .1 0 0 .1V47zm100.7-.3v-.1.1zm-97.2-3.2h.2-.2zm.6 0h0s-.1 0 0 0zm.7-.3l.2-.2-.1.2-.3.2.2-.2zm89.2.1h0c-.1 0-.1 0 0 0zm.5 0h.1-.1zm.7-.3c0-.2.2-.3.2-.3l-.1.3-.2.2V43zm-90-.5c0-.1 0-.2 0 0v0zm90.4-.2v-.1.1zM39.8 42c0-.2 0-.2.1-.1v.1zm90.5-.3s0-.1 0 0v0zm-86.5-2.5h.1-.1zm.5 0h.1c-.1 0-.2 0 0 0zm.7-.3l.3-.2-.2.2-.2.2.1-.2zm78.1 0h.1c-.1 0-.2 0 0 0zm.5 0h.1c-.1 0-.1 0 0 0zm.7-.3l.3-.3-.2.3-.2.2.1-.2zm-79-.4c.1-.1.1-.2.2 0v.1l-.1-.1zm79.4-.3v-.1c.1 0 .1.2 0 .2v-.1zm-79.3-.2v-.1.1zm79.3-.4s0-.1 0 0c.1 0 .1.1 0 .2v-.2zm-71.6-1.8l.2-.4.2-.3-.1.3c0 .3-.3.5-.3.4zm2.8-3.3H56c-.1 0-.1 0 0 0zm.6 0h0s-.1 0 0 0zm.7-.3c0-.2.2-.3.2-.3l-.1.3-.3.2.2-.2zm53.5 0l.2.1h-.2zm.6 0l.2.1h-.2s-.1 0 0 0zm.7-.3l.2-.2-.1.2-.3.3.2-.3zm-54.5-.4c0-.2 0-.2.1-.1v.1zm54.8-.2c0-.2 0-.2.1-.1v.1zm-54.8-.4s0-.1.1 0v0zm54.8-.2s0-.1.1 0v0zm-49.6-.7h0c-.1 0-.1 0 0 0zm.5 0h0s-.1 0 0 0zm.7-.4l.2-.2-.1.2c-.1.2-.2.2-.3.2l.2-.2zm40.2.2h.2-.2zm.6 0h0s-.1 0 0 0zm.7-.4l.2-.2-.1.2-.3.2.2-.2zm-41.1-.5s0-.1 0 0v0zm41.4-.2s0-.1.1 0v0zm-41.4-.3c0-.1 0-.1 0 0v0zm41.4-.2c0-.1 0-.1.1 0v0zm-36.3 0h0c-.1 0-.1 0 0 0zm.5 0h0s-.1 0 0 0zm.7-.3c0-.2.2-.3.2-.3l-.1.3-.3.2.2-.2zm26.7 0l.2.1h-.1c-.1 0-.1 0 0 0zm.6 0l.2.1h-.2c-.1 0-.1 0 0 0zm.7-.3l.2-.2-.1.2-.3.3.2-.3zM71 27v-.1.1zm5.4-.2h.2l-.2.1s-.1 0 0 0zm.5 0h.2l-.1.1h-.1zm13.5 0h.2l-.1.1c-.1 0-.2 0 0 0zm.5 0h.2v.1h-.2zm8 0c0-.2 0-.2.1-.1v.1zm-21.3-.3l.2-.2v.2l-.3.2.1-.2zm14 0l.3-.2-.2.2-.2.2.1-.2zm-20.6 0v-.1 0zm28-.3s0-.1 0 0v0zm-21-.4c0-.1 0-.1 0 0v0zm14 0c0-.1 0-.1 0 0 .1 0 .1.1 0 .2v-.2zm-14-.5c0-.1 0-.2 0 0v0zm14 0c0-.1 0-.2 0 0 .1 0 .1 0 0 .1v-.1z" fill="#616161"/><path d="M82.8 166.9c-.8-.1-1.3-.5-1.9-1.1-.6-.7-.9-1.3-.9-2.2a3 3 0 011-2.4c.8-.7 1.4-1 2.4-1s1.6.3 2.4 1c.7.7 1 1.4 1 2.4s-.3 1.6-1 2.3c-.5.5-.8.7-1.2.8-.7.3-1.3.3-1.8.2zm-34.9-9.7c-.7-.2-1.3-.5-1.9-1.1-.6-.7-.9-1.4-.9-2.3a3 3 0 011-2.4c.8-.7 1.4-1 2.4-1s1.6.3 2.4 1c.7.8 1 1.4 1 2.4s-.3 1.6-1 2.4c-.5.4-.8.7-1.2.8-.7.2-1.3.3-1.8.2zm-25-26c-.8-.2-1.4-.5-2-1.1-.5-.7-.8-1.4-.8-2.3a3 3 0 011-2.3c.7-.8 1.4-1 2.4-1s1.6.2 2.3 1c.8.7 1 1.4 1 2.3s-.2 1.7-1 2.4c-.4.5-.7.7-1.1.8-.7.2-1.3.3-1.8.2zm61.5-27.3l-.2-.3-1.7-3.7a39.5 39.5 0 01-1.5-3.6l2.8 1.8 2.7 1.8-.7 2-.9 2.1c0 .2-.2.2-.5 0zm4.4-2.8a70.8 70.8 0 00-4.4-3 72 72 0 00-3-2l.3-.3c.2-.2.3-.1 1 .2.6.3.7.3 1.7.3s1.2 0 1.8-.3c.8-.4 1.6-1.2 2-2 .2-.5.3-.7.3-1.6v-1l.3-.2.4-.3.2 1.3a453.2 453.2 0 001 8c.2 1.8.2 1.8 0 1.8l-1.6-.9zm-74.4-5c-.8-.2-1.4-.5-2-1.1-.5-.7-.8-1.4-.8-2.3a3 3 0 011-2.3c.8-.8 1.4-1 2.4-1s1.6.2 2.3 1c.8.7 1 1.4 1 2.3s-.2 1.7-1 2.4c-.4.5-.7.7-1.1.8-.7.2-1.3.3-1.8.2zm137.5-.1c-.7-.2-1.3-.5-1.8-1.1-.7-.7-1-1.4-1-2.3a3 3 0 011-2.3c.8-.8 1.5-1 2.5-1s1.6.2 2.3 1c.7.7 1 1.4 1 2.3s-.3 1.7-1 2.4c-.4.5-.8.7-1.1.8-.8.2-1.3.3-1.9.2zm-72.7-3a38.2 38.2 0 00-3-5.7 662.5 662.5 0 00-9-17.1A1158.4 1158.4 0 0156 48.5a94.3 94.3 0 01-3.7-7.1c-2-4-2.2-4.1-2.4-4.2-1-.1-1.4-.4-2-.9-.3-.2-.6-.7-.8-1-.4-.9-.4-2 0-3l.2-.4-.8-1.6a13994.8 13994.8 0 01-4-7.4l-1-2.2c-2.5-4.8-2.4-4.3-2.2-4.6.2-.3.6-.4.8-.1a303.4 303.4 0 019.4 14l3.7 5.6a339 339 0 009 13.7 17634 17634 0 0025.3 38.2l-.6.6c-.6.4-.7.5-1 .3l-1.4-.1c-1 0-1.1 0-1.7.3-1.3.6-2.2 1.9-2.3 3.3 0 .7 0 .7-.5 1-.5.4-.7.4-.7.2zM84 80l-4.5-6.7.4-20.4c.4-25 .4-22.5.6-22.7.2-.2.7-.2.9 0A22337 22337 0 0088.6 87L83.8 80zM24.3 61.9c-.7-.1-1.3-.5-1.9-1-.6-.8-.8-1.4-.8-2.3a3 3 0 011-2.4c.7-.7 1.3-1 2.3-1s1.7.3 2.4 1 1 1.4 1 2.4-.3 1.6-1 2.3c-.5.5-.8.7-1.2.8-.7.3-1.2.3-1.8.2zm117.8-.2c-.7-.1-1.3-.5-1.9-1.1-.6-.7-.9-1.3-.9-2.2a3 3 0 011-2.4c.8-.7 1.4-1 2.4-1s1.6.3 2.4 1c.7.7 1 1.4 1 2.4s-.3 1.6-1 2.3c-.5.5-.8.7-1.2.8-.7.3-1.3.3-1.8.2zm-25.3-24.5c-.7-.2-1.3-.5-1.8-1.1-.7-.7-1-1.4-1-2.3a3 3 0 011-2.3 3 3 0 012.5-1c1 0 1.6.2 2.3 1 .8.7 1 1.4 1 2.3s-.2 1.7-1 2.4c-.4.5-.8.7-1.1.8-.8.2-1.3.3-1.9.2zM52 32.6a17 17 0 01-1.4-2c.3-.2 1.2.3 1.7.7.9.8 1.3 2 1.2 3l-.1.4zm31.2-4.2c-.7-.2-1.3-.5-1.9-1.1-.6-.7-.9-1.4-.9-2.3a3 3 0 011-2.3c.8-.8 1.4-1 2.4-1s1.7.2 2.4 1c.7.7 1 1.4 1 2.3s-.3 1.7-1 2.4c-.5.5-.8.7-1.2.8-.7.2-1.3.3-1.8.2z" fill="#fd0000"/><path d="M83.7 98c-2.4-1.6-2.7-1.8-2.5-1.9h.2l.4.3c.6.3 4.8 3.2 4.8 3.4.1.2-.4-.1-3-1.8zm0-1.7h.2-.1zm1.1 0H85h-.2zm-1.5 0c0-.1.1-.1.2 0h-.2s-.1 0 0 0zm2.2 0c0-.1.1-.1.2 0h-.2s-.1 0 0 0zm-3-.4c-.2-.1-.2-.1 0 0 .4.1.4.2.3.2l-.3-.2zm3.5.1l.3-.1c.3-.1.3-.1 0 0 0 .1-.4.3-.3.1zm1.3-.8l.4-.4-.3.4-.4.4s0-.2.3-.4zm.7-1l.2-.3-.1.4c-.2.1-.2.1 0-.1zm.3-.8c0-.1 0-.1.1 0v0zm.1-.6c0-.1 0-.2.1-.1V92.8zm-8-1v-.1.1zm8 0c0-.2 0-.2.1-.1v.1zm-8-.6c0-.1.1-.1.1 0v0zm.3-.5l.1-.3c.2-.2.2-.2 0 0l-.1.3zm.8-1.3l.4-.3-.3.3-.4.4.3-.4zm1-.7l.3-.2-.2.2c-.3.2-.3.2-.1 0zm.8-.3h0s-.1 0 0 0zm2.2 0h0s-.1 0 0 0zm-1.7-.1H83.9h-.1zm1 0H85h-.2zm1.4-2.7l-4-6.2c-2.9-4.2-2.9-4.2-2.8-4.7v-1c0-.4 0-.3 4.6 6.4 4.4 6.7 4.5 6.8 4.3 7l-.5.3-.3.2zM51.4 33c-1-1.4-1.6-2.5-1.5-2.6h.4c.2.1.6.7 1.6 2.2a17 17 0 011.4 2.2l-.1.5c-.1.2-.3 0-1.8-2.3z" fill="#ba0000"/><path d="M170.2 193c-3.8-.5-6.9-2.5-8.2-5.5-.7-1.6-1-3.8-.7-5.7.4-3.4 2.5-6.6 5-7.8 1.3-.7 3.4-.9 5-.5 2.4.4 4.3 2.2 5 4.5a5 5 0 01-.1 2.9c-.5 1-1.2 1.2-2.2.6-.7-.4-1-.5-1.4-.3-1 .2-2 1.7-2.3 3-.2.7 0 1.7.3 2.3.4.9 1.5 1.6 2.8 1.8 1 .1 1.4.1 2-.2a9.7 9.7 0 004.4-5.6c.2-.8.2-1.2.2-2.3 0-1.3 0-1.4-.2-2-.7-1.5-1.7-2.6-5-5.6-3-2.8-4.5-4.6-5.6-6.9-1.1-2.3-1.5-4-1.4-6.4 0-1.5 0-1.8.4-3a27 27 0 0110.3-13.9c2.5-1.7 5.9-3 8.7-3.3l1.2-.1-.4-.4-1.4-1.9c-.5-.8-1-1.5-1.3-1.7-.6-.6-.7-1.2 0-1.9.3-.4 1.5-1 2.5-1.2.9-.2 1-.2 1.4 0 .6.1 1.7 1 2.3 1.6l.4.5.4-.4c.8-.8 2.6-1.5 4.5-1.5 1.3-.1 2 0 3 .3.8.3 1.2.8 1.6 1.8.2.6.2.7.1 1 0 .3-.3.6-.4.7-.3.3-.4.3-1.3.3-1.4 0-2.5.4-5.4 2.3l-2.5 1.5c-.7.4-.9.4-1.3.3-.3 0-.7-.1-1-.3l-.4-.2.2.2c.5.5 1.2.8 2.1.9 1 0 1.2 0 2.5-.8l1-.6.5.2c.9.3 2 .8 2.7 1.3 2 1.4 3.2 4.1 2.9 7-.4 2.8-2 7.5-3.7 11-1.8 3.9-3.5 5.6-6.8 7.1-3 1.4-5.5 1.9-7 1.2-.3-.1-.5-.3-.6-.6-.4-.8-.1-1.6 1-3a55 55 0 008.8-15.7c.3-1.1.3-2.6 0-3.1-.3-.7-.5-.8-1.7-.8-1.6 0-3 .5-4.8 1.7a22.3 22.3 0 00-7 8.5 11 11 0 00-1.6 6 9 9 0 00.7 3.8c.7 1.6 1.3 2.4 4.4 5.5 3 3 3.5 3.5 4.3 5.2a9 9 0 011 3.1c.6 3.9-.6 8-3.3 10.6a16.3 16.3 0 01-8.9 4.3 28 28 0 01-5.7.2zm-14.6-.8c-2.2-.6-4-1.6-5.7-3.2-2.1-2-3.4-4.7-3.9-7.8a62.7 62.7 0 0117.7-45.4l.5-.6-.3.1c-.7.1-2.5 1.1-3.7 2-4 3-8.5 8-12.8 13.9a87.3 87.3 0 00-12.4 22.6c-.4 1.4-.4 1.7 0 3.3.2 1.1.6 2 1.3 3 .4.7.5.7.4 1.3 0 1-.7 1.7-2.2 2.3-.5.2-.7.2-1.9.2-1.4 0-2.3-.2-4-.9a11 11 0 01-5.7-6.6 21 21 0 01-.6-9.2c1.3-11.6 8.2-27.3 18.5-42.1a102.8 102.8 0 019.4-12s-1.3.4-2 .8c-5.9 3.3-17 16.1-27 31-5 7.5-8.9 14-12 20.4a38.9 38.9 0 00-3.8 17.2c-.3.6-.8 1-1.5 1.3-.5.2-.9.2-2.1.2-1.4 0-1.5 0-2.5-.3-1.2-.4-2-1-3-1.9-1.7-1.6-3-4.3-3.4-7-.2-2.3 0-6 .8-9.7 1-5 3.1-11 6-16.8a163 163 0 0115.5-23.7l5.2-7.3c1.3-2 3.6-5.5 3.5-5.6l-1.4 1.7c-4.8 5.8-9.9 11-14.4 14.8A41.5 41.5 0 0193 137c-3.3.9-7 .7-9.4-.4-2.3-1.1-4.2-3-5.3-5.1-.4-.8-1.2-3.2-1.5-4.3-.2-1 0-1.7.4-2.4.8-.8 1.8-1 3-.4.4.2 1 .5 1.3.5 1.6.5 6.8.4 8.6 0 3.7-1 10.7-5 20.3-11.8l10.5-7.7c5.6-4.2 8.7-6.4 9.7-6.9.6-.3 1.4-.2 3.7.6 1.4.4 3.4 1.4 4.4 2a8 8 0 012.3 2.3c.3.5.3 1.3.1 1.8l-2.5 3.9a429.8 429.8 0 00-14.4 23.2l1.8-2c12.5-14.5 23.3-25.3 27.3-27.2.6-.3.8-.4 1.4-.4 1.4 0 3 .8 5 2.4 2.3 2 4.5 5.5 4.5 7.3 0 .6-.2.8-1.3 2.2a156.8 156.8 0 00-23 38.1l1.2-1.5c3.9-5 11.8-14 16.7-18.5 5-4.8 8.4-7.4 10.2-7.8.5-.1 1.5 0 2.2.3 2.3.7 5.7 4 7.1 6.7.7 1.4 1 2.9.7 3.5l-1.6 2a108.1 108.1 0 00-13.8 20.8 51.2 51.2 0 00-5.8 17.6c-.2 1.9 0 5.1.3 6.7a16 16 0 002.5 6.2c1 1.4 1 1.8.7 2.5-.2.6-.7 1-1.3 1.2a7 7 0 01-3.4 0zM76 164.4c-1.2-.4-1.2-2.2 0-2.5 1-.3 1.9.6 1.6 1.6 0 .4-.6.9-.9.9H76zm-7.2-1.2c-1.2-.3-1.2-2.1 0-2.5 1-.2 1.9.7 1.6 1.6-.1.4-.6 1-.9 1h-.3-.4zm-7.1-2c-1.3-.3-1.3-2.1 0-2.5 1-.2 1.8.7 1.6 1.6-.1.4-.7 1-1 1H62h-.4zm-7-2.8c-1.2-.4-1.2-2.1 0-2.5 1-.3 2 .6 1.7 1.6-.1.4-.7 1-1 1h-.2-.4zM42.2 151c-1.3-.4-1.3-2.2 0-2.5 1-.3 1.9.6 1.6 1.6-.1.3-.6.9-.9.9h-.3-.4zm-5.6-4.6c-1.2-.4-1.2-2.2 0-2.5 1-.3 1.9.6 1.6 1.6 0 .3-.6.9-.8.9h-.8zm-5.1-5.3c-1.2-.3-1.2-2.1 0-2.5 1-.2 1.9.7 1.6 1.6-.1.4-.6 1-.9 1h-.3-.4zm-14-4c-.3-.4-.2-.6.5-1l4.7-3.3 51.8-36 6-4v-.9a4 4 0 013.4-3.5c.7 0 1.5 0 2.2.2l6.8-4.5a4235.5 4235.5 0 0111.7-8c1-.2 2.1.6 2.4 1.6.2.5.2.6 0 1.1 0 .3-.2.7-.4.8-.1.2-1.5 1.1-3 2.1A4340.8 4340.8 0 0089 91l-.6.4v.5a4 4 0 01-5.9 4l-.5-.3-.4.3a13878.2 13878.2 0 00-62.5 40.7l-1.4.8-.4-.4zm9.6-1.7c-1.2-.4-1.2-2.2 0-2.5 1-.3 1.9.6 1.6 1.6-.1.3-.6.9-.9.9h-.3-.4zm-7.4-12.8c-1.3-.4-1.3-2.2 0-2.5 1-.3 1.8.6 1.6 1.6-.1.3-.7.9-1 .9H20h-.4zm-2.1-7c-1.3-.3-1.3-2.1 0-2.4 1-.3 1.8.6 1.6 1.6-.1.3-.7.9-1 .9H18h-.4zm-1.8-7c-1.3-.4-1.3-2.2 0-2.6 1-.2 1.8.7 1.6 1.6-.1.4-.6 1-.9 1h-.3-.4zm-1-7.2c-1.2-.4-1.2-2.1 0-2.5 1-.3 2 .6 1.6 1.6 0 .4-.6 1-.8 1h-.8zm.4-14.4c-1.3-.4-1.3-2.2 0-2.5 1-.3 1.8.6 1.6 1.6-.2.3-.7.9-1 .9h-.2-.4zm136.6-.3c-1.3-.3-1.3-2.1 0-2.5 1-.2 1.8.7 1.6 1.6-.1.4-.6 1-.9 1h-.3-.4zM16.4 79.8c-1.2-.3-1.2-2.1 0-2.5 1-.2 1.9.7 1.6 1.6 0 .4-.6 1-.9 1h-.7zm134-.3c-1.2-.4-1.2-2.1 0-2.5 1-.2 1.9.7 1.6 1.6 0 .4-.6 1-.8 1h-.8zm-132-6.7c-1.2-.4-1.2-2.1 0-2.5 1-.3 1.9.6 1.6 1.6 0 .4-.6 1-.9 1h-.7zm130-.2c-1.2-.4-1.2-2.2 0-2.5 1-.3 2 .6 1.6 1.6 0 .4-.6 1-.8 1h-.3-.5zM21.1 66.2c-1.2-.4-1.2-2.1 0-2.5 1-.3 2 .6 1.6 1.6 0 .4-.6 1-.8 1h-.3-.5zm124.6-.3c-1.2-.4-1.2-2.2 0-2.5 1-.3 1.9.6 1.6 1.6 0 .4-.6.9-.9.9h-.7zm-117.1-12c-1.3-.3-1.3-2.1 0-2.4 1-.3 1.8.6 1.6 1.6-.1.3-.6.9-.9.9H29h-.4zm109.7-.3c-1.3-.3-1.3-2.1 0-2.5 1-.2 1.8.7 1.6 1.6-.1.4-.6 1-.9 1h-.3-.4zM33 48.6c-1.3-.5-1.2-2.3 0-2.6 1-.3 1.9.6 1.6 1.6-.1.4-.6 1-.9 1h-.3-.4zm100.7-.4c-1.3-.4-1.3-2.2 0-2.5 1-.3 1.8.6 1.6 1.6-.1.4-.6.9-.9.9h-.3-.4zm-95.6-4.7c-1.2-.4-1.2-2.2 0-2.5 1-.3 1.9.6 1.6 1.6 0 .3-.6.9-.9.9h-.7zm90.4-.2c-1.2-.4-1.2-2.2 0-2.5 1-.3 2 .6 1.6 1.6 0 .3-.6.9-.8.9h-.3-.5zm-84.8-4.1c-1.3-.4-1.3-2.2 0-2.5 1-.3 1.8.6 1.6 1.6-.1.4-.6.9-.9.9h-.3-.4zm79.3-.3c-1.2-.4-1.2-2.2 0-2.5 1-.3 1.9.6 1.6 1.6-.1.3-.6.9-.9.9h-.3-.4zm-67.2-6.7c-1.2-.4-1.2-2.2 0-2.5 1-.3 1.9.6 1.6 1.6 0 .3-.6.9-.8.9h-.8zm54.8-.2c-1.2-.4-1.2-2.2 0-2.5 1-.3 1.9.6 1.6 1.6 0 .3-.6.9-.8.9h-.8zm-48-2.4c-1.3-.3-1.3-2.1 0-2.5 1-.2 1.8.7 1.5 1.7 0 .3-.6.9-.8.9h-.8zm41.4-.2c-1.2-.3-1.2-2.1 0-2.5 1-.2 1.9.7 1.6 1.6 0 .4-.6 1-.9 1h-.7zM69.3 28c-1.2-.4-1.2-2.2 0-2.5 1-.3 2 .6 1.6 1.6 0 .3-.6.9-.8.9h-.3-.5zm28-.2c-1.2-.4-1.2-2.2 0-2.5 1-.3 1.9.6 1.6 1.6 0 .3-.6.9-.9.9h-.7zm-21-1c-1.2-.4-1.2-2.1 0-2.5 1-.3 2 .6 1.7 1.6-.1.4-.7 1-1 1h-.2-.4zm14.1 0c-1.2-.4-1.2-2.1 0-2.5 1-.3 1.9.6 1.6 1.6-.1.4-.6 1-.9 1h-.3-.4z"/></g></svg>