<svg width="1950" height="600" viewBox="0 0 515.94 158.75" xmlns="http://www.w3.org/2000/svg"><circle cx="211.67" cy="79.38" r="52.92" fill="#fff" fill-rule="evenodd" opacity=".5"/><circle cx="317.5" cy="79.38" r="52.92" fill-rule="evenodd" opacity=".5"/><g fill="gray"><path d="M211.67 0a79.38 79.38 0 00-79.38 79.38 79.38 79.38 0 0079.38 79.37H317.5a79.38 79.38 0 0079.38-79.38A79.38 79.38 0 00317.5 0H211.79zm-.06 26.46a52.92 52.92 0 01.06 0 52.92 52.92 0 0152.92 52.86 52.92 52.92 0 0152.86-52.86 52.92 52.92 0 01.05 0 52.92 52.92 0 0152.92 52.91 52.92 52.92 0 01-52.92 52.92 52.92 52.92 0 01-52.91-52.86 52.92 52.92 0 01-52.92 52.86 52.92 52.92 0 01-52.92-52.91 52.92 52.92 0 0152.86-52.92zM462.98 39.69a39.69 39.69 0 00-39.65 39.69 39.69 39.69 0 0039.7 39.68 39.69 39.69 0 0014.88-2.9 39.69 39.69 0 01-24.81-36.78 39.69 39.69 0 0124.8-36.8 39.69 39.69 0 00-14.88-2.9 39.69 39.69 0 00-.04 0zM47.48 27.31v20.95A31.75 31.75 0 0034.03 54L19.1 39.07l-7.49 7.48 15.07 15.07a31.75 31.75 0 00-5.2 13.32H-.15v10.58H21.7a31.75 31.75 0 005.54 12.75L11.6 113.9l7.49 7.49 15.73-15.73a31.75 31.75 0 0012.65 5.17v22.31h10.59v-22.27a31.75 31.75 0 0012.74-5.12l15.64 15.64 7.48-7.49-15.5-15.5a31.75 31.75 0 005.64-12.88h21.62V74.94H84.3A31.75 31.75 0 0079 61.48l14.93-14.93-7.48-7.48L71.61 53.9a31.75 31.75 0 00-13.54-5.68V27.3zm5.4 31.07a21.17 21.17 0 0121.18 21.17 21.17 21.17 0 01-21.17 21.16 21.17 21.17 0 01-21.17-21.16A21.17 21.17 0 0152.9 58.38z"/><path d="M496.09 66.15a19.84 19.84 0 01-19.84 19.84 19.84 19.84 0 0119.84 19.84A19.84 19.84 0 01515.93 86a19.84 19.84 0 01-19.84-19.84zM476.25 52.92a13.23 13.23 0 01-13.23 13.23 13.23 13.23 0 0113.23 13.22 13.23 13.23 0 0113.23-13.22 13.23 13.23 0 01-13.23-13.23z"/></g></svg>