<svg width="4533.3" height="3666.7" xmlns="http://www.w3.org/2000/svg"><path d="M536 101a586 586 0 00-343 533 586 586 0 00586 586 586 586 0 00542-363 565 565 0 01-290 80 565 565 0 01-565-565 565 565 0 0170-271z" fill="#fff"/><g stroke-width="1.3"><path d="M2317 3503c-13-2-22-4-34-10l-9-4c-5 0-17-10-21-17-1-3-3-6-5-7s-4-5-6-8a100854 100854 0 01-9-16c-3-4-4-39-1-41l1-6 2-6c1-1 3-6 3-12l3-11c2-2 10 0 12 2l5 2 11 4 10 4 29-10 13-9 11-11c5-5 10-14 13-22 1-4 3-6 6-6 4 0 6 2 6 6 0 2 2 3 5 5a64 64 0 0130 23l3 4 2 4 4 5c2 1 3 3 3 5l2 5 5 8a121 121 0 010 61c0 3-2 7-4 10l-3 6-5 7-6 8c-1 2-12 11-21 16l-7 4-4 1-4 1c-4 4-24 6-40 5zm-731-141l-13-4-5-2-4-2-4-2-14-12a77 77 0 01-21-32l-2-3c-1-2-2-5-2-12 0-8-1-9-3-9-4 0-6-3-6-7 1-2 2-4 6-6a3749 3749 0 0031-15l6-6a519 519 0 0119-21l5-7c3-3 2-28-1-33-2-4-3-13 0-16 3-2 8-1 10 3 1 3 2 4 4 3l5-2h32c11 2 21 5 25 8l8 6c9 5 20 17 24 25 10 21 15 50 13 74-1 12-2 15-7 25s-8 13-17 21c-16 14-24 20-33 24-8 4-9 4-27 4l-29-2zm612-17c-7-1-13-4-13-7 0-1-1-2-4-2-4 0-6-1-12-7l-12-10-4-4-2-5c-3-5-3-28 0-37l2-10 2-5c1 0 2-1 2-3l3-3 6-8 4-5 9-8c6-6 8-7 14-7 15-2 25-1 33 3h6c8-2 11 7 4 14-2 3-5 4-6 4-3 0-11 10-15 17-9 21-10 26-7 51 1 11 5 22 8 24 2 1 2 6 0 8s-6 2-18 0zm-323-227a98 98 0 01-21-10c-5-2-18-16-26-27-9-14-10-16-12-31-2-11-3-15-5-16-4-3-4-8 2-12 4-3 15-17 15-19l6-8 5-8v-20c-1-22 0-24 6-24 3 0 6 2 6 6 0 3 2 4 6 1l8-3 13-3c6-3 7-3 19-1 11 2 16 4 34 15 16 9 38 34 38 42l2 4c3 3 5 15 6 32 1 13 0 16-1 18s-4 5-5 9c-2 5-6 10-19 27-6 8-16 16-25 21l-11 5c-3 2-37 3-41 2zm-588-126l-15-7-7-4-6-3-6-3c-3 0-11-10-15-17l-5-9-2-4-4-7-3-7-3-9c-3-6-4-8-4-23a127 127 0 013-30l1-6 4-10 4-10 2-6c0-4 1-5 5-9l6-4 7-7 8-6 4-2 9-4c5-1 9-3 9-4l4-1 7-2 11-4c11-1 13 0 12 9a131 131 0 006 64c1 4 3 7 9 13 4 4 8 8 8 10l4 3 23 6c4 2 9 3 20 2 13 0 15 0 18-2 3-3 8-4 11-1 2 2 2 6-1 9l-5 22-3 6-6 10c-3 7-8 12-17 21l-15 13-6 3c-11 7-23 11-38 13-20 2-23 1-34-3zm1041-8l-1-4-3-6-9-9c-3-4-7-7-9-7l-7-2h-16c-13 0-14 0-17-3-2-1-3-4-3-6l-2-7c-3-6-5-28-4-38 1-7 2-9 8-17 16-20 20-22 38-22 8 0 10-1 11-3 2-3 9-4 11-1 1 4 1 11-1 12l-2 8c-1 6 0 10 2 16l4 10 1 3c0 3 10 16 15 19l16 8 4 2 5 2c9 0 9 6 0 16l-6 8c0 3-15 14-19 15-2 1-5 2-6 4-2 4-7 4-10 2zm-531-97c-10-7-21-10-40-10-18 0-21-1-21-6 0-2-2-5-7-9l-6-9c0-2-2-4-4-5-8-4-20-20-20-26l-3-4c-1-1-3-4-3-7l-3-9-2-6c0-2-2-5-6-7-3-2-4-7-2-10l6-2c4-1 8-4 16-12l10-12 2-4 2-6 2-13c1-10 1-17-3-38-2-6-2-8 0-10 2-3 7-3 9 1 3 3 5 3 11-1 2-2 6-3 7-3l4-2c3-3 22-5 40-5 16 1 20 1 25 4a5768 5768 0 0044 20c2 0 26 25 26 27l4 9c3 3 5 8 5 10l2 5 1 4 2 5c2 2 3 35 2 38l-4 16c-6 27-6 26-14 34a36893 36893 0 00-36 34l-6 3-11 2c-7 1-10 2-12 4-4 5-9 4-17 0zm659-25l-1-6-3-8a168 168 0 00-24-27c-5-4-12-8-18-8l-6-1c-2-2-2-7 0-9v-8c-6-21-6-41-2-44l2-5c0-2 2-5 5-8l7-10c1-6 1-7 4-8 15-5 28-15 33-24 2-4 3-5 8-5l13-1a118 118 0 0145 7c6 1 9 4 20 14 20 19 29 34 32 51 2 21 0 39-8 55-3 7-22 28-25 28l-7 5-7 5-6 3-5 4-23-1c-19-1-23-1-25 1s-6 3-9 0zM640 2616l-7-2-4-2-5-2-11-6-20-13-5-5c-4-3-15-16-15-19l-1-5-4-8a85 85 0 0118-92c11-13 17-16 32-21l16-6c4-2 19-2 30 0 10 1 17 5 26 12l12 9c8 5 19 16 19 19l3 5 3 6 1 3 1 4 2 4 2 4 4 9c2 3 3 8 3 11l1 5c3 1 2 6-2 10-6 7-16 31-16 40 0 5-4 13-7 16l-8 8c-4 5-8 7-35 12l-8 3c-3 1-20 2-25 1zm296-13c-7-1-12-3-19-6a522 522 0 00-25-13c-7-4-15-13-19-22l-7-14c-5-6-8-14-10-30-2-12-2-14 0-18l6-18 6-15 1-4 3-6c4-9 20-22 26-22 1 0 6 2 9 5 11 8 12 8 25 8 17 0 28-2 32-6l5-3 8-6 9-5c4 0 6 3 6 6 0 2 1 4 3 5 8 5 23 22 28 31l5 12 3 9c3 5 4 8 3 12l-1 21c0 13 0 16-2 19l-3 5-5 9c-3 4-6 8-6 10 0 3-8 13-16 18-11 7-12 8-20 10l-19 8h-26zm1481-13c-4-3-13-4-38-6-13-1-17-3-18-9l-2-5-2-4-2-7-8-14c-2-5-8-12-10-12l-9-6a60 60 0 00-17-10c-2-2-2-7 0-9 2-1 2-5 2-14 0-12 2-19 9-32l2-8c0-3 1-5 7-9l17-13c8-6 11-8 17-9a104 104 0 0164 2c5 2 19 10 26 16l5 5 9 9c9 9 13 18 16 33a96 96 0 01-4 46l-1 4-1 4-2 4-1 3-4 7a176 176 0 01-42 33c-6 4-8 4-13 1zm265-184l-10-4-6-3-9-4-10-5c-5-2-14-10-14-12l-4-6-4-7-3-5c-2-2-4-7-5-12a108 108 0 016-52c5-15 8-21 15-28 8-8 22-19 26-19l7 4c2 3 5 4 6 4l9 5c10 6 21 8 43 7l17-1 8 7c11 11 15 17 20 29 3 11 4 12 3 26l-3 20-2 10c0 6-6 18-11 22l-7 6-5 4-4 2-10 5-9 4a80 80 0 01-44 3zm-995-148l-14-3c-3 0-9-4-15-8-5-4-11-7-13-7-6 0-9-7-4-14 2-1 3-4 4-6l2-5c3-4 5-18 4-30s-6-27-8-27l-2-3c0-3-12-14-18-17-3-2-4-8-1-10l2-5c0-5 4-11 7-13 2-1 8-6 13-12l16-13c10-4 23-8 31-9l11-2c2-1 7-2 19-1 17 1 22 2 32 11l12 7c4 1 7 5 13 12l9 14 5 9c3 3 3 4 4 23l1 21c3 3 1 20-2 27l-2 7-2 4-5 7-12 12-16 14c-4 4-8 7-10 7l-10 4c-5 3-12 5-21 6-15 2-17 2-30 0zm477-49l-14-2c-13-2-20-5-43-17-7-3-19-16-22-22-1-3-3-6-5-7-7-6-1-13 12-15 12-1 14-3 24-12 10-10 17-23 20-35 2-8 2-34 0-45l-2-15c0-7 0-8 4-10l13-4 16-6c8-4 28-8 37-8 7 0 9 1 9 6 0 3 2 4 11 9l12 5c4 0 16 19 19 32a181 181 0 01-5 101c-1 4-17 21-19 21l-9 5c-21 12-21 12-39 17-7 2-14 3-19 2zm895-7l-2-4-3-9-3-10a122 122 0 00-25-22c-10-4-12-5-19-6-9-1-11-2-11-6 0-5 3-6 9-6h6v-11c0-9 0-11 2-12 1-1 3-4 3-7 1-5 5-11 11-21 4-5 16-12 22-12l6 1c1 1 5 2 11 2 17 0 35 5 44 12l8 5c4 0 10 8 14 19l4 12-1 13-3 17-14 13a255 255 0 00-20 17c-1 0-5 1-9 4s-9 4-10 4c-4 0-9 3-10 6-2 3-8 4-10 1zm-1564-45l-14-2c-6 0-10-2-26-9-6-3-18-15-18-17 0-1-1-3-4-4-2-1-5-4-6-7s-4-7-6-8c-4-2-5-8-2-9l4-7c2-5 2-7 1-8v-16c3-19 3-39 0-42s-3-9-1-10l2-3a119 119 0 0123-22c3-3 6-4 11-4l10-3c5-3 15-7 19-7l6-2c1-2 6-1 8 1 1 1 2 7 2 17l2 25c1 5 2 11 1 13 0 4 3 13 7 16l2 4 4 4 11 9c4 4 9 6 12 7l14 3c11 3 23 3 26 1 2-3 10-3 13-1 3 3 2 8-3 11-2 1-4 4-4 6l-1 4-1 3-3 7-3 9c0 4-4 8-9 8-3 0-2-1-26 12-9 4-19 13-22 19-3 3-3 4-12 3l-17-1zm2120-50l-10-2c-14-2-20-9-27-29-2-4-2-10-2-24 1-17 1-18 5-25 4-8 18-21 26-25l9-5c9-6 27-4 44 4 2 1 2 4 0 24-2 12-2 13 1 19l7 7 6 5c2 3 6 6 14 9 8 4 15 9 16 12 0 4-2 7-6 7l-4 3-11 9c-9 7-9 8-20 8l-17 3h-31zm-975-126l-8-4-5-1-4-1-4-2-4-2-4-2-10-3-10-4-4-1-17-4-6-1-8-2-7-4c-7-2-10-4-10-9 0-2-1-5-3-6-2-2-3-5-4-14a249 249 0 013-62c2-13 5-19 12-27l8-10a126 126 0 0143-38l8-3a96 96 0 0119-6l2-3c0-4 2-7 6-7s5 3 6 17c1 12 1 13 8 22 6 10 20 24 23 24l15 7 21 8c9 2 35 1 41-2 9-4 12-3 14 6 1 4 0 6-6 13l-7 9-3 4-8 11-7 7-3 3-5 9a379 379 0 00-31 38 1180 1180 0 00-29 35c-12 11-15 12-22 5zm1270-81l-2-6c0-5-2-7-5-7-4 0-20-21-20-25 0-2-2-4-3-5-1-2-3-5-3-9l-3-8c-3-4-3-25 1-33l1-7c1-7 3-14 6-18l5-11c3-7 16-22 18-22 1 0 4-1 7-4 8-5 14-7 24-9 28-7 37-7 55 0l15 5 5 2 6 2c3 0 10 8 10 10l3 3 6 8 8 13c5 7 6 9 8 24v30l-3 14v6l-1 6c-2 3-8 3-11 0l-14-6c-9-2-13-3-27-3-16 1-23 2-32 5l-6 2-4 2-7 4c-11 4-26 23-26 32 0 5-8 8-11 5zm-3425-16l-9-2-5-2a193 193 0 01-36-36c-4-3-4-5-6-23-2-24-1-38 2-42l3-6c2-6 26-31 35-35l14-6c4-3 9-3 21-4 15 0 20 1 27 6 4 3 5 7 1 11s-5 11-5 24c0 9 0 12 3 18l6 11 5 9c6 8 26 28 31 30 3 2 5 3 5 5 1 4-2 7-5 7l-15 15c-9 11-13 15-16 16l-6 1-8 2c-7 1-36 2-42 1zm1387-49l-1-6c2-7-2-30-5-35l-2-5a101 101 0 00-30-36l-6-4-15-6c-8-3-12-3-20-3l-15 3-11 3c-5 0-9 2-13 5l-8 5c-4 0-8-6-7-10l-1-6c-2-3-5-56-3-58 1-1 5-2 11-2 16 0 34-3 44-8l11-3 10-3 7-4 21-19c16-17 25-29 30-45 5-11 5-12 13-11l11 3 10 2c9 2 24 10 32 19a145 145 0 0145 75c2 7 3 11 2 30 0 19 0 22-2 24s-3 5-3 8l-1 6-3 8-4 12a132 132 0 01-44 41 138 138 0 01-49 22l-4-2zm-426-3a187 187 0 01-42-16c-4 0-11-10-15-21l-4-8c-6-8-7-59-1-67l4-7c3-6 7-10 10-10l9 5 7 6 11-1a85 85 0 0034-9c9-4 15-10 20-20l5-11c1-2 6-3 9-1l8 5c7 4 34 30 34 34 0 2-2 5-7 9l-7 5c-2 0-22 22-24 27l-4 7c-1 3-4 25-3 29 2 15 4 23 7 28 3 6 4 10 1 12-6 4-42 7-52 4zm-363-198l-17-3c-18-6-22-8-27-12-9-7-15-14-15-17l5-8c9-9 10-11 8-21-5-23-13-39-22-46l-8-4-5-2c-3-2-7-3-10-3l-6-2c-3-2-2-7 0-9l3-16 3-14 1-5c0-4 8-21 13-27l4-7c0-2 2-4 3-5l3-4 3-5 4-4c0-3 2-5 6-5 3 0 6 2 6 5 0 1 1 4 4 6s4 5 4 6c0 3 15 14 21 16l13 2c7 1 8 0 19-5 14-6 21-12 27-21 3-5 4-7 7-7 4 0 12 7 15 14 3 6 8 7 28 7 12 0 15-1 21-3l7-4c1-2 9-2 11 0l1 4c0 2 1 2 3 3l5 10c5 14 7 19 10 22l3 7 3 16a108 108 0 01-3 50c-1 5-3 13-6 18l-6 13-5 8-13 17c-5 8-15 18-17 18l-4 3c-1 2-3 4-6 4l-7 3-6 2-3 1c-5 4-58 7-78 4zm1201-5l-2-6c-1-4-12-17-21-26-11-9-29-14-46-10h-11c-3-2-3-5-1-9v-6l-2-9-1-5a128 128 0 018-60c1-4 5-9 10-14l11-13c7-9 42-23 66-25 16-2 22 1 50 19 16 10 16 10 24 20 9 11 10 14 6 22l-3 9-4 7-5 9-2 5-2 4-4 7-3 6c0 3-5 13-8 14l-6 8c-1 3-6 9-11 13l-8 7-9 10c-6 6-9 10-9 12l-4 8c-5 5-10 6-13 3zm-737-33l-2-3-4-7-6-11-10-16c-5-6-6-14-6-35 0-22 1-32 5-40l3-5 3-7 3-7a123 123 0 0139-33l21-7 10-3c6-3 35-3 43 1l24 6 4 2 6 3c6 2 11 8 11 12 0 2-7 9-17 17-9 8-18 17-20 21a56456 56456 0 01-14 21c-7 6-14 41-13 61 1 11-1 19-5 20-1 1-7 0-13-1h-20c-11 2-24 6-30 10-4 3-10 3-12 1zm1525-87l-3-9-2-10-4-12-5-13-5-9c-3-6-18-20-27-27l-9-6-4-3-6-3-5-3v-17c-1-14 0-17 2-22l5-7 2-2 2-4 3-4c0-2 22-26 26-27l13-9c12-9 37-14 66-13 12 0 17 1 21 3l9 3c7 0 24 14 38 31a134 134 0 0111 17c5 6 7 19 7 43-1 30-2 38-12 52-7 11-40 46-44 46l-4 1c-7 4-17 5-45 5l-30-1zm-2627-28l-4-2-4-2-5-1c-3 0-6-1-10-6-5-5-6-6-6-11l-1-14-2-12-1-5h-10l-18-2c-9-1-22-4-25-6l-4-1-9-4-8-4a215 215 0 01-31-38l-7-14-2-4-1-27c0-25 0-31 6-42 3-7 14-22 17-24l7-5a123 123 0 0131-20c6-3 35-6 49-4 17 3 21 4 32 9 16 8 20 11 22 15l5 4 4 2c2 2 3 12 1 14-3 2-2 20 0 27l2 9 2 4 1 3c0 3 4 10 9 17l3 6-6 23 6 6c5 3 7 5 7 7 0 3-8 12-11 12a135 135 0 00-23 29l-6 16-5 18c-1 4-1 5 1 9l4 6c2 1 1 10-1 12s-7 2-9 0zm281-265c-4-1-12-5-14-8l-6-4c-8-4-27-26-31-34-8-19-10-27-9-45a88 88 0 016-36c0-4 8-18 15-27 8-9 20-19 32-25l8-4 23 1c14 0 23 1 24 2l3 1 6 3 9 3 8 3 4 2c2 0 18 16 23 24 3 3 5 9 6 11l2 8c5 19 6 22 6 41-1 16-1 21-3 28l-3 10-4 5-3 4a104 104 0 01-24 26l-15 8c-10 3-13 3-36 4l-27-1zm3271-15l-2-5-3-5-3-3c0-3-9-16-15-22-19-17-21-19-31-22-21-6-27-6-47-3-11 2-12 1-14-5l-3-6-3-12c0-6-1-10-2-11l-1-12c0-11 4-26 8-36l3-8 1-2 5-8 5-9 2-3 7-9c7-7 19-15 24-15 1 0 7-1 12-4l16-4 9-2c3-1 9-2 28-1 28 0 28 0 28 12 0 10 2 18 4 23l3 6c0 2 25 27 28 27l5 2a351 351 0 0032 11c2 2 2 7 0 9v10c2 12 1 25-3 33l-4 12c-2 11-8 22-17 30a53 53 0 01-15 10l-8 2-9 4c-6 5-10 7-14 7l-5 1c-1 1-2 2-5 2-2 1-4 2-5 5-3 5-8 5-11 1zm-1533-9l-8-5a144 144 0 01-29-27c-2-2-10-18-10-21l-2-4-2-7c0-4 0-5-2-5-3 0-6-3-6-6s8-12 11-12l9-7c7-7 16-22 16-27l4-5c2-4 4-4 11-5l51-7c46-8 47-8 60 4 14 14 15 15 17 45 1 17 0 29-3 35a190 190 0 01-14 25 115 115 0 01-25 23c-2 3-7 5-19 7-10 2-55 2-59-1zm-1056-134c-17-17-19-21-20-46 0-14-1-19-2-20-2-2-3-7 0-9l11-3 14-4c6-2 21-18 25-25 3-6 3-16 0-26-5-14-3-18 6-18l17-2c8-2 15-2 25-2 13 0 15 1 25 6 27 13 48 36 50 55l3 11c3 6 3 39 0 45l-3 6-3 6-3 8c-2 2-7 2-10-2s-13-9-17-9l-8-2a91 91 0 00-44 2c-2 0-3 1-3 2l-2 1-9 3c-8 4-22 17-30 29-2 3-4 5-6 5s-8-4-16-11zm2496-80l-5-2-12-7c-5-2-27-24-27-26l-3-6c-2-4-2-7-2-22 0-14 0-18 3-26 3-9 9-17 17-22 9-6 39-8 61-5 20 4 21 4 27 9 12 10 14 12 16 18l3 9 1 12c0 8-3 17-8 24l-3 6c0 2-16 23-18 23l-4 2c-5 4-12 8-21 10l-10 2c-4 2-9 2-15 1zm-2067-60l-1-20c0-21 1-25 7-33l8-12c5-8 26-26 33-29 10-3 30-6 38-5 34 4 37 5 37 11l-4 7c-5 7-6 10-7 24-1 11-1 13 1 20 3 9 4 14 1 16l-24 4a213 213 0 00-38 8l-5 3-4 1-13 3-11 3c-1 2-16 1-18-1zm-673-202a440 440 0 00-30-8c-8-3-11-4-13-7-1-3-3-4-7-5-4 0-6-2-12-8-14-16-12-19 8-20l21-3c16-7 46-32 46-40l2-4 3-13 4-16c3-6-3-36-9-44l-7-10c-5-7-6-13-3-17 2-2 4-2 14-1l15 2 10 3c7 1 14 4 25 12 7 5 14 14 14 16l3 7 11 22 2 5 2 6 1 6c2 1 3 20 1 31-1 14-2 17-6 26l-3 8c0 5-10 16-25 29l-12 11c-1 2-3 3-5 3l-7 3-7 3-7 2c-5 2-21 3-29 1zm1972-75l-2-7-3-6-2-3c0-4-10-14-15-17l-20-8-9-2c-6-2-7-2-19 0-14 3-16 2-17-5l-3-6-2-29c0-22 0-26 2-28l3-6c1-3 23-26 30-30a280 280 0 0025-9c16-6 21-7 34-6 11 1 14 2 29 7l6 4 4 3a95 95 0 0130 33c2 3 3 6 2 27 0 16-1 25-2 26l-2 5c0 8-9 20-24 34-3 3-25 15-26 15l-7 5c-5 5-9 6-12 3zm-411-72c-9-1-18-4-23-8l-5-4c-3 0-16-14-16-17 0-2 0-3-3-3-4 0-7-4-7-8 0-1-1-3-3-3l-4-2c-3-2-8-23-9-40-1-14 0-16 2-21l3-9 2-5 2-4 3-4 2-4c0-2 15-17 19-19l10-8 7-6 6-3c9-7 11-7 30-7 18 0 23 1 31 6l5 3 9 6 9 4c2 0 14 12 14 14l4 5 6 8c0 3 2 6 3 8 2 4 5 14 5 19 0 2-2 6-12 14-12 12-18 19-18 22l-1 3c-3 3-7 17-8 27-2 13-2 12-1 21 2 10-2 14-10 10-2-2-3-1-7 0-13 6-28 8-45 5zm-826-204l-12-2-7-5c-5-2-6-4-6-6-1-2-2-6-5-8l-6-8c-2-4-4-5-6-5-5 0-13-12-14-22l-2-9c-2-1-2-5-2-10s-1-9-2-9l-1-18c0-15 0-17 4-25l4-10c0-2 8-12 10-12l6-5 8-7c2 0 5-3 8-6 3-5 5-6 10-7s5 0 7 2c5 8 19 20 27 24s8 4 26 4c22 0 31-1 37-7 6-5 13-4 13 2l3 5 6 11 3 7a148 148 0 011 70c0 6-6 16-15 26l-9 10c-7 8-19 16-23 16l-7 2c-4 2-41 4-56 2zm-832-19l-2-4c0-2-1-3-8-5-8-3-10-5-20-19l-4-5-3-7-3-6c-3-4-5-33-2-39l2-11c2-8 3-10 7-10 2 0 13 4 22 9h19c19-1 31-4 39-10 8-5 13-4 18 6 6 10 6 24 1 36l-2 9c-1 11-1 11-7 11l-10 3-6 3-5 4-7 3c-4 0-5 1-12 10-5 8-6 11-7 15 0 6-2 9-6 9l-4-2zm-124-77l-2-9-2-11-4-8c-4-10-17-21-27-25-5-2-20-2-27 0l-11 8c-7 7-12 8-15 5-2-2-2-7 0-9 1-1 0-2-3-6l-5-10-4-9c-2-4-3-6-3-14 0-13 3-28 5-29a1035 1035 0 0018-8c4 0 32-24 32-27l1-3 3-8 2-9 2-7 3-7a98 98 0 0165 8l4 1 8 5 18 14c10 10 12 13 12 16l-2 5-2 4-1 4c-7 7-11 40-7 47l2 7 1 4 4 9c1 3 3 7 5 8l2 4c0 4-10 13-14 13l-2 2c0 3-15 18-18 18l-6 3-9 3c-9 1-13 3-13 7 0 3-2 6-6 6l-4-2zm1072-97c-1-1-2-7-2-16 0-10 0-16-2-18l-5-11c-4-9-17-26-21-26l-8-4c-4-3-8-4-9-4-6 0-9-9-4-12 2-2 5-10 5-15 0-3 3-7 9-15l13-17c4-7 12-15 17-16a325 325 0 0137-8c10-1 26 2 34 6l10 6c3 1 11 9 19 17 14 13 14 14 16 22l1 30c-1 21-2 25-9 39-2 5-16 20-21 22l-13 8-7 4-3 2-7 3-7 2c-3 2-41 3-43 1z" fill="#fe0000" opacity=".3"/><path d="M2000 3251l-1-4-2-4-4-10a133 133 0 00-8-21l-1-1-1-6-3-13a305 305 0 013-146l1-6c1 0 3-15 3-25l-1-53c-1-38-1-47 1-60 4-25 6-30 16-51l9-17c1-4 6-11 11-16a240 240 0 0177-59l12-7c0-2 11-12 15-14 4-1 21-5 34-6 8-1 11-2 16-5l7-4 7-4 6-3c2 0 10-9 10-11l5-5c6-4 8-7 13-15l3-5 4-6 7-10c5-6 8-7 16-3 10 4 12 10 8 32-3 17-4 39-5 75l-2 37c-1 4-3 54-3 108-1 45-2 50-4 56l-4 6-1 6-2 7c-2 2-3 9-4 31l3 9 3 7 4 4 3 3v32a1773 1773 0 01-7 156c-2 2-10 3-12 0l-8-57-3-23a1047 1047 0 01-8-124l-2-29a6521 6521 0 00-8-130c-2-19-2-43 0-53 6-38 8-61 5-63l-7 4c-6 5-19 11-28 14a168 168 0 00-24 9c-8 3-11 5-18 13a734 734 0 00-105 143c-6 7-6 5-1 65 2 18 1 35-2 51l-3 23-7 56a291 291 0 00-1 111c2 3 2 5 0 8-2 4-9 5-12 3zm-185-23l-3-6-1-4-7-19-18-58c-4-11-4-13-12-20-8-8-13-12-51-37a547 547 0 01-86-71l-35-32a1929 1929 0 01-101-93l1 7c2 11 2 47 1 56l-5 22c-3 16-4 33 0 45a483 483 0 0114 56 670 670 0 0117 47l-2 5c-3 2-4 2-15 1-15-2-14-2-37-37-12-18-12-17-18-29a193 193 0 01-9-104c5-22 6-66 4-81-1-8-1-10 1-16l3-7 1-4 2-6c1-4 3-19 2-20l-2-6a77 77 0 00-15-33c0-1-12-18-18-24-1-2-5-4-7-5l-5-3-4-1-6-2c-6-5-6-6-7-66a723 723 0 00-1-71l3-12a30879 30879 0 019-53c4-23 8-34 12-36l4-4 3-11a623 623 0 0016-47l1-4a215 215 0 0127-51l1-2 6-8c12-16 22-26 38-38l21-10 16-7 34-12 22-8 5-2 3-2 3-1 6-2 5-2 5-2 7-2c2 0 10-3 17-7l11-3c5 0 30-8 50-16 18-7 47-33 63-57 9-13 17-28 19-32a135 135 0 0010-30c2 0 7-12 9-22l4-10 2-7c1-5 1-5-23-15a1823 1823 0 01-149-67c-2-2-3-4-3-10l2-12c1-4 1-7-2-16-3-12-7-23-10-24l-2-4c0-4-2-6-10-14-19-19-28-22-59-22-15 0-17 0-26 4-13 5-20 10-24 16l-7 7-3 5-5 7c-5 4-5 4-16 3l-18-2c-6-1-8-1-19 3l-13 5-14 6-18 7c-9 4-15 4-26-2l-10-5h-24c-19 1-25 1-26 3l-4 2c-2 0-14 12-20 20a326 326 0 01-15 18c-3 5-9 28-9 32 0 2-22 24-61 63a1607 1607 0 01-111 107l-4 5-2 1c0 3-26 39-33 48-6 7-27 13-49 16l-15 3-10 1-12 3c-9 3-27 5-36 4-10-1-31 3-35 6l-7 2-5 1-3 3c-5 2-16 13-18 19l-2 7-1 4-7 9c-9 10-16 20-22 31l-9 16a354 354 0 00-25 55l-3 18c-2 22-6 28-20 28-11 0-14-5-10-20l2-35 3-39c1-8 6-23 11-31l2-6c0-5 18-32 33-51a203 203 0 0180-60 697 697 0 0185-13 1423 1423 0 0127-14 40399 40399 0 0033-17l10-4 6-2c5-2 20-18 37-40l13-16 8-11 34-45a2013 2013 0 0056-68 678 678 0 0137-43l4-5-6-1-24-2a252 252 0 01-109-23c-5-3-13-5-37-10-12-3-23-3-32-1a573 573 0 01-42 9l-8 2-7 3-3 1-6 2c-14 7-32 14-34 14-4 0-11-6-11-9l-1-3-5-5c-2-4-3-6-3-10 1-5 1-6 9-11l20-14a271 271 0 0157-30c2-2 17-5 36-7 14-2 14-2 37 7l17 5 8 3 9 4 10 4c14 7 22 9 44 9l39-1 63-4 46-3c2 0 6-4 10-8a125 125 0 0142-24l7-3 13-3c22-7 71-7 125-1l43 4c29 3 37 5 54 9 20 5 23 8 55 37l16 15 8-1c7-1 19 0 61 4a432 432 0 01119 22 580 580 0 0083 17c8 0 9 0 14-3a443 443 0 0196-39l44-8a457 457 0 00103-26h9c15-5 37-8 70-9 60-2 86-2 97 2l31 4c51 5 53 6 70 14a1331 1331 0 0062 26 319 319 0 0132 8c13 3 20 6 44 16l19 7 4-4 11-13a704 704 0 0038-47 2268 2268 0 0068-88c8-7 16-18 18-25l3-6 12-24a420 420 0 0126-44c8-12 6-10 20-25l33-31 23-20 5 1c14 2 31 2 45 0l21-3c6-1 13-4 20-7l12-7c2 0 7-4 10-7l8-6c3 0 17-14 19-18l4-6 2-3 7-10 6-11 5-7c3-4 7-7 14-9a547 547 0 01137-31 948 948 0 01121-12l12-3 7-2 5-1 17-3a338 338 0 0157-12c28-5 48-6 86-7a1365 1365 0 00286-34l-16-16a1437 1437 0 00-86-82l-16-15c-6-4-21-19-27-28l-10-13-26-29a278 278 0 00-90-82 647 647 0 01-54-36l-16-4a529 529 0 00-109-12 18298 18298 0 01-149 15 856 856 0 00-90 12 530 530 0 00-92 19c-7 2-17 5-22 5-7 2-11 3-16 7l-8 5c-2 0-16 12-16 14l-9 12a377 377 0 01-151 124 613 613 0 01-42 14l-71 24a415 415 0 00-94 47 389 389 0 00-119 113l-14 18a574 574 0 00-68 116 512 512 0 01-82 126c-7 6-11 6-16-1-9-8-9-11-7-22s9-32 12-38a268 268 0 000-50c-1-3-4-2-30 7-3 2-9 3-13 4-5 2-8 4-15 10-9 9-16 13-28 20l-25 22a526 526 0 01-37 33c-4 4-6 5-10 4-7 0-8-3-10-17-1-10-1-12-13-26-11-13-11-14 9-32 14-14 19-17 38-28 16-9 18-9 32-3 13 6 30 7 39 3 6-2 23-17 23-19l4-7c6-10 9-17 10-28 2-10 2-10 11-20l12-16c5-8 10-13 15-16 7-3 12-9 16-19a362 362 0 0118-35c11-22 14-26 18-32a905 905 0 0034-50l7-8c5-8 18-21 30-31 6-5 28-17 31-17l10-4a479 479 0 0157-25l15-7 5-2 8-4 13-7 27-14a1067 1067 0 0064-33c7-4 15-5 21-2 7 4 17 5 24 4 22-5 34-9 44-17l7-3 7-5 11-10c5-4 8-7 9-11l5-10c2-2 3-6 3-7l1-5c2-1 2-22 0-36-1-10-1-11 2-14l2-6 8-12 7-11 3-4 4-5 2-4 3-6 1-2 12-16a582 582 0 0120-36l-11-3-22-4a2190 2190 0 00-102-19l-71-7c-13-2-19-2-28-1a15655 15655 0 01-115 14c-2 2-54 9-61 9-3 0-6-1-8-3l-4-2v-38l-4-9c-7-13-14-20-26-25l-8-4-7-3-7-2c-5-3-31-7-40-7l-7 1-21 8-3 2-6 5-9 9-5 6c-3 1-12 15-14 21l-4 9c-1 2-19 2-21 0h-16c-14 1-15 1-19 5l-6 8-5 7-3 7-1 5-3 10-2 12-8 6a1103 1103 0 00-46 18l-50 20c-2 0-5 4-9 8-8 11-45 48-54 54l-7 6-10-1h-12l-12 4c-7 2-10 3-14 8l-6 6-5 4c-1 3-4 6-6 7-5 3-10 13-11 22 0 5 0 8 3 14l4 9 3 5c4 5 4 10 0 28-4 15-4 14-23 37l-11 16c-6 10-8 15-12 32a242 242 0 01-27 62 564 564 0 00-21 28c-12 15-14 15-25 2l-9-11c-3-2-7-11-7-16l2-8a325 325 0 0014-32 747 747 0 0022-53 509 509 0 0019-44c0-4 3-6 7-6 7 0 26-16 31-25a5158 5158 0 018-16c2-4 1-23-2-29l-4-9-3-9c0-4 4-15 8-24l8-16c8-19 11-25 24-41l15-17 35-40 20-16c15-10 15-11 37-35a397 397 0 0036-45l7-8-5-1-43 4c-8 1-17 4-38 11a447 447 0 01-66 17c-27 6-22 5-75 10a298 298 0 00-83 21 932 932 0 01-73 24l-14 6a841 841 0 00-90 47l-24 18c-4 3-25 27-25 29s-18 25-21 27c-2 2-4 2-14 1-14-1-19 1-22 7a83 83 0 01-13 20l-4 7c-3 6-4 7-2 17 3 27 3 28 0 32l-7 10-5 6c0 2-16 18-22 23a570 570 0 01-110 68l-5 2c-9 5-37 10-75 15-40 4-45 4-49 2-3-3-3-3-3-18l-1-22c-1-6-1-8 2-9a598 598 0 00104-44 2334 2334 0 0138-26l-8-3-10-4a234 234 0 01-56-32l-11-9c-13-8-53-40-66-52-8-8-9-9-8-13 2-8 6-13 10-13l7 1a742 742 0 0077 28c39 12 44 12 105 13l51 1 5-7 13-15 8-9h8c7 1 16 0 19-3l3-1c2 0 12-7 24-17l6-6 5-7a71 71 0 0015-53c-2-4-5-16-5-22-1-7 5-14 38-48a211 211 0 0161-48 159 159 0 0128-16l12-5 15-6a494 494 0 01109-28 864 864 0 0092-20l26-4c2 0 5 1 7 4 4 5 33 19 43 21 13 3 15 2 28-7l10-6c9-6 15-13 16-17l2-5 3-8c1-3 2-7 4-8 1-1 25-2 130-3a1539 1539 0 00227-10l27-3-6-5a363 363 0 01-33-26 488 488 0 01-41-32l-19-14c-8-6-12-8-23-11l-25-6a535 535 0 01-128-40c-4-3-4-3-4-16 0-8 0-14-2-17-5-13-8-17-10-19l-2-5c0-3-16-23-21-24l-7-5c-7-7-11-8-28-8-15 0-16 1-20 4l-12 7-15 9c-10 8-13 8-27-3a266 266 0 00-55-33l-16-7-12-5-3-1-19-7-31-12a366 366 0 00-78-17 488 488 0 00-64-13l-14-3a1162 1162 0 00-76-19l-14-4-9-3-12-3-21-6c-30-8-44-13-47-17l-9-7a640 640 0 01-38-16l-4-2c-2-1-5-2-11-2l-10-1-21-7c-12-3-17-4-21-8l-7-2-13-2c-11-3-40-7-54-8-9-1-10-1-14 1l-5 4-11 6a156 156 0 00-35 36c-2 1-13 16-13 18l-7 11c-7 9-11 12-15 8-2-1-2-3-2-9l2-8 4-11a143 143 0 0131-55c6-6 6-7 4-7l-5 1-16 4a527 527 0 00-77 21c-41 14-39 13-58 15a927 927 0 01-93-2c-4-5-4-11 2-16l4-5 13 1c22 0 47-3 76-11 17-4 35-12 38-15l3-1 5-1 7-4 10-4a348 348 0 0178-17c10-1 72-4 103-4 20 0 32 2 42 6a546 546 0 0059 23c26 8 34 9 79 9a1265 1265 0 0090-1c6 1 17 3 26 3a728 728 0 01178 37l24 6c14 3 40 10 46 13 6 2-1-3-8-6l-10-5-5-3a6365 6365 0 01-26-11l-15-4-27-8-21-6a461 461 0 01-109-43c-2-3-5-4-5-4-2 0-13-8-20-14s-8-7-7-12c0-7 3-9 9-7 2 1 10 3 18 3a187 187 0 0155 19l23 10c15 6 19 7 64 11 28 2 52 6 80 12 30 7 50 17 65 33l7 8-1 7-2 10c-3 5-1 26 3 35l5 9 1 3c0 2 18 21 25 27 4 2 8 5 11 5l5 2 22 2c18 1 20 1 28-2l14-4 41 8 17 11c14 12 33 23 44 25a787 787 0 0046 9 1964 1964 0 00179 45 241 241 0 0138 11 383 383 0 0158 21 817 817 0 01221 97 1485 1485 0 0092 44c14 7 14 7 47 10a581 581 0 0173 11 526 526 0 0171 11 578 578 0 0061 9l22 3a1766 1766 0 01131 18 1611 1611 0 00109 15l-8-10-11-13c-9-10-23-23-28-26a590 590 0 00-64-28l-7-3-8-3-13-4c-27-3-33-4-43-9l-11-5a1012 1012 0 01-71-28l-9-7c-3 0-11-10-11-14s2-5 9-7l7-2 5-2c5 0 12-4 17-9 3-4 5-5 9-5 5 0 6 1 18 13 11 11 14 13 21 15a272 272 0 0045 11c31 8 40 9 92 9l50 1c23 4 42 10 56 17a3667 3667 0 0061 34c2 3 5 4 6 4 2 0 18 11 28 19l9 5c1 0 21 17 27 24l5 8 8 11 16 17c3 5 15 17 25 26 19 17 19 18 19 23l-2 7-2 4-2 3-5 7-4 8c-5 9-10 21-13 30-2 8-3 11-2 24l2 21 3 14c2 18 6 27 15 36l6 8a107 107 0 0034 30c2 3 11 9 13 9l16 7 14 7h35c34 1 35 0 41-2l8-6c3-3 15-9 19-9l12 9c6 5 12 11 15 12l12 13 8 10v18c1 18 0 17 9 33l4 5c2 1 6 5 10 11 7 9 12 14 25 20 9 4 56 7 58 4l4-2 7-2 10-2c5-1 7-1 10 2l5 2 5 3 6 5a849 849 0 0152 34l8 5a538 538 0 0051 31l10 7 10 6 14 8a472 472 0 0153 29l19 10a465 465 0 0050 26c4 4 14 10 17 10l3 2 4 2 10 4c6 4 10 7 22 12a82 82 0 0116 10l10 4 8 2 14 3c10 2 14 4 25 9l8 2 4 2 7 2c5 2 14 5 20 9l14 5 12 5 4 1 5 2 5 2 6 2 5 2 5 2 10 4 8 4 4 1 4 1 4 2 5 2 5 2 8 2 5 3v220l-1 220-20-9c-10-6-17-9-29-10a115 115 0 01-26-5l-20-4c-23-5-39-6-79-6h-39l-12 11a3609 3609 0 01-103 89l-4 5-1 2-2 3c-3 2-7 8-21 29a1369 1369 0 01-35 54l-11 18-15 23c-4 8-13 18-23 26a1490 1490 0 01-178 109l-9 3-17 5a572 572 0 01-64 16l-38 2c-29 2-61 2-64-1l-2-6c0-4 1-6 6-10 10-11 18-16 24-17a963 963 0 0075-19l57-13 8-5 10-6c6-3 26-20 54-47a522 522 0 0159-52l5-11 6-15 4-7 2-8 2-5 3-6 5-10 3-7 2-5 3-4c0-1 9-20 15-29 2-4 2-5 0-5a380 380 0 01-86-43l-13-7c-1 0-4-2-6-5l-19-13-5-4-4-2-25-12-4-2c-2 0-8-2-20-8-6-2-13-3-77-5-43-2-45-2-45-10 0-4 1-6 7-12l11-14c8-14 9-14 22-16l30-3c20-3 39-3 58-1 15 2 20 3 21 8 0 3 2 7 7 18l2 9 4 8 3 8c0 1 2 4 5 6l6 6c0 3 9 10 11 10l5 2c5 5 32 7 49 5 10-1 24-6 27-9l3-2 7-3c4-3 5-4 14-3l13 3 10 3 10 3 8 3 25 6 10 3 9-6 10-7c4-5 21-18 37-28a825 825 0 0188-46l12-6 7-4a464 464 0 0150-25c0-2-12-11-17-13l-8-5a5875 5875 0 00-154-100c-3 0-17-13-19-16l-3-4c-4 0-12-3-20-8-5-3-8-6-9-9-1-4-14-18-16-18l-16-14-16-15-10-9c-4-5-9-10-11-10l-3-1-3-1-11-4-9-4-7-3a154 154 0 00-22-9c-12-6-24-10-31-11a1679 1679 0 00-335-12c-56 0-71 0-90-2-27-3-91-4-117-3-11 1-50 0-90-1a1562 1562 0 00-176 3c-3 1-11 3-16 6l-24 11a304 304 0 00-80 49c-17 11-75 73-81 86l-10 21a423 423 0 01-89 131c-27 27-28 28-52 64-11 16-38 51-50 63l-6 7-15 1a174 174 0 00-35 6c-6 1-16 6-24 11-5 3-16 16-29 33-4 5-8 14-8 18l-3 9c-2 5-3 15-4 35 0 5 0 6-6 11-3 4-7 6-7 6l-4 2c-3 3-9 6-29 17a426 426 0 00-36 19 2204 2204 0 00-79 44c-5 3-19 19-31 35a1310 1310 0 00-59 89 3394 3394 0 01-34 52c-11 17-17 29-23 46-6 18-7 18-15 17l-26-1c-13 1-19 0-21-1-3-2-2-14 1-23l3-11 2-6 3-10a127 127 0 0111-29l7-21a428 428 0 0020-59l6-14a307 307 0 0120-46 533 533 0 0085-60l22-31c6-8 11-13 14-13l12-4a305 305 0 0166-25l12-6 22-13c1 0 3-2 4-5l4-6 3-7 9-16c7-11 7-11 5-14-8-10-24-21-53-37a343 343 0 01-30-17 527 527 0 00-24-14 850 850 0 00-81-18l-27-6-22-5-13 2a6518 6518 0 00-109 18c-21 4-41 10-54 15-14 6-23 9-30 9-5 0-12-6-12-9 0-2-15-18-18-19l-3-3-3-2-18-8c-3-2-8-2-15-2-9 0-11 0-16 3l-7 4c-2 0-15 6-24 12-17 10-18 11-23 21l-5 12-2 4-3 7c-2 6-2 8-1 22l3 16c3 3 1 10-4 16l-5 8-3 4-12 16-13 19a932 932 0 00-44 64l-10 13-16 20a285 285 0 01-70 64l-9 5-8 3-3 2-11 5a408 408 0 01-62 28l-12 5-3 1-6 2a1439 1439 0 00-177 59l-11 14-2 5a969 969 0 00-42 88l-5 12-4 10-4 9-2 3-4 9-5 11c-3 4-3 4-2 20a1745 1745 0 013 116 180 180 0 0025 31l6 8a9509 9509 0 00165 179c27 19 33 25 39 37l6 12 3 5c1 5 29 30 33 30s8 2 9 5c2 7 20 24 37 35 20 15 34 27 38 36l2 8 2 2 1 3 9 37 4 30c3 42 3 45 2 47-3 3-8 2-12-2zm-128-1371a504 504 0 003-45 691 691 0 0110-96c1-7 8-35 10-37 0-1 4-2 12-2 10 0 11 1 14 4 2 2 3 4 2 11l-3 19-11 60c-1 8-2 12-5 14l-4 10-4 8-1 5c1 2 0 5-1 6v8c0 4 0 8-2 14l-4 13-3 8c-2 2-11 2-13 0zM584 1693c-3-4-3-10-1-15l4-10 3-7 1-4 2-4c3-3 11-2 15 1l5 3c4 1 7 4 7 8 0 3-3 11-4 11l-2 4c0 2-2 5-3 5l-2 3-2 5c-3 4-4 4-12 4s-8 0-11-4zm149-157l-6-8-2-7c0-5 1-7 5-10l9-6 18-11 13-9 26-14 13-8 7-5 3-2c3 0 30-23 39-35a155 155 0 0031-56l2-6 4-12 8-20 5-11-20-1a393 393 0 00-236 53 189 189 0 00-52 39c-8 9-17 6-22-7l-2-3c-1 0-5-3-9-8-11-11-11-15-2-24a301 301 0 0138-34c9-11 25-23 37-29a674 674 0 01102-42l40-7a993 993 0 01165 3 1021 1021 0 0168 16l10 5 9 6a432 432 0 0137 20l38 22c10 6 17 9 28 11 10 1 11 6 3 17l-5 8c0 3-7 7-11 7-3 0-6-2-13-8-12-11-23-16-33-16l-9 1-5 2-7 2c-4 2-13 2-21-1l-28-5c-4 0-11-5-11-8 0-2-2-3-9-4a235 235 0 01-30-6l-7-1-4 12a1968 1968 0 01-39 92c-8 12-29 36-41 48s-23 20-33 25a151 151 0 00-20 11l-5 3-6 3-10 4-9 3-3 2-3 1-8 3a450 450 0 01-28 10c-4 0-5-1-9-5z" fill="#005454"/><path d="M2266 3390l-9-5-5-1-10-4a249 249 0 01-38-33c-5-4-10-16-11-30-2-24-1-38 2-48a63 63 0 018-16c6-13 6-13 19-22 2 0 4-3 6-5 1-2 4-3 5-3l3-2 6-3 9-3c6-4 19-7 27-7s27 5 35 8l32 24c11 11 20 32 22 54 0 10 0 13-2 23-7 25-11 31-28 48l-17 15-8 3-11 4-10 4c-7 3-16 3-25-1zm-787-105c-19-3-36-13-50-29-8-10-9-12-12-24s-4-24-2-33l2-18 4-16 3-8c0-3 23-26 26-26l9-7c4-4 8-8 10-8l10-4c8-3 22-3 30 0l11 1c8-2 12-1 15 4l7 6a96 96 0 0148 52l3 6c5 14 5 42-2 50l-3 6c-2 5-29 34-32 34l-4 1c-4 4-13 8-27 13-9 4-29 4-46 0zm624-66l-8-2-19-5c-12-5-14-7-26-17-13-13-13-12-22-39l-2-19c-1-12-1-15 2-23l7-22c2-6 22-25 30-30a100 100 0 0149-8c15 0 27 3 33 6l4 1c3 0 33 30 37 37a127 127 0 015 70c-3 13-3 14-11 23-7 9-17 17-25 22l-4 3c-2 3-10 4-28 4l-22-1zm293-33l-18-7c-10-3-26-20-29-30l-8-17-7-14 1-16c1-15 1-19 5-29 4-11 6-14 14-23l13-11 25-11a69 69 0 0167 8c12 5 33 21 33 25l2 3 3 8c0 3 1 10 3 14 2 8 1 31-1 41l-17 35a95 95 0 01-23 18c-7 5-17 7-40 7l-23-1zm-126-119l-17-6c-12-6-16-10-25-29-3-5-3-7-2-23 1-17 3-32 6-37l3-5 2-4c2-7 4-10 10-15 6-7 12-10 18-8h18c16-1 29 2 36 7 5 4 21 22 21 24l3 5 2 4 4 8c7 11 8 17 5 26-4 13-20 34-33 45-6 4-9 6-18 7-11 2-22 2-33 1zm-509-16c-3-2-26-7-33-7l-8-2-4-2c-4 0-37-29-37-32l-2-4-2-3-4-7c-1-3-4-7-4-10l-3-6c-2-2-1-28 1-40 5-21 6-25 9-29l3-6a127 127 0 0144-35l4-2c6-4 28-6 44-5 29 3 58 21 70 43a154 154 0 0116 78c-1 12-1 12-7 20l-7 10c0 6-26 31-32 31l-9 3c-9 5-33 8-39 5zm619-94a221 221 0 01-32-10l-9-4-4-3c-4-2-11-8-11-10l-2-3c-1-1-3-3-3-5l-3-5-4-10-4-11a111 111 0 017-48c2-10 9-22 16-30 7-7 18-14 22-14l3-2c3-3 40-8 49-6l14 3c5 1 10 3 14 6l11 7 7 7c0 2 3 6 6 9l6 7 3 6c2 3 4 7 5 14l3 17c2 6 2 9 0 23l-4 20c-3 5-17 19-24 23l-11 8c-2 3-5 5-6 5l-6 3c-4 3-7 3-21 4l-22-1zm-1021-42l-24-8c-6-1-12-6-12-10l-4-4c-5-2-10-10-15-24a180 180 0 01-7-32c-1-8 0-31 4-44l3-13c0-3 2-5 5-8a482 482 0 0038-31l5-3c6-5 52-9 57-4l7 3 9 4 6 3c2 0 10 8 14 15l8 12 6 7 2 4c2 1 4 4 4 7l4 6 2 6 3 14c3 9 3 10 1 17l-1 9a71 71 0 01-8 27c-1 5-4 9-6 9l-11 9c-10 10-24 19-34 23l-9 4c-2 2-7 2-24 3l-23-1zm272-116c-16-2-32-8-44-17a65 65 0 01-22-26c-3-3-13-28-15-35v-18c2-12 4-16 9-17 2 0 3-2 5-7 5-14 15-30 22-38l9-8c1 0 6-1 10-4 15-7 20-8 36-8 24 0 37 4 52 16l12 9c4 2 15 13 15 16l3 10c8 19 12 40 10 55-3 28-3 28-14 43-6 8-19 19-21 19l-10 4c-12 7-29 8-57 6zm487-47l-5-1-13-2a3618 3618 0 00-40-11c-14-7-34-21-41-31a152 152 0 01-22-32c-3-4-7-17-8-24l-5-25c-2-1-2-50 0-50l3-10 2-11 3-5 5-11 4-7c0-2 30-30 43-39 9-6 16-9 22-11l10-4a167 167 0 0152-5c12 1 27 5 34 8l13 5c12 4 27 14 43 28l5 5 22-23 10-1 22-1c13-1 24 1 37 7l10 4 10 7 10 7c2 0 15 14 19 22a3711 3711 0 0010 20l2 7h9l22 3c13 2 16 3 25 9 6 3 15 10 21 15 8 8 10 12 15 22 11 21 13 42 7 65-5 19-7 24-18 35-7 7-13 11-19 14l-12 5-11 3c-8 2-14 3-30 2-27-1-35-4-54-20-12-10-12-11-17-27l-5-14c0-1-5-2-26-1l-26 1-3-4c-2-3-5-4-5-1l-8 12-8 11c0 3-27 29-35 34l-9 5-7 4-12 3-18 3c-6 2-12 2-14 2l-5 2c-2 3-13 3-14 1zm-1330-74a96 96 0 01-31-13c-3 0-14-9-22-18a82 82 0 01-22-45l-4-18c-2-8-1-19 2-27l3-10 3-4 2-4c0-3 9-16 11-17l11-8 15-11a535 535 0 0034-13c3-3 11-3 14 0l10 4c9 2 14 5 30 15 9 5 13 9 21 20l12 14 4 15c4 10 4 15 4 25 0 15-2 33-4 37l-4 9c-3 9-11 19-20 26-22 16-21 16-46 22-5 2-16 2-23 1zm122-217c-9-4-28-21-37-35l-13-22-7-14v-21c0-18 1-21 3-23l3-7c1-8 6-14 16-24 8-8 17-14 21-14l5-2a130 130 0 0150-5c10 0 11 1 14 4l8 6c10 5 21 15 26 22 8 12 11 19 15 35 6 27 4 45-7 61l-3 6c0 3-15 17-25 24l-9 6c-6 4-51 6-60 3zm-226-48l-15-2c-19-3-37-8-43-12-7-5-21-20-25-28a93 93 0 01-4-74l4-12c4-17 13-27 34-39a111 111 0 0170-10c11 3 22 11 31 19 7 7 15 19 17 26l4 10c4 10 7 29 6 41a107 107 0 01-13 44c-4 7-17 22-26 28a49 49 0 01-40 9zm2931-13c-6-1-15-3-18-5l-9-3-4-1a387 387 0 01-30-16c-4-2-18-16-23-24l-8-8c-3-1-4-3-4-4 0-2-2-5-5-7-5-4-11-16-11-20l-2-5-2-6-2-8c-4-9-6-49-4-67 1-10 3-16 4-17l2-6 1-5 5-8c1-4 5-10 8-14l6-7c0-2 18-20 30-29 7-6 14-10 18-11l10-5c3-3 12-6 24-8a209 209 0 01104 17l6 3 6 4 3 3a315 315 0 0141 41 88 88 0 0114 23l4 14 4 12c2 4 3 19 3 38 0 18-3 34-8 42l-16 24c-3 3-5 8-6 10 0 3-4 8-6 8l-14 12-14 12-7 3c-11 7-27 13-39 15l-17 4c-5 2-29 2-44-1zm-647-88l-24-12c-9-7-32-30-32-32l-3-10c-2-4-4-12-5-21-2-13-1-15 1-30l4-19 7-15c5-9 8-14 12-17l7-5 11-5c13-6 41-12 53-11a97 97 0 0136 10c5 2 13 8 23 17 4 4 6 6 7 12l4 9 3 7 4 13c2 6 2 10 2 26l-2 24-12 28c-3 7-12 16-15 16l-3 1-6 3-9 4a156 156 0 01-63 7zm-1408-29l-7-4-6-2c-2 0-19-13-28-22-10-10-17-23-20-36-3-9-3-36 0-44 5-16 11-30 18-37a76 76 0 0129-20l7-4 5-2c3-2 21-7 26-7 7 0 23 5 32 9 8 3 25 16 34 26 7 7 9 11 14 29 2 12 3 16 2 28-1 14-3 22-5 26-2 1-2 3-2 4l-4 7c-3 3-4 6-4 7s-24 24-31 28l-11 5-10 3c-12 6-31 8-39 6zm1132-2l-15-6-9-4c-2 0-2 0-21-18a135 135 0 01-23-26l-1-3-2-4c-2-2-6-14-8-25l-4-11c-2-2-2-4-2-9l2-22c0-11 1-18 2-21l2-8 1-5 4-8c2-5 5-10 10-15l7-9c0-4 29-30 33-30l4-1c4-2 35-9 46-10h24l4 2c7 0 31 7 40 12 11 6 30 21 35 28l9 15c17 33 21 49 16 70l-3 20c-2 13-6 30-9 31l-2 3-4 7-4 7c0 2-12 13-17 15l-15 10c-18 12-32 16-68 17-18 1-24 0-32-2zM822 2173a2858 2858 0 00-39-8l-6-2-6-4c-14-4-53-46-57-61a254 254 0 01-7-106l1-3 1-3 8-23c4-9 14-22 21-27l17-13c16-12 25-18 32-20 10-2 53-1 69 2 18 2 22 3 25 6l5 2 9 4 12 6c4 1 9 5 16 12 5 6 10 10 11 10 2 0 13 12 13 13 0 2 6 12 8 13l1 4c0 2 1 2 2 3v1c-2 0-3 5-1 5l2 2 3 12 5 22c1 11 1 13-4 35a300 300 0 00-6 32l-1 2-9 18a176 176 0 01-72 59l-10 4c-9 4-26 5-43 3zm1237-12c-14-1-30-5-33-8l-4-1c-3 0-17-14-25-26l-11-13c-6-3-9-16-10-41 0-21 0-23 2-28 2-2 3-7 4-10l2-5 4-7c6-10 15-18 41-31l12-5 6-3c2-2 7-3 13-4 12-2 26 0 37 5l12 5c5 1 21 16 29 27 2 4 5 7 6 7 3 0 7 4 7 7l1 2v1c-2 2-3 17 0 17 2 1 2 50 0 50l-3 8c-2 13-11 26-24 38l-11 11-12 3c-14 2-25 3-43 1zm-713-17c-17-2-33-9-51-22a72 72 0 01-30-47l-3-9c-2-4 2-32 6-37l1-6c0-3 3-7 8-12l8-11c1-4 16-18 24-25l9-6 12-1 29-1c16 0 17 1 26 5l15 6 8 5a114 114 0 0125 30c8 12 10 19 8 43l-2 20 2 7c1 5 1 7-1 12-4 11-10 18-32 35l-8 5-3 2c-2 3-7 4-20 6-12 2-16 2-31 1zm215-52l-17-4c-12-2-15-4-21-8l-12-10c-5-3-12-11-16-20-3-7-5-29-5-62v-26l6-5c6-8 14-18 14-20 1-2 6-8 8-8l7-4 7-4 3-1 11-4c10-3 12-3 32-2 22 1 33 3 42 8 9 4 36 30 36 34l4 9c5 11 10 26 10 36 0 13-3 30-6 33l-3 4c-8 13-15 21-27 30l-11 8-12 5-12 6-8 3c-5 3-8 3-16 3l-14-1zm2129-7l-8-4-9-5c-4-2-8-5-10-8l-5-4c-2 0-9-9-12-14-4-7-1-38 4-52l2-5-7-5c-10-6-31-28-34-35-7-13-8-21-8-39a115 115 0 0111-55c4-7 33-35 38-37l11-6c11-7 24-10 43-10 11 1 30 4 33 7l6 2c10 2 19 8 26 17 17 21 21 29 28 53 6 18 6 28 2 39l-1 8v6c0 4-1 6-4 9-2 1-6 7-8 11l-11 13c-4 3-6 7-6 9l-3 5c-3 2-3 2 0 5 5 8 8 23 9 42 0 17-1 18-4 27-4 9-11 17-15 17l-3 1c-1 2-16 5-26 6l-14 3c-8 3-17 2-25-1zm-213-1a107 107 0 01-24-7l-12-5-12-7c-3-1-14-17-14-19l-3-6c-4-4-6-11-9-31l-2-24c1-15 1-17 5-22l3-8c0-6 17-24 28-32l8-6c2-2 5-4 9-4l10-4c4-2 9-3 18-3 11-1 14-1 28 4a10924 10924 0 0025 9l8 4 13 7c8 4 11 8 14 18l3 9c1 1 3 5 4 11 5 15 3 58-2 63l-2 3-4 9-7 13c-2 4-18 16-28 22-3 1-8 4-11 4l-11 3c-6 2-19 2-35-1zm497-62a146 146 0 01-30-8 74 74 0 01-13-6c-3-1-6-5-17-19l-4-11-4-10c-6-13-7-17-7-21 0-2-1-5-3-6-3-3-3-4-2-14s7-32 10-36l4-10c1-5 3-9 7-13l8-10c1-2 7-5 12-8l12-7 6-2 6-2c2-2 17-5 29-5 23-2 27-1 41 4 14 4 20 8 38 24 13 12 18 17 19 23 0 3 2 6 3 8 3 5 4 23 2 32-3 12-12 39-16 44l-12 17-5 9c-2 6-5 9-9 9l-9 4-10 5-14 6a197 197 0 01-42 3zm-2197-114c-18-1-24-3-40-13l-10-6c-2 0-9-8-15-16-6-10-9-16-11-27l-3-10c-2-2-2-7-2-17 0-13 0-16 2-19s4-7 4-10c0-4 2-8 4-10l3-6c0-3 4-7 7-7l1-2c0-2 24-24 30-28 5-4 13-6 28-10 24-5 25-5 37-1 15 4 17 5 29 13 17 10 30 26 36 41l4 8c2 3 5 20 6 30 0 10-1 16-5 21-2 1-4 6-5 9-1 8-6 16-15 28-12 16-13 17-17 19l-6 4-3 1-6 2c-9 7-19 8-53 6zm460-13l-15-6-8-5-12-11c-8-8-10-11-11-17l-2-11-1-4c-4-3 0-30 6-40l2-7c0-4 17-18 27-22 9-4 24-9 31-10 6-1 34 6 40 11l7 5c5 3 7 5 7 9l7 10c4 5 5 6 5 13l2 8c2 1 2 27 1 28-1 0-3 4-4 10-5 14-7 17-21 28l-12 10-21 1h-28zm-698-24a118 118 0 01-52-40c-6-8-8-12-10-28-2-13-3-17-1-32 1-15 2-18 5-25 4-9 24-30 35-37l5-6-7-14c-5-12-5-13-6-30v-22l3-12c1-7 2-9 10-18 10-11 26-24 32-27 12-7 35-12 50-11h10l1-21c0-18 1-24 4-33 3-11 4-13 16-30l7-12 9-10 18-16c9-9 16-12 29-16 15-5 48-12 51-12l17 2c29 3 42 7 64 22l12 6c3 0 7 4 7 7 0 2 2 5 5 8l19 26 6 20a223 223 0 016 96c-6 13-9 19-14 26-6 9-38 41-45 45a587 587 0 00-17 7c-2 0-13 3-21 7a177 177 0 01-62 1l-5-2-6-2c-5 0-15-3-27-9-12-5-12-5-13 1l-4 10-2 7a75 75 0 01-26 29l-11 7c-1 0 3 6 8 11 3 4 10 27 12 40 1 11 1 13-1 22l-4 13-4 10-2 6-4 6c-7 10-19 20-29 23-37 12-52 13-68 7zm524-1c-12-2-30-7-32-10l-3-1c-6 0-26-23-32-36-6-15-7-29-3-55 3-19 7-28 17-39 8-8 18-14 36-20 13-5 43-3 50 4l6 3a165 165 0 0123 13 140 140 0 0126 29c2 2 3 3 3 12l2 15c1 5 1 7-2 24 0 6-2 11-2 11l-1 2-5 8-5 8c0 1-4 7-10 12a64 64 0 01-37 20c-13 2-15 2-31 0zm-1475-12l-9-3c-15-3-18-5-29-16-14-12-28-30-30-35l-4-11c-4-7-4-9-4-21l1-22c1-9 0-8 21-31 11-14 22-23 33-28 10-5 12-6 22-6 17-1 18-1 21 1 1 2 6 4 9 5 4 1 8 2 10 4l5 2c3 0 26 23 31 31s10 21 12 38c2 13 2 17-1 29l-3 16c-2 10-10 25-17 32-11 11-13 12-20 14-11 2-41 3-48 1zm2113-1c-6 0-13-3-24-8l-17-8c-3 0-21-20-28-29-6-10-6-10-7-24l-2-28v-15h-11c-10 0-18-1-36-6-21-7-32-12-37-20a303 303 0 00-18-25l-3-7-5-12c-2-5-2-9-2-26a109 109 0 017-46l3-8c0-5 27-34 34-37l6-3 17-7 3-1c2-2 30-8 44-10 14-1 23 0 35 6 17 8 42 29 49 40 8 13 16 56 14 77v9h5c8 0 24 5 30 9 17 12 33 29 39 44 6 13 11 36 11 46 0 14-1 29-3 32-2 2-2 4-2 5l-2 4-2 4c0 3-23 28-28 31l-10 7c-7 5-19 8-37 7l-23-1zm-1870-97c-12-2-22-7-36-16a78 78 0 01-35-41c-9-22-13-40-13-58 0-6-1-10-2-10l-1 1c0 2-14 17-26 27a70 70 0 01-56 21c-16 0-32-3-39-7l-7-2c-2 0-5-1-6-3-4-5-11-9-15-9-3 0-7-4-7-7l-8-10c-7-8-13-18-17-31-7-27-8-40-1-55 10-24 20-39 36-56 11-10 13-12 28-17 9-3 12-3 32-3 18 0 23 0 30 3l13 4c4 1 10 4 16 10l13 8 7 8 10 12c5 6 9 18 12 37 1 14 3 15 7 9 3-6 20-23 23-23l12-6 7-4 9-4c3-2 10-4 16-5 10-2 12-3 19-1l16 1c8 0 28 5 31 7l18 5 2-2c5-17 28-36 45-39 15-3 25-3 32-1 27 6 41 19 50 45 11 34 9 44-9 60l-11 9-9 5c-5 4-9 5-15 6l-11 2-10 2c-6 0-7 0-6 2l2 16c1 16-2 27-12 48l-6 15-15 17c-10 10-14 13-22 17-21 11-37 14-63 15-13 0-20 0-28-2zm-468-31l-7-1a165 165 0 01-39-12c-8-2-47-38-51-47-3-6-7-21-9-36l-4-16c-3-17-4-23-3-34 0-16 6-38 11-45a193 193 0 0170-70l5-3 5-2c8-6 44-10 58-6 9 2 30 7 33 9 2 1 3 0 3-6 0-9 6-36 11-46l7-12 8-10c3-5 20-20 22-20l6-2 5-2-12-11a72 72 0 01-24-42l-3-7v-39l3-7 7-13 7-10c4-4 20-17 30-22 18-10 47-10 67-1 16 7 40 30 44 41l3 7c2 1 7 24 7 32 0 5-1 12-3 17a249 249 0 00-4 16l-8 14c0 3-4 8-6 8-1 0-6 4-11 10-8 7-11 10-14 10-8 0-8 1-2 7 3 2 9 8 12 13l10 11 3 4 3 10c5 15 6 26 4 36a114 114 0 01-18 45c-5 9-17 19-31 26-16 8-21 9-42 9l-17-1 4 10c13 34 13 35 13 49 0 20-4 48-8 56l-5 13c-4 9-7 12-16 22a301 301 0 01-47 39l-18 7c-14 3-56 5-59 2zm1036-6c-9-8-17-18-20-25-5-9-9-26-9-37-1-10 2-30 5-31l1-3c0-4 20-24 26-26l8-4c9-7 38-6 55 2 8 5 22 17 26 24 6 10 8 18 7 38-1 21-1 24-5 32-3 7-14 20-16 20l-3 2a106 106 0 01-51 14h-17zm808-19l-14-5c-8-3-10-4-11-7l-5-7-7-14-5-12c-2-3-2-6-2-16l1-14 2-9c5-19 5-20 11-26 12-12 25-21 36-23 10-2 39 1 43 4l5 3c8 2 34 31 36 40 1 8-1 29-4 39-1 5-4 10-6 12l-3 5-3 4-5 7c-1 3-3 6-5 6l-7 5c-7 7-13 9-32 10-16 1-19 0-25-2zm706-40l-12-3c-2-2-19-10-24-11l-7-4-5-2-5-3-14-10-10-9-5-7c-8-9-17-33-22-56-6-31-7-39-5-53a113 113 0 015-25 193 193 0 0121-40l6-8c0-4 29-24 44-31l12-6c4-3 16-5 46-9 21-3 21-3 36 2a6236 6236 0 0028 8 149 149 0 0145 29c7 6 20 21 20 23l4 10c5 10 10 23 12 33a206 206 0 010 80l-3 7-3 5a70 70 0 00-16 21l-2 6c0 2-20 20-24 21l-6 4c-3 4-18 13-20 13l-4 3-5 3-6 2-8 3-15 2c-14 3-46 3-58 2zm-1859-203c-8-3-25-16-25-19 0-2-1-4-4-7-10-10-15-36-12-62 2-13 4-18 9-20l15-11c3-2 7-5 10-5l13-4c6-2 10-3 20-2l14 2 11 5c5 2 10 6 13 9l5 5 3-4 3-4c0-2 10-12 12-12l11-5c8-5 11-6 22-7 12-2 14-1 22 1 17 5 23 9 32 19l8 10 2 1c4 0 8 4 7 10v11c2 26 0 38-5 43l-4 6-8 10a76 76 0 01-61 23c-17-1-27-4-31-8s-5-4-7-2c-10 8-14 11-19 13l-9 4c-2 2-6 2-22 3-15 0-19 0-25-3zm36-137c-17-12-37-35-39-46-3-9 0-27 5-34l4-8c1-3 5-9 9-13 10-11 30-21 45-24 9-1 10-1 7-2-4-2-21-18-33-32-7-9-10-13-13-22-10-32-9-54 3-74l5-7 15-20 17-9c20-10 41-12 69-7 12 1 29 10 44 22 9 7 15 18 20 34 4 13 4 16 4 32 0 17-1 23-3 25l-4 10c-3 10-6 16-8 17l-1 3c0 3-14 17-20 19l-6 3-5 1c-10 6-20 9-48 12l-8 1c4 1 17 14 24 24 12 18 14 30 10 50-4 17-21 37-37 45-9 4-10 5-29 5l-19 1zm789 1c-38-14-44-20-48-44l-5-14c-2-5-2-8-2-16 1-9 1-10 7-17 7-7 18-17 21-17l3-2 17-8 6-2 9-3c7-2 8-2 19 0 13 2 18 5 24 10l7 6c2 1 4 2 4 4l3 4 3 6c1 4 3 3 4-1 1-5 33-36 37-36l3-2c1 0 4-2 9-2s8-3 9-3c3-3 13-3 21-1 7 2 9 4 24 20 10 9 18 19 19 21 2 6 1 28-2 41-7 25-11 30-32 39-16 6-27 9-38 7-16-1-21-4-40-23l-11-11-5 10a86 86 0 01-35 37c-2 3-19 1-31-3zm-194-8c-17-8-42-29-45-36-2-6-2-52 0-59 2-4 15-17 20-18l10-5c8-4 8-4 26-3 28 0 38 3 50 16 7 7 10 14 13 27 3 9 3 10-1 30-2 13-4 16-17 29-10 10-17 15-21 16l-8 4c-6 5-15 5-27-1zm1014-5l-5-1-9-3c-8-2-10-2-24-9l-9-3c-2 0-17-15-17-16l-4-7c-3-2-4-5-4-6l-4-9c-3-3-4-7-4-8l-3-5-3-6-3-10c-2-6-2-10-3-26 0-17 1-19 3-25l3-8 1-3c2 0 10-12 10-13l5-8 6-8c0-2 15-17 23-23 11-7 14-9 29-12 10-3 16-4 33-4 20 0 21 0 28 4a118 118 0 0126 16l15 13c10 11 14 16 18 26a110 110 0 019 21c2 3 5 21 5 36 0 16-2 23-8 36l-4 9c-2 4-22 25-26 27l-8 4a225 225 0 01-41 19c-6 2-30 4-35 2zm-1160-1l-18-5c-9-3-11-5-15-10l-5-7-2-4c-3-3-4-8-5-36l-1-18 5-8 6-10 15-20c6-7 13-9 32-8 11 0 14 1 16 3l9 5c11 6 21 13 25 19l8 11c4 5 6 11 8 23 0 7 0 10-4 22-6 18-14 28-28 38l-7 5-16 1-23-1zm2372-3l-28-2-22-12c-6-5-16-15-16-18l-2-3-3-4c0-1-2-4-5-6l-8-13c-4-8-4-10-4-25 0-10-1-17-2-18-2-1-1-11 1-15 2-2 4-7 4-11 3-12 5-16 17-29 11-13 13-14 26-18 5-1 11-3 13-5l10-3 11-3h13c11 1 35 6 38 8 11 4 11 4 34 27 5 4 10 10 11 14l7 9 4 9 5 15c2 5 4 13 4 21 1 17-1 25-10 37a171 171 0 01-33 34l-6 3-6 2-10 3-8 3-7 1-28-1zm-1615-28c-9-3-17-10-27-19a53 53 0 01-15-27c-5-16 0-46 9-60 4-5 9-8 26-13 23-8 37-10 46-8a246 246 0 0141 34l4 13c2 7 1 9-1 22-3 10-5 15-9 21-7 11-23 28-31 33s-8 5-23 5l-20-1zm-2038-62c-18-4-28-10-44-25a59 59 0 01-16-20l-6-12-2-18c-1-20 4-39 17-62 9-16 17-24 27-28l7-3c10-8 50-9 66-1a247 247 0 0135 26c8 5 12 15 19 42l2 19c0 12-1 18-4 30l-4 16-15 15c-16 15-21 18-31 18l-12 2c-7 2-32 2-39 1zm1225-29l-8-2c-6 0-19-3-25-6-10-4-30-27-42-47-4-8-4-9-4-24 0-16 2-29 7-44 5-12 9-18 22-31 11-10 19-15 36-22 7-3 31-5 41-4 12 2 26 6 34 10 7 3 19 15 26 25a799 799 0 009 18l4 20 4 14-3 15c-3 16-8 27-14 34l-5 8c-1 4-17 19-19 19l-5 4-6 4-10 4c-6 3-10 4-16 4s-9 1-10 2c-3 3-12 2-16-1zm2198 0l-8-3-8-4-5-2-4-2-8-4-11-6-6-4c-7-3-13-8-15-11l-5-5c-3-3-21-24-26-32-5-7-8-15-9-25l-3-20c-1-7-3-21-3-32 0-19 0-20 4-31l7-16 3-5 3-6 4-6 5-9 5-9c0-2 4-6 6-6 1 0 4-2 6-5 6-6 18-14 21-14l3-2 8-4c4-1 8-3 9-5l4-2 6-2 12-4 12-5c4-2 24-5 39-6 13-1 24 1 35 6l8 3 7 3 7 3 14 7c11 5 15 8 28 20 14 14 19 21 21 32a380 380 0 0013 50l1 12c2 8-1 46-4 57-1 5-4 12-6 14l-4 9-4 9-3 5-21 17c-10 7-20 16-20 18 0 3-5 6-8 6-2 0-5 2-8 5s-9 6-14 8c-8 4-9 4-45 4l-43-1zm-3111-14c-9-3-14-7-29-22-21-19-27-36-25-69 2-23 7-32 30-54 14-14 20-18 35-21 6-1 11-1 21 1 19 3 29 7 41 18a114 114 0 0132 55c3 11 3 29 1 38l-9 17-7 12c0 2-11 13-12 13l-9 5c-14 9-19 11-41 11-18 0-21-1-28-4zm1673-28c-9-1-12-2-20-6-11-6-12-7-19-18-3-6-4-9-5-17 0-6-1-10-2-11v-13l3-15 5-17 3-4c0-2 11-15 15-19 4-3 7-3 21-5a101 101 0 0127 1c3 0 5-1 6-4 2-2 3-5 3-7l8-11 10-12 7-7 9-7 11-6 14-5a125 125 0 01112 36c10 17 12 25 11 45 0 19-1 23-11 44-10 20-40 42-65 49a96 96 0 01-40-1 601 601 0 00-31-12l-6-3-5 6-23 17-23 3-15-1zm1834-60c-2-2-13-4-19-5l-6-3-4-2c-1 0-5-2-8-6l-7-6-12-11-4-5-4-6-2-7a7081 7081 0 00-6-28c-2-7 6-38 11-49 7-13 21-27 32-33 16-10 67-15 75-9l14 8c9 4 13 7 18 13 10 12 11 14 17 34 4 16 5 21 5 31 0 14-4 28-10 38-7 10-35 38-42 41-8 4-43 8-48 5zm-2704-92l-7-3c-9-3-12-4-22-13-7-7-10-11-15-19l-6-17c-2-5-2-21 1-25l2-11c3-19 17-41 29-44a110 110 0 0172 10c1 0 5 3 8 7 6 7 9 16 16 43 4 11 4 13 2 22-2 13-4 16-17 31-16 16-21 18-48 20l-15-1zm612-67a470 470 0 01-39-20l-4-4c-3 0-6-5-6-8l-2-12c-2-7-2-10-1-25 1-10 2-19 4-22a85 85 0 0140-39c5-3 7-4 18-4 13-1 25 1 35 6 9 5 28 24 34 34 5 8 6 10 6 21 2 19-3 37-12 47-5 5-17 15-19 15l-4 3-5 4-6 3c-4 2-33 3-39 1zm1014-108l-10-1c-7 0-12-4-25-15l-7-5-9 5c-14 6-37 11-60 11-40 0-49-4-77-29a109 109 0 01-34-57c-3-12-2-55 1-66l3-10 2-6c1-5 7-14 18-26l7-8-5-4-12-13-11-15c-3-4-5-7-6-13a131 131 0 0110-74c0-2 11-15 19-24 16-15 30-20 56-22a90 90 0 0139 6l13 6 4 2 7 4c7 4 20 17 25 25l6 10c5 7 8 22 9 36a93 93 0 01-10 49c0 2 13 7 16 7 2 0 21 23 27 33 3 6 4 5 8-2a100 100 0 0137-34c10-6 45-11 51-6l8 2 7 2 3 1 7 3 7 3c2 0 17 16 20 22 4 6 9 24 12 37 8 37 0 61-28 86-8 8-17 12-31 14l-10 2-3 1c-2 0-3 2-4 6l-4 9-4 8c-2 9-12 24-16 24l-15 8c-11 7-14 8-26 9l-15-1zm-1097-20c-16-4-29-8-32-12-5-5-10-19-12-34-1-12-1-15 1-26l5-15 3-9c1-5 3-8 9-14l12-11c7-4 23-10 28-10l6-1c2-4 23 0 28 5l6 2c4 1 20 17 20 20l3 5c4 5 10 22 9 31l-2 15-3 12c0 2-1 3-2 3l-3 5c-7 15-18 26-30 31-6 3-10 3-23 4l-23-1zm171-5a195 195 0 01-41-20l-10-9c-8-8-10-11-13-19-5-13-8-23-8-32s2-28 4-36c3-10 10-25 16-31l5-8c0-1 2-3 5-4l7-7 5-4c2 0 21-9 27-14 7-5 6-5 30-3 19 1 24 2 29 7l5 4a94 94 0 0125 25c4 4 12 18 16 29 5 14 7 41 3 45l-7 21c-1 6-2 8-11 20a82 82 0 01-87 36zm-981-114l-5-2-16-7c-18-9-30-21-38-37l-7-15c-5-9-6-30-2-54 2-12 9-29 18-39 9-11 24-24 32-26l12-3 24-2a130 130 0 0149 9c6 3 21 16 21 19l5 7c9 10 14 25 16 45 1 11-2 34-8 53-5 15-17 27-40 42-14 9-22 12-42 12-11 0-17-1-19-2zm340-2l-38-19c-9-5-19-16-25-26l-7-14-6-15-3-15c-2-9-1-39 2-51l10-30 4-11c0-4 28-30 36-34l13-7c9-6 24-10 41-12h18l14 2 24 8 18 8c7 2 11 4 11 7l7 8c12 12 21 28 30 55 5 15 5 24 2 44l-4 22-6 18-4 10-9 12a1745 1745 0 00-22 24 183 183 0 00-37 12l-3 1c-4 3-57 6-66 3zm622-108l-22-7a183 183 0 01-36-35l-5-10-2-5a112 112 0 012-62l5-9c4-9 26-32 35-38 7-4 33-13 43-14a112 112 0 0150 9c8 2 24 17 24 21l2 5 4 6 5 14a10317 10317 0 0112 29 97 97 0 01-9 39c-5 14-9 22-14 27l-10 9-10 9-7 4-5 2-7 2c-7 4-37 6-55 4zM955 524c-15-2-21-4-34-11-7-5-13-9-19-17-30-33-35-43-35-63a149 149 0 0127-86l9-8 8-5 3-2-3 1c-24 6-32 7-38 4l-13-7c-9-5-20-15-20-18 0-2-6-10-7-9l1 4 5 14 3 10c2 2 3 9 6 24a402 402 0 005 31c0 10 0 13-4 29a194 194 0 01-16 39c0 3-9 15-17 23-11 12-19 17-55 35-16 8-66 6-88-3l-23-11c-12-6-16-9-24-16l-10-13-5-7-3-4-7-10c-4-5-9-11-10-15-5-14-6-55-2-86 2-9 3-15 6-20l7-14c3-5 8-12 22-25a108 108 0 0145-31l5-3 9-3 13-6 9-4c6-3 17-4 29-3 18 1 35 7 56 20l12 7c3 2 13 12 19 21l5 6 1-15c-1-12 0-16 2-24 6-17 7-20 24-35 18-18 19-19 42-19 15 0 15 0 25 6 8 3 13 7 19 13 7 9 17 26 17 31l1 2c1 0 2 6 2 17 0 10-1 17-2 17l-2 6c0 5-3 8-9 17l-9 11 6-1c10-4 17-5 28-3a162 162 0 0155 17l17 13c20 20 27 37 27 71-1 24-2 36-4 39l-2 8c0 6-3 12-6 12-1 0-4 2-6 6-11 15-32 33-44 39a119 119 0 01-53 4zm2052-73c-7-2-20-10-26-16a59 59 0 01-14-26c-2-3-4-12-4-19 0-9 3-27 8-36 7-16 23-29 40-33 18-4 32-5 40-4 13 3 16 5 23 14a1452 1452 0 0017 25c3 3 6 10 8 22 2 9 2 11 0 20-3 14-14 30-26 39-5 4-9 7-11 7l-3 1c-4 4-42 8-52 6zm-1904-36l-6-3c-2 0-12-9-20-16-6-5-6-7-7-11 0-3-1-11-4-18-4-14-5-27-2-38 1-5 7-14 13-22 2-2 3-5 3-7l4-8c4-4 6-4 10-4l8 1c1 2 3 1 6 0 7-4 25-5 36-4 12 2 26 7 34 13 6 5 7 6 8 12l3 15 3 22c1 20-2 29-17 46-5 7-8 9-20 15s-15 7-26 8c-17 2-20 2-26-1zm374-33a92 92 0 01-48-24l-5-5c-6-4-23-23-29-33l-8-17c-4-11-4-13-4-32 1-23 3-53 5-64 1-7 4-14 9-23l2-5c6-17 10-24 20-35 11-11 20-18 28-21l6-4 12-4 18-6c19-8 20-8 35-8 14 0 16 0 25 4l16 5c16 4 21 6 30 13 8 7 44 45 44 47 0 3 6 15 7 15l1 3 6 17 5 16c2 10 2 13 1 19-3 15-2 17 2 12s24-21 30-25c10-5 28-9 38-8 9 1 38 11 47 16 8 4 16 13 17 18l4 10c2 3 4 10 5 16 2 12 1 46-1 53s-21 28-31 34c-7 5-15 8-25 11-2 0-6 1-8 3-5 2-6 2-25-1-31-5-29-4-37-12-4-3-11-12-15-19-5-8-10-14-11-14l-3-9c-1-6-3-9-4-9l-1 1-5 7-5 6c0 2-14 19-16 19s-17 12-20 16c-6 6-12 8-34 12l-8 3a263 263 0 01-71 3zm669-40c-20-10-35-22-35-26 0-2-2-4-11-15-6-8-9-21-8-42 1-13 1-19 4-24l3-10 4-10 8-14c4-10 10-15 23-19l14-5a118 118 0 0175 6l6 4c19 11 28 24 35 45s7 27 0 50l-5 12-2 6c0 5-16 27-23 31-7 5-13 7-20 9l-12 4-27 1c-22 0-23 0-29-3zm-1098-78l-11-5a218 218 0 01-43-40l-5-13-1-5-2-6c-2-3-2-9-2-21 0-16 0-19 3-29l6-13 1-4 4-7 7-9c4-9 11-14 22-18 5-1 14-4 19-7 20-9 35-10 51-6l10 4 3 2a89 89 0 0135 31c12 17 16 32 16 53a90 90 0 01-11 48c0 2-12 21-17 25l-4 5-1 2-6 3c-10 7-23 10-49 10h-25zm875-29c-13-2-35-19-44-34l-6-11c-9-14-9-16-9-34 1-30 3-36 16-50 14-16 34-29 49-32 8-2 10-2 24 0s18 3 32 10c16 7 29 22 38 42 5 12 5 12 5 26 0 16-1 20-7 35-7 16-8 19-16 27l-10 12-4 3-4 1c-3 4-12 5-34 5h-30zM806 166l-7-3-11-6a78 78 0 01-35-31l-3-6c-6-7-8-16-8-39l1-25 3-5 3-6 4-7 3-5 2-3 10-12c6-6 10-12 10-13 0-5 3-5 48-5h44l10 8c10 9 21 23 25 32l13 41c1 8 0 20-2 24l-5 12c-3 10-4 12-11 19-7 6-28 23-30 23l-8 3c-12 6-44 8-56 4zm949-10l-9-3-10-2-7-3-5-3-3-2-7-5c-9-6-20-18-23-24l-4-9c-5-13-6-17-6-37 0-30 4-43 15-59l4-6 1-3h142l3 4c5 7 10 20 13 30 2 8 2 11 1 24-2 24-4 31-10 43a87 87 0 01-40 42l-20 11c-6 3-28 4-35 2zm201-124c-9-1-18-6-25-14-6-7-12-17-11-18h57l57 1-12 11-17 15c-11 5-32 8-49 5z" fill="#fe0000"/></g><g fill="#fff"><circle cx="3993.7" cy="270.4" r="12.6"/><circle cx="2840.9" cy="128.4" r="12.6"/><circle cx="3384.4" cy="1302.2" r="11.3"/><circle cx="2143.7" cy="1302.2" r="12.6"/><circle cx="1183.1" cy="1782.5" r="15.1"/><circle cx="75.7" cy="1360" r="12.6"/><circle cx="3246.6" cy="1889.2" r="12.6"/><circle cx="4042.6" cy="2636.4" r="12.6"/><circle cx="4345" cy="679.6" r="15.2"/><circle cx="3037.6" cy="2792" r="12.6"/><circle cx="1827.9" cy="2511.8" r="12.6"/><circle cx="307" cy="2471.8" r="20.3"/><path d="M4362 66a120 120 0 01-120 120 120 120 0 01120 119 120 120 0 01119-119 120 120 0 01-120-120zM3282 2067a120 120 0 01-120 119 120 120 0 01120 120 120 120 0 01119-120 120 120 0 01-119-119zM893 2924a87 87 0 01-87 87 87 87 0 0187 87 87 87 0 0187-87 87 87 0 01-87-87zM2369 381a78 78 0 01-78 79 78 78 0 0178 78 78 78 0 0178-78 78 78 0 01-78-79z"/></g></svg>