<svg width="1920" height="1440" viewBox="0 0 508 381" xmlns="http://www.w3.org/2000/svg"><g stroke-width=".3"><path d="M0 191V0h105l2 1 4 1h2v5l1 1-1 2-1 3v4l5 3 2-1 3-1v-1l1-3 1-2h2v-1l2-1 2-2 1 2 2 2-1 5h1l1 2 2 1 1 1v5l3 2c2 1 4 0 6-1l2-4-1-5-4-2h-1l1-3-1-2 1-1 1-2V7l1-6V0h31l-1 1-2 3-1 2-1 7c0 4 0 5 3 8s5 4 9 4l7-1 5-4v-1l2-3v-4c1-3 1-3-1-7l-2-3-2-2h30v1l1 3 1 2h-1l-4 4v6l1 4 2 1 1 2h4c4 0 5 0 6-2l3-3v-3-4-1l-1-1V7l2-2 1-2h2c2 0 3 0 5-2l1-1h262v77a5333 5333 0 01-2 76 32 32 0 00-5-2h-1l-1-1h-2l-2-1a1679 1679 0 01-31-14 164 164 0 01-18-12l1-1 2-2 1-4v-4l2-1h2l3-3a13 13 0 001-7l2-1c2 0 3-1 5-3 2-3 2-5 1-8v-1l-3-4h-6l-4 3-2 3-1 2h-7l-1 1-3 2-1 2-2 3v3l1 1v2l-1 1-3 2-1 3-1 1-1-1-2-2c-2-1-2-1 0-3 3-1 4-2 4-5 2-2 1-6 0-10l-2-5c-1-2-3-3-7-4-3-1-10 0-14 3l-1 1-1-1c-3-1-7-6-7-7l-8-6a61 61 0 00-11-5h-7l-12-2c-3 0-3-1-5-2l-1-2h1c1-2 2-4 1-7l-1-2 1-1 5-3v-1l1-7-4-4h-5-1l-1 1h-1l-2 1-2 3v5l-1 2-4 4v2h-1c-1-3-3-5-5-6l-1-1v-1l1-4-1-4c-1-2-1-3-4-4l-1-1h-8v-1l-1-2-1-1-3-2h-6l-1 1-2 1c-2 2-3 5-3 9v1l2 2 4 3h7l1 1 1 2 1 1v3c-2 2-3 6-2 10 0 5 5 9 9 9a19 19 0 009-2l2 1 3 2 3-1 2-1 1-3 1-2 2 1 3 2 10 3 5 2a1086 1086 0 009 4l3 4h-5a109 109 0 00-10-1 508 508 0 00-37-6l-5-1a3199 3199 0 00-42-18 4060 4060 0 00-29-9l-4-1-2-1 2-1 2-4 1-3-3-7c-2-2-8-2-10 0a12 12 0 00-4 5l-2-1a11 11 0 00-3-2l-15-3-6-2-4-1 1-1c2 0 4-1 5-3l1-3-2-7-3-1c-3-1-5 0-8 2l-2 5 1 4c4 5 7 7 14 9a49 49 0 013 2l9 2a39 39 0 016 4 579 579 0 00-27-7h-11c-9 0-10 0-16-3l-6-1-15 1-8 3-10 2h-3v-3l-1-6c-1-2-4-4-8-4h-3c-3 1-5 3-6 5l-1 5v3l5 6 5 1 4-1 4-4 12-1 4-1 12-3-1 2c-2 1-3 5-5 9 0 1 1 1 2-2l7-7 3-1a29 29 0 019 2h1v1l-4 1-2 1c-1 0-3 2-4 5v5c0 3 0 4 2 7l3 2 3 2h2l5-1 2-1 4-4 1-7-3-7v-1h1c0 1 2 2 9 4l15 3a69 69 0 0127 10l1 1-1 1-2 6 2 6 6 2 5-2 3-4 1-2 3 1 11 3a719 719 0 0015 10l1 1h-1-3l-5 1h-18l-15 1v-2l-1-2c-1-2-4-3-6-3l-4 2h-5l-2 1h-1l-3 3-1 1v4l-1 1a15583 15583 0 01-18 6l-9 8-2 1-1-2-1-1 1-1 1-3-2-5c-1-2-4-4-6-4h-4l-1 1-1-1c0-2-1-3-3-4h-5l-2 5-1 1 2 4 1 1 1 1h2l1 3c0 2 0 3 2 5l1 1v1l-1 3v2l1 1c2 4 4 5 6 5v1l-1 2a45 45 0 01-21-3l-5-2 1-2v-6c0-2-1-4-4-5l-4-1-4 1c-2 1-4 3-4 5l-1 3 3 6 3 2h10l9 6 7 4c1 1 1 1-1 2l-4 2-10 4-1-1c-2-2-5-3-7-1l-6-1c-10-6-11-6-16-7l-11-1c-8 0-10 0-14 2l-3 1-3 1-3 2h-1l-3 2 1-1v-3c0-2 0-3-2-5s-3-3-6-3l-3 1-4 4h-1l-2-2-5-1-3 1-4 2-1 1-1 1-1 4 1 4 1 2 3 3 5 2h2l1 1v4h-7l-6 4c-3 2-4 6-4 9l1 7 6 5 4 1 1 1h2c5-1 5-1 9-5 2-2 3-4 3-8v-4l-2-4v-1h2c2 1 3 1 5-1 2 0 3-1 4-3l1-4-1-3 2-2a40 40 0 0132-9v2l-1 3c-1 4-3 6-5 8a21 21 0 01-6 5 11 11 0 01-3 1l-5 3-1-1-2-1h-7c-2 1-4 3-5 6l-2 2 1 2 2 5 1 1-1 1v3l-2 2-4 3h-5l-2 1-3 4-1 4 1 2 2 2 2 2 2 1h2l2-1c1 0 2 0 3-2l1-1h2c3 1 6 0 7-3 1-1 2-5 1-7-1-3-4-6-6-6l1-3v-1l2 1 3 1c3 0 3-1 6-3l3-6v-3l-1-2 4-3c6-2 11-5 13-9l4-8 1-4h3l3 1 3 1 2 1-1 1-2 1 1 5-1 1-1 2v1l-2 4v2h-2l-2 1-3 3v1l-3-1h-5l-4 1c-5 2-7 5-6 11l3 7c3 2 6 4 9 3 5-1 7-2 9-5l1-6v-2l1-1h3l2-1h2l3 1 1 1a27 27 0 009-1h2l2-2 1-2 2-5 1-5-1-2-2-3 1-2c2-2 2-2 8-3l10-2 13-10v-1 1l3 2h3l2-1c2-1 2-2 2-3v-4l-1-1-2-2c-2 0-2 0 1-4 3-3 6-6 12-8l11-4c7-3 7-3 11-3a37 37 0 009-2l5-1 10-2v1l-1 1-8 9-6 6-5 9h-1l-2-1h-2l-2 1-4 2v4l3 4h2l1 1v2a33 33 0 00-2 4 493 493 0 00-5 8l-8-2-6 1h-1l-4-1-5-1-1 1c-2 0-5 2-6 4v1l-1 1v5c0 2 2 5 3 5l-2 2-2 3c0 2 0 6 2 8h-1l-3-3-1-2c0-3 0-4-3-5l-3-1h-2v1c-2 0-4 4-4 6l1 2 1 2-1 5 1 4 1 2 1 1 8 1 2 1 5 3h3c4-1 5-2 6-5v-4c0-1 0-3-2-4l1-2 1-1 2-3 1-2v-1l2 1 2 1v4l-1 8a63 63 0 01-1 8l2-3 1 1c0 2 2 3 3 4l5 2h2l2-1 3-3 2-3 1-1a15 15 0 005-2l4-4 1-2v-7l-4-7c-1-2-3-3-5-3h-1l-1-3-1-6v-2l2-2a25 25 0 004-9l3-6 2-2v-2l1-1v1c2 2 4 2 7 0l2-2 1-4-1-2-2-1-1-1 3-2 3-4 7-3 5-3 1 2c0 2 2 3 5 3l4-1 2-2v1l3 1h6l2-1v1l2 3v1l2 1 1 1 1 1h1c0-1 0-1 0 0h3l3-1 3-2v-1l1-2v-1-2l-1-4-1-1-1-1a53 53 0 0125 1l5 1 5 1a99 99 0 01-6 10l-2 1c0-2-2-5-4-6-3-2-4-2-7-1-3 0-5 1-7 4-2 4-2 6 0 11l4 4 1 1h-1l-3 2a186 186 0 01-20 9 33 33 0 00-7 8l-2 2c1-1-1-2-5-5h-5c-3 1-6 3-7 5v9l-2 1-2 3v2l2 4v1l-5 3c-3 3-2 3-5 1h-6c-3 1-4 2-4 6v4c2 3 4 4 7 5l4-1 3-2v-2l1-1 5-6a38 38 0 016-4l2-2h2l3-1v3l-1 5c0 3-1 3-1 2l-4-1-5 2-1 5c0 2 0 3 2 4l4 1 4-1 2-5v-2l1-2 2-2 6-10a50 50 0 016-11c4-6 9-11 12-13a75 75 0 0125-12c6-1 11-6 16-12l6-5h3a64 64 0 0110-3 317 317 0 0134-2l10 5 7 6a128 128 0 017 8l6 6 10 9-6 1a925 925 0 00-24 3 77 77 0 00-20 3h-5a98 98 0 00-21 4h-4l1-3v-3l1 1a12 12 0 006-1l5-5 1-1v-8l-1-1-4-4h-1l-6-1-2 1c-2 0-4 2-5 4l-1 1-1 2v2l-3-1h-5c-3 0-4 1-7 3s-6 8-6 11c2 7 3 10 8 12l2 1-1 2c-4 3-7 6-9 10-1 3-1 3-1 1 0-3-1-6-3-7-2-2-3-3-5-3s-2 0-1-1l-1-6-3-5-6-2-6 2-4 4v1l-1 4 1 3 4 5 6 1c1 0 2 0 1 2v2l-1 1-4 2-3 3c-2 2-2 4-2 7l1 5c0 1-1 1-4-1l-4-2h-5l-11-1a47 47 0 00-11 1l-3 1-11 2a20 20 0 00-5 2l-5 2-3 1-11-2a60 60 0 00-17-2l-2-1-2-1c-3-3-4-4-7-4a116 116 0 00-22-1l-6 3-2 1-15 1-7-2h-1l-3-1-2-1h-2l-9 5-3 1-1-1-3-2-7-1c-4 0-4 0-7 2l-4 5v9c0 4 0 4 2 6l4 4 7 1 4-1 6-6 2-4v-7c-1-2-1-2 2-3 4-2 8-3 11-2l5 1 4 2h6l5 1-1 1a154 154 0 00-17 21c-2 2-2 3-4 3l-3 2c-3 1-3 2-7 2l-8 2-2 1-6 6-3 8-1 5-1 5-2 1h-1l-1-2-1-2-2-2-2-1-3-2-2 1h-1-1s0 1 0 0l-1 1-1 1-2 2-1 4 1 5a12 12 0 007 4h4l1-1 2-1 1-1v2c0 3 2 5 5 7 3 1 6 1 8-1 3-2 3-3 4-6l-2-6-6-4h-1l1-3 2-6 4-6v1l3 6 1 1-1 1a12 12 0 00-3 6l1 4 1 1 3 3 1 1 3 1 4-1 1-1 3-3v-1l1-5-1-1-4-5 1-1 2-5c-1-4-2-6-4-7l-1-1 5-1 4-1 3-3 2-3 2-3a143 143 0 0017-15v1c1 2 2 4 5 6l4 1 6-2 2-1c2 3 4 4 7 5h2l-1 2v5l3 3 4 3 2-1 4-2 3-2 1 2s1 0 0 0c0-1 0-1 0 0h7l2-1 2-2 2-4c1-2 1-5-1-8l-2-1-1-1c-1-1-3-2-6-1s-4 1-5 3l-1 1-1 1h-2l-3-1h-1l1-1v-1-1l2-2c3-1 4-2 5-4h3a129 129 0 0014 6l3 2a64 64 0 01-5 11l-4 5-8 3-1 1-3 1-6 2-7 3-4 4a25 25 0 00-4 8v1l-1 2v1l-1 1-1 2a75 75 0 00-1 9l-1 1 1 6v7l-1-1-4 1-5 4v2h-1l-2 1h-1l-2 1-1 1-1 2-1 2v6l1 1v1l1 1 1 1 1 1h1v1l4 1 3-1h1l1-1 4-3v-1-1l2-3 4-2v-1 10c-1 3 0 9 2 12a620 620 0 003 5c-1 0-3 0-4 2l-3 2v1 8l4 3 4 1h2v2l1 1 3 4h2v1c0-1 0-1 0 0h6l5-5 1-2v-1l-1-5-2-3-3-2h-4-1l-1-1-5-5-2-4-2-7-1-3 1-3v-10l3 3a320 320 0 0023 20c5 3 5 3 6 8a747 747 0 01-6-13l-1-1 5 1 3-2 1 1 2 4c2 3 4 4 7 4l4-2c3-3 4-5 3-7l-2-5c0-1-3-3-5-3l-5 1-1 1v-1c0-3-2-6-3-7l-1-1 2-1c1 0 2 0 4-3l2-4 1-6c-1-3-3-5-7-7l-5-1-5 1-1 1v-1a1015 1015 0 00-5-5l-3-1h-4l-2 2-2 4-1 1v1c-1 1 0 3 1 5l4 3h9v2l1 1v1l3 4 1 1-1 1c-2 0-4 2-5 3l-1 6-1 1-4-3a151 151 0 01-12-14l-5-5-3-4v-7-8l1-2 2-4 1-3a92 92 0 015-8l2-1a128 128 0 0119-7 181 181 0 0013-6 64 64 0 008-11l5-6c2-4 2-4 3-3l1 1 1 1c1 2 3 2 6 3l2 1c1 2 4 3 6 4h5l1-1h1c1 0 0 0 0 0v-1l2-1h1l2-5v-1-2-2l-2-4v-1h-1l-2-1h-1v-1h-1l8-2h5l4-1 4 1a612 612 0 018 2c3 0 13 7 13 8l-1 2v2l-2 2a69 69 0 00-4 2 36 36 0 00-7 2l-3 4-8 6-3 3a39 39 0 00-3 7l-1 3a163 163 0 01-6 14l-2-1c-2-2-3-3-6-3l-7-1c-3 1-4 1-6 4-3 2-4 4-4 9a20 20 0 001 5l3 6 3 2 4 1 3 1-3 2-5 3-5 7c-1 3-2 5-1 12l-1 10a32 32 0 002 20l1 1-1-8a84 84 0 011-13l1-2v-12l2-3 6-9c4-4 4-5 6-5a22 22 0 006-3v5c-1 4-1 9 1 25a228 228 0 011 17l1 3-1 2h-4-1v1l-2 3-1 4 4 3h1l2 1 1 2c2 0 2 1 2 2-1 0-1 0 0 0v1l-1 2 1 4 2 3 2 1 7 1 1-1c2 0 5-3 5-5v-6l-1-2-4-3-1-2c1-3 0-6-2-8-3-3-6-3-8-2-1 1-2 0-1-1v-6c0-11 0-12 1-11h5c2 0 5-4 5-5l-1-2-1-1 1-1 2-2 1-1h5l5-3v-5-2l3 1 3-1 1-1 3-3v-1-6l-5-5h-5v-1c1-4 0-8-3-10l-1-1 1-1 2-1 2-4 1-2c0-1 0-4-2-5-2-3-4-4-7-4l-5 1-1 1-1 1v1l-1 1v4h-1v-2l2-4a13 13 0 001-3l1-2 10-14 8-5 10-5c0-1 1-1 1 1v1l3 4 1 2h-1l-3 5v5l1 1v1l1 1 1 1h2l3 1h2c2 0 3-1 5-3l1-3v-4l-3-3 1-1 4-2c3-1 4-3 4-5v-9c-2-4-5-6-9-6l-1-1 2-1a4434 4434 0 0028-38l9-5c5-3 7-3 19-3a385 385 0 0039 1 327 327 0 0135 2l3 1 8 4 3 4 1 1 2 1 1 1 2 1a109 109 0 0013 8v1a56 56 0 006 4l1 1-6 3-6 3-9 5c-1 2-2 2-3 2l-8-2 1-2c2-2 3-5 3-7s-1-3-3-5a6099 6099 0 01-1-2v-5-2l-1-1-1-1-1-1-4-2-6 1-1 1-3 2-1 6v2l1 2 2 2 1 1-1 1v3h-10l-3 1 1-1c0-3 0-6-2-9l-4-3-7 1c-2 0-5 3-5 5-1 2-2 5-1 6 0 2 2 4 4 5l1 3h-2-3-1l-2 3v5l1 2c2 1 9 0 10-2h1l6-1 1-4-1-4v-2a90 90 0 0115 1 28 28 0 017 4v1l4 2 5 2 2 2v1a47 47 0 00-4 9l-1 1-1 1-6 6-8 6h-2a130 130 0 01-12 2l3-4v-6l-4-8-6-3-6-1h-4l-2 1c-3 2-6 5-7 9-1 3 0 8 2 10 1 3 3 5 5 6 5 3 9 3 14 1l2-1h12l4-1c8-3 7-3 18-10 7-4 7-4 9-8a392 392 0 0110-14l5-4 4-4 2-1h3a62 62 0 0118 2l3 2h1v181H0zm252 136c3-2 4-4 3-8 0-2 0-3-2-5s-3-2-6-2-4 0-5 2c-1 1-2 1-2 3l-1 2 1 2c0 3 0 3 2 4 2 2 4 3 7 3l3-1zm33-4l2-3 1-6c-1-2-1-3-4-4l-3-1c-4 0-7 2-8 5v5c1 3 2 4 4 4l4 1 4-1zM98 241l3-3 1-2 1-3-2-6-5-3-8 3-1 3c-1 4-1 7 2 9l3 2 4 1 2-1zm245-10l3-1 3-3 1-4-1-3 1-1 4-2 2-2v-1c1-2 0-4-2-5l-4-2h-3l-2 3-1 1v3h-1l-6 1-3 2-1 7 3 4 4 3h3zm55-25l4-4 1-4v-3l-1-2-2-2c-3-1-6-2-8-1l-3 1-3 6 2 7 3 2h1l2 1 4-1zm-254-81l2-1c2-2 2-5 0-7-1-2-2-3-4-3l-3 1-2 1-2 4 1 2 2 3 3 1 3-1zm61-1l3-3v-6l-4-1h-4c-2 1-2 2-2 5v2l1 1 3 2 2 1 1-1zm66-4c2-1 4-3 4-5l-2-4-2-2h-1l-5 2-1 4 1 4c3 2 4 2 6 1zm-165-6c4-2 6-7 5-13-1-2-3-4-5-4l-1-1h-1-1-2l-3 1-2 2-1 2c-1 3-2 6-1 8l6 5h6zm-52 0l2-1c1 0 3-2 3-4v-8l-6-3c-3-1-6 0-7 2l-3 7c0 2 2 4 4 6l7 1zm34-4l4-4 1-4c0-3-2-6-4-8h-5c-2 0-5 3-5 5v6l4 4 5 1zm355-22l3-4 1-3-2-2-1-1h-2a17 17 0 00-6 0l-1 1-1 1v1l1 4 3 3h5zM230 69l3-4c1-2 0-3-1-5l-3-3h-1l-1 1h-2l-2 2-1 2v5l2 2h6zm-80-8l2-2 4-4v-1l1-5-4-6-5-2-2-1-9-1-4 5-1 4 1 4c1 2 2 3 5 4l2 1 1 2 6 2h3zm-47-22l6-4 3-6v-4l-3-9-7-4c-2-1-4-1-9 2l-6 6-1 5c0 5 0 5 3 10l4 3 2 1h8zm245-7l4-4c0-2 0-4-2-6-1-2-2-2-5-2-3 1-4 2-5 4v5c1 3 4 4 8 3zm-89-12c1-1 3-2 3-4l1-6c-1-3-4-5-8-5-2-1-2 0-5 1l-1 1-1 1-2 5c0 3 2 5 5 7l1 1h3l4-1zm-1 312zm4-35l1-26 1-1h2c3 0 3 0 4 2 0 2 1 3 4 4h6v1l-1 1v4l1 2 1 1h-7c-2 1-4 3-4 5l-2 1-3 1-1 4 1 4h-2l-1 1v-4zm-88-97l-2-2v-1l5-2h3l2 1-1 1h-1l-1 1-3 1-1 1-1 1zm32-27l1-8c1-1 1 0 1 3v3l-1 2-1 1zM74 132l-1-2v-1h2l2 2v1h-3zm7 0v-1h1l-1 1z" fill="#fff"/><path d="M268 358l-4-2-2-3-1-4 1-2v-1c-1 0-1 0 0 0v-1-1 1h1l1 1 5-1 1-1 1-1 2-2v-1l1 1 4 3 1 2v6c0 2-3 5-5 5a768 768 0 01-6 1zm-75-15h-2c0-1 0-1 0 0v-1h-1-1s-3-2-3-4l-1-1v-1-2l6-4v-5-1 1h6l3 2 2 3 1 5v1l-1 2-3 4h-1l-5 1zm66 0v-1 1h0zm-1-1l-1-1h-1l-4-3 1-4 2-3v-1h6v-1l-1 2c-2 1-3 3-3 5v3c0-1 0-1 0 0l1 2 1 1h-1zm1-10h-1 1zm14 7h0zm1-2s0-1 0 0v0zm-92-2h0c-1 0-1 0 0 0zm-2 0h0zm-3-2c-1-1-1-1 0 0zm60 0l-1-2 1 1v1zm35-1l-1-1 1 1h1-1zm-97-1l1 1-1-1zm61-1v1-1zm34 0l1 1-1-1zm-54-1v-1 1h1v1l-1-1zm20-1v0zm28 0h1l-1 1v-1zm1 0h2l-1 1-1-1zm-48 0zm43 0h1-1zm2-2v-1 1zm-14 2h1-1zm-2-1h1v1l-1-1zm-30-1h1v1l-1-1zm27 0v0zm-9 0s0-1 0 0zm19 0l1-1v1h-1zm-11-1h-1 1v0zm-68 0h1-1zm60-1c-1 0-1 0 0 0v0zm20 1l1-1-1 1zm-13-1l-1-1 1 1zm19-1v0zm18 1h0zm4 0zm-66-1v0zm-41 0c0 1 0 1 0 0zm58 0h1v1l-1-1zm52 0l1-1-1 1zm-49-1v0zm19 0l1-1v1h-1zm32-1v-1l-1 1h1zm-54 0c0-1 0-1 0 0zm3-1c1 0 1 0 0 0zm19 0h0zm18 0v-1l1 1h-1zm-11-1v0zm-83 0v-1 1h-1zm60 0v-1 1zm-2-1c0 1 0 0 0 0zm18 0v-1 1c0 1 0 1 0 0zm4 0v-1 1zm-77 0h1c1 0 1 0 0 0h-1zm58-1c0 1 0 0 0 0zm48 0v-1 1zm-67-1l-3-3-2-4v-1l2-2 1-4v-2 2l1-1 5-1c2 0 5 2 5 3l2 5c1 2 0 4-3 7l-4 2-4-1zm12 0v0zm4 0zm3 0v-1 1zm22 0v-1 1zm10-1v0zm-65-1h1v1l-1-1zm46 0l-1-1 1 1v0zm6 0v-1 1zm3 0v0zm-25 0v-1 1zm-54-1v0zm-4-1c-1 0-1 0 0 0v0zm72 0v0zm36 0v-1l1 2-1-1zm-77 0c-1 0-1 0 0 0 0 1 0 0 0 0zm39 0h0zm25 0v-1 1h-1 1zm-92-1c1 0 1 0 0 0zm80 0l-1-2h1s0-1 0 0v2zm5 0s-1 0 0 0zm2 0v-1c1 0 1 0 0 0v1zm6 0v-1c1 0 1 0 0 0v1zm-68-2c0 1 0 1 0 0zm52 0c0-1 0-1 0 0zm-50 0c1 0 0 0 0 0zm5 0c-1 0-1 0 0 0zm57 0l1-1-1 1c-1 0 0 0 0 0zm-33 0v-1 1zm-32-1c-1 0-1 0 0 0zm55 0c-1 0 0-1 0 0zm-79 0v-1 1zm16-1v-1 1l1 1-1-1zm7 1l-1-1-2-2h1v1h1v1h1v1zm-28-1v-1 1zm95-1v0zm-34-1v0zm21 1v-1 1zm-64-2l-1-1 1 1 1 1-1-1zm39 0h1-1zm37 0v-1l1 1h-1zm-111 0l-2-1v-1h-1l-1-1-1-1-1-1v-1l-1-1v-6l1-2 1-2 1-1 2-1h1l2-1h1c-1 0 0 0 0 0 0-1 0-1 0 0-1 2 0 8 2 9v1h1l2 1h5v1a38 38 0 00-1 2v1l-4 3-1 1h-1l-2 1h-2-1zm78-1v-1 1zm-37 0c0-1 0 0 0 0zm57-1c0-1 0-1 0 0v0zm13 1l-3-3h-3l-1-2c-1-3 0-4 1-6l3-1 2-1v4l2 3 2 2h1l-1 2-2 1-1 1zm-94-1c0-1 0-1 0 0zm23 0v-1h1v1h-1zm-9-1c0-1 0-1 0 0 1 0 1 0 0 0zm71-1c0-1 0-1 0 0zm2 0h1c1 0 1 0 0 0h-1zm-68-1v-1l1 1h-1zm5 0v-1 1zm18 0v-1 1zm39-1v-1 1c0 1 0 0 0 0zm23 1l1-1-1 1zm-94-2l-1-1 1 1 1 1-1-1zm97-1l1-1-1 1-1 1zm-22 0v0zm-70-1v-1l1 1v1l-1-1zm93-1v0zm-103 0c0 1 0 0 0 0zm76-1v-1 1zm-68-1l1 1-1-1zm-14 0h0l-1 1 1-1zm38 1l-5-1-1-1-1-2-3-3v-1l-1-1v-1-1h0l2-3 1-3v-3-1h1l5-1 5 1c4 2 6 4 7 7l-1 6-2 4c-2 3-3 3-5 3l-1 1h-1zm-8-1c-1 1-1 1 0 0zm-28 0c0-1 0-1 0 0zm57 0l1-1-1 1zm27 0c0-1 0-1 0 0zm23-1v0zm0-1l-3-4-1-1h-1c-1 0-1 0 0 0v-2l-1-1v-2-1-1l1-1 1-1v-1l4-2v-1 1h5l5 5v7l-3 3-1 1-3 1-3-1v2-1zm-23 0v-1 1zm-84-1v0zm92 0zm-92-1v-1l1 1h-1zm59 0v-1 1zm25 0zm-5-1h1v1l-1-1zm14 0l1-1v1h-1zm-92 0l-1-1h1v1zm79-1s0-1 0 0 0 1 0 0zm-12 0c0 1 0 1 0 0zm-62-1v0zm90 0h1-1zm-27 0v-1c1 0 1 0 0 0v1zm11 0v-1 1zm18 0c0-1 0-1 0 0 0 0-1 0 0 0zm-36-1l1-1v1h-1zm23 0v-1 1zm-5-1zm-77-1l-1-1 1 1 1 1-1-1zm17 1h0s-1 0 0 0zm1 0h1-1zm-22-1h-1v-2l1 2zm2-2l1 1-1-1zm12 0l1 1-1-1zm-27 0h1c0-1 0-1 0 0h-1zm11-1l-2-1h-1 2l1 1zm83 0s0-1 0 0zm-9-1c0-1 0-1 0 0zm-79 0v-1l1 1h-1zm2-1c0 1 0 1 0 0zm78 0v0zm-4 0zm31 0h1-1zm-14-1s0-1 0 0zm9-1c1 0 1 0 0 0zm-84-1h1v1l-1-1zm82-1l1 1-1-1zm-32 0h0zm25 0c0-1 0-1 0 0zm-74 0l1-1-1 1zm81-1c0 1 0 0 0 0zm-7-1v-1h1l-1 1zm6-1h1-1zm-162 0s-1 0 0 0zm159 0h1-1zm2 0h0zm-163-1zm-2-1l-1-1c-1-1-1-1 0 0l2 1v1l-1-1zm88 1l1-1 1-1-1 1-1 1zm94-2v0zm-83 0l1 1-1-1zm-89 0l1-1v1h-1zm1-1h1c0-1 0-1 0 0h-1zm62 0c0-1 0-1 0 0zm59 0v-1 1zm-39 0zm2 0h0s-1 0 0 0zm-107-3l-7-4-1-5 1-4 2-2 1-1 1-1c1 0 0 0 0 0h2l2-1 3 2 2 1 2 2a123 123 0 002 5l-2 4-1 2-1 1h-1l-1 1h-2-1-1zm144 0c0 1 0 0 0 0zm48 0l-1-1 1 1 1 1-1-1zm-184 0s0-1 0 0zm73-1s0-1 0 0zm3 0h1-1zm-52 0l-3-1-1-1-3-3-1-1-1-4 1-1 2-5 1-1-1-1v1l5 2 3-1h1v-1h1c1-1 1-1 0 0l4 5 1 1-1 5v1l-3 3a11 11 0 01-1 1l-3 1h-1zm-24-1v0zm182 0l-3-1-4-1-2-4-2-2v-4l1-1v-1l1-1 1-1 5-1c3 0 5 1 7 4 2 1 2 4 2 5l-1 2-2 4-2 1-1 1c0 1 0 0 0 0zm-166-1h1v1l-1-1zm120 0c0-1 0-1 0 0zm0-2h1-1zm1-1s0 1 0 0zm-122-1l1 1-1-1zm-1-1h1v1l-1-1zm124 0l1-1-1 2v-1zm23 0v-1 1zm-2-1l1 1-1-1zm3 0v-1c1 0 1 0 0 0v1zm-21-1v-1 1h-1 1zm28 0v-1 1s1 0 0 0zm-163-1v-1l1 1h0c0 1 0 1 0 0h-1c-1 1-1 1 0 0zm2 0h1-1zm68 0v-1 1zm68-1h1-1zm20-1v-1 1zm-16 0h1c1 0 0 0 0 0h-1zm23-2v-1l1-1-1 1v1l-1 1zm1-2zm-165-1s0-1 0 0v0zm4-2c0 1 0 1 0 0zm6 0v-1 1c0 1 0 1 0 0zm-19-2h1l-1 1v-1zm212 0l-2-1h-2l-1-1-1-1v-1l-1-1v-5l3-5h3l4 2c4 0 5 0 6 3v4l-1 3c-2 2-3 3-5 3h-2-1zm-216 0h0zm317-1h1c1 0 0 0 0 0h-1zm-143 0v-1c0-1 0 0 0 0v1zm141 0c1 0 0 0 0 0zm-319-1h-1 1v0zm186 1v-1 1zm139 0zm-9-1h0zm-1 0v-1l1 1h-1zm-202-1l1-1v1h-1zm217 0v-1l1 1h-1zm8 0h0s-1 0 0 0zm-25-1c-1 0-1 0 0 0 0 1 0 1 0 0zm29 0h1l-1 1v-1zm-329 0v-1 1c-1 0-1 0 0 0zm12 0v-1l1 1h-1zm286-2h-1 1c1 1 1 2 0 0zm21 1c-1 0-1 0 0 0l1-1s0-1 0 0l-1 1zm-319 0v-1 1zm-16-1c0-1 0-1 0 0 1 0 1 0 0 0zm42-1l-1-1 1 1 1 1-1-1zm-26 0l1-1v1h-1zm166 0h1-1zm157 1h1-1zm-147-1h0zm120 0v-1l1 1h-1zm-288 0h1c0-1 0-1 0 0h-1zm6 0v-1 1zm-14-2h1v1l-1-1zm14 1l1-1 1 1h-1-1zm76 0l1-1v1h-1zm22 0v-1 1zm-96-1h0c-1 0-1 0 0 0zm98 0v-1h1l-1 1zm64 0v-1l1 1h-1zm117 0v-1 1zm-273-1c-1 0-1 0 0 0h1v1l-1-1zm-5 0h0zm4 0zm217 0h0zm98 0v-1h1l-1 1c-1 0 0 0 0 0zm-99-1c-1 0 0 0 0 0v0zm-225 0s0 1 0 0zm311 0zm-298 0h0zm218 0h0zm51 0l1-1v1h-1zm53 0l1-1-1 1s-1 0 0 0zm-230-1h1-1zm-103 0c-1 0-1 0 0 0zm325-1l1-1v1l-1 1v-1zm-106 0v-1l1 1v1l-1-1zm-217 0v-1 1s-1 0 0 0zm72 0c1 0 0 0 0 0-1 0-1 0 0 0zm206-1v0zm-204 0h1-1zm-92-1h-1 1v0zm108 1l1-1-1 1zm-86 0c0-1 0 0 0 0s-1 0 0 0zm212-1zm121 0l1-1-1 1zm-328 0h1-1zm269 0v-1 1zm-259-1h1c0-1 0-1 0 0a44 44 0 00-1 0zm65 0h-1-1c0-1 0-1 0 0l-1-2h-1c-1 0-1 0 0 0v-1-1l1-4-3-4-1-1h1l1-1 1-1c1-2 2-2 5-3s5 0 6 1l1 1 3 3 1 3c0 3-1 6-3 7l-2 2-2 1h-1-4zm118 0h0zm126-1l1-1-1 1-1 1 1-1zm-348 1c-1 0-1 0 0 0zm235-1v0zm92 0v0zm-331 0h1v1l-1-1zm2 0h1v1l-1-1zm100 1l1-1-1 1zm200-2v0zm-212 1v-1 1zm274 0v-1h1l-1 1zm-325-1c0 1 0 1 0 0zm200 0v-1 1c0 1 0 0 0 0zm-109 0h1c0-1 0-1 0 0h-1zm200-1c0-1 0-2 0 0l1 1-1-1zm-131 0h0c-1 0 0 0 0 0zm103 0v-1h1l-1 1zm-46-1v0zm-137 0h1a44 44 0 00-1 0zm120 0c0-1 0-1 0 0zm-51-1s0 1 0 0zm14 0h1-1zm-44 0h-1c-2-1-5-2-6-4l-1-1 1-1 3-1 1-1v-1l2-2v-4l-1-3c0-1 0-1 0 0l4-1 2-1h1v1h1l2 1h1v1l2 4v5l-2 5h-1l-2 1v1h-1l-5 1zm145 0v-1 1zm-49-1v-2l-1-1-3-2h-1l1-2v-1l1-1 2-3h3l4 2c2 1 3 3 2 5v1l-2 2-4 2h-1-1zm-165 0v-1 1zm141 0l1-1v1h-1zm-181 0c1-1 1-1 0 0zm279-1l1 1-1-1zm-283 0h0zm312 0h0zm-150 0v-3l1 2-1 1zm33 0v-1h1l-1 1zm86-2l-1-2 1 2 2 2-2-2zm-22 1h1-1zm-252-1l1-1-1 1c-1 0 0 0 0 0zm-34 0zm213 0v-1 1zm127 0l1-1v1h-1zm-343 0h1-1zm5 0v-1 1c-1 0-1 0 0 0zm116-1h0v0zm-46 0h-2c-3-1-6-2-7-5h-1v-1-8l2-2 3-1 1-1h1l1-1v2c0 4 1 6 3 7 2 2 5 3 6 2h1l-1 1v1l-1 1v1l-5 3-1 1zm217 0l1-1-1 1h-1 1zm-100 0l1-1v1h-1zm-60-1v0zm53 0c-1 1-1 1 0 0zm45 0h1-1zm-45 0h1l1-1-1 1h-1zm-192-1l-1-1h1l1 1h-1zm17 0l1-1-1 1-1 1 1-1zm183 0zm101 0h1c1-1 1-1 0 0h-1zm-236 0h0zm70 0v-1 1zm168-1c1 0 0 0 0 0zm2 0c-1 0-1 0 0 0zm1 0s-1 0 0 0zm2 0h0zm-174-1v0zm66 0h1l-1 1v-1zm-151 0c1 0 1 0 0 0 0 0 0 1 0 0zm146 0v-1 1zm-104 0c-1 0-1 0 0 0zm110-1v0zm152 0c1 0 0 0 0 0v0zm-302-1l1-1v1l-2 1 1-1zm81 0v-2-3l1 2v4l-1-1zm70 0c0-1 0-1 0 0-1 1-1 1 0 0zm103 0l-2-2v-5l2-3h6l-1 2v2l1 1 3 2v1c-1 2-6 3-9 2zm-191 0c0-1 0 0 0 0zm-93-1v-1 1zm333-1l1 1-1-1zm13 1l1-1v1h-1zm-314-1l1-1v1h-1zm150 0h1c0-1 0-1 0 0h-1zm15 0v-1l1 1h-1zm-109 0h0zm184 0h2-2zm22 0h0zm-23-1h1l-1 1v-1zm-87 0l1-1v1h-1zm85 0h-1v-1l1 1zm61 0h1-1zm-296-1h0l-1 1zm1 0v0zm293 0l-1-1 1 1h0zm-141 0c-1 0-1 0 0 0 0-1 0 0 0 0zm79 0l-1-1h1a19 19 0 001 1h-1zm11 0c1-1 1-1 0 0zm71 0h1-1zm-159 0h1-1zm2-1s1 0 0 0v1-1zm-156 0v-1 1zm315 0h1c0-1 0-1 0 0h-1zm-322 0l1-1-1 1zm250 0l1-1s0-1 0 0l-1 1zm-167-1l2-3-1 3h-1zm81 0h1c0-1 0-1 0 0h-1zm72 0v-1l1 1h-1zm37-1v-1 1zm51 0h1-1zm-317 0l1-1-1 1zm41-1v-1l1 1v1l-1-1zm277 0h1-1zm-228-1v-1l1 1h-1zm-124 0v0zm113 0l5-3v1h-1-1l-1 1-2 1zm205 0v-1l1 1h-1zm20 0h1-1zm-364 0v-1 1zm348 0h0zm-1 0l1-1v1h-1zm60-1h1l1 1-2-1zm-306 0v-1 1zm119 0h1-1zm125 0h-1 1zm8 0h0zm-278-1h-1 1v0zm107 1h0zm-34-1h-3l-1-1h2l2 1h1v1l-1-1zm206 0h1s1 0 0 0h-1zm4 0h1v1l-1-1zm9 1v-1c1 0 1 0 0 0v1zm-367-1l1-1v1h-1zm166 0c1 0 0 0 0 0zm177 0v-2l1 1v1h-1zm39 0h1v-1 1h-1zm-319 0c1-1 1-1 0 0zm294 0h0zm48 0c-1-1-1-1 0 0zm-304 0v-1 1zm255 0v-1 1c1 0 0 0 0 0zm-283-1h1s-1 0 0 0h-1zm242 0v0zm24 0c1 0 1 0 0 0zm64 0h0c-1 0-1 0 0 0zm-339 0c1-1 1-1 0 0zm337 0h1-1zm-44-1v1-1zm27 0h0v1-1zm-180-1a63 63 0 00-9-2l1-1-1-5c0-3 0-5 2-7 2-3 5-5 7-5h1v1l3 4 6 2 5-1 1-1-2 3a738 738 0 00-11 13l-3-1zm84 1h1l-1 1v-1zm47 0h2l-1 1-1-1zm64 0v0zm-374 0zm30 0c1 0 0 0 0 0s-1 0 0 0zm270 0a41 41 0 001-1v1h-1zm2 0h1-1zm-277 0h1-1zm263-1h-1 1v0zm82 1h1-1zm-3 0h1-1zm2 0h0zm-370-1h1-1zm3 0c0 1 0 0 0 0zm73 0v-1 1zm-18 0h1-1zm-1-1c-1 0-1 0 0 0zm-58 0l1-1v1h-1zm76 0h0zm-96-1l-1 1 1-1zm82 1v-1 1zm256-1v-1h-1l1-1c1 0 1 0 0 0v1l1 2-1-1zm-227 0c-1 0-1 0 0 0zm213 0h1c0-1 0-1 0 0h-1zm-229-1l-1-1 2 2-1-1zm-63 1zm74 0h0zm181-1c1 0 1 0 0 0v0zm20 0v0zm-274 0h1l-1 1v-1zm2 0h1l-1 1v-1zm48 0h1l-1 1v-1zm61 0h1-1zm156 0h0zm25 0v-1l1 1h-1zm-177 0h0zm151-1l1 1-1-1zm40 1v-1 1zm-254-1h1c0-1 0 0 0 0h-1c0 1 0 1 0 0zm139 0l1-1-1 1-1 1 1-1zm104 0h1l-1 1v-1zm-311 0h1-1zm134 0c1 0 0 0 0 0zm179 0h0zm5 0h0zm-237-1l1 1-1-1zm241 1v-1 1c0 1 0 0 0 0zm-336 0v-1c1 0 1 0 0 0v1zm47 0h0zm6-1h0s-1 0 0 0zm34 0h1-1zm216 0h1-1zm-16 0c1 0 0 0 0 0zm-227 0v-1 1zm93-1h1-1zm70-1l1-1-1 1-1 1 1-1zm-220 1h0s-1 0 0 0zm2 0h1-1zm330 0l1-1-1-2-2-2-1-2v-2l1-6 3-2 1-1 6-1 4 2 1 1 1 1v1l1 2v5l-1 1h-1l-4-1-3 1h-2l-3 4-1 2zm-159 0h1-1zm-2-1v0zm-9 0h1-1zm2 0h0zm2 0h0zm2 0h0zm-61 0c-1 0-1 0 0 0zm243-1l-1-2c-1-1 0 0 0 0l1 2c1 1 0 1 0 0zm-323 0v1-1zm1 0zm32 0h0zm20-1h0zm74 0h0zm-76 0c-1 0-1 0 0 0zm-111 0l-3-3-2-2-1-2 1-4 3-4 2-1h5v1 7l4 3v1l-1 1-3 2-5 1zm105-1h0zm79-1l-1-1 1 1v0zm225 0h-1 1c0 1 0 1 0 0zm-281 0v-1 1zm224 0c-1 0-1 0 0 0zm-16-1l1-1-1 1-1 1 1-1zm-324-1h1-1zm116 0h1-1zm3 0v-1 1c0 1 0 0 0 0zm43 0c1 0 1 0 0 0 0 1 0 1 0 0zm232 0h-1 1c0 1 0 1 0 0zm-396 0h0zm137 0l1-1-1 1zm36-1v0zm220 0h0zm-274-1v-1 1zm1 0h0c-1 0 0 0 0 0zm18 0l-1-4c-1-3-4-5-6-6l-6 1-1 1v-1-3-3l8-2c3-2 6-6 6-8h2l5 3 4 7-1 7v2l-4 4h-1l-4 2h-1zm47 0s0-1 0 0zm-92 0a13 13 0 01-5-2l-1-2-1-4 1-5 1 1 6-1 3-3v-1l1 1 3 3-2 3-2 3c-1 2 0 5 1 6v1h-5zm141 0zm95 0h0c-1 0 0 0 0 0zm-94-1v-1 1c0 1 0 0 0 0zm96 0h0zm-322-1zm227 0v-1 1zm-52-1s-1 0 0 0c1 1 1 1 0 0zm-33 0h0zm236 0l-1-1 1 1h0zm-202 0l1-1v1h-1zm-2-1v-1 1h0zm53 0l1-1c0 1 0 0 0 0 1 0 1 0 0 0 0 2-1 2-1 1zm-61 0v-1 1h-1zm-54 0v-1c1 0 1 0 0 0v1zm47 0v-1c1 0 1 0 0 0v1zm1-1c1-1 1-1 0 0zm-47-1c0-1 0-1 0 0s0 1 0 0zm115 0v0zm147 0c-1 0-1 0 0 0v0zm-232 0zm-143-1c0-1 0-1 0 0zm162 0h0v0zm48 0c0-1 0-1 0 0zm162-1h-1-1v-1h1l1 1c0 1 0 1 0 0zm-351 0c-1 0-1 0 0 0zm206 0h1-1zm-205 0h0zm208-1l1-1-1 2v-1zm-74 0v-1s1 0 0 0v1c1 1 0 1 0 0zm213 0c0-1 0-1 0 0 1 0 1 0 0 0zm-205 0l1-1-1 1zm-20-1h1-1zm64 0c1 0 0 0 0 0-1 0-1 0 0 0zm-180 0v-1 1zm74 0c-1 0 0 0 0 0 0-1 0 0 0 0zm52 0c-1-1-1-1 0 0h0zm52 0h0zm-219-1h0l-1 1 1-1zm11-1l-1-1 1 1 1 1-1-1zm178 0v-1 1zm-147 1c1-1 1-1 0 0zm82 0v-1 1zm-142 0h2-2zm189-1l1-1v1l-1 1v-1zm74 0l1-1v1l-1 1v-1zm-83 0h1-1zm217 0h0zm-401 0h1-1zm-2-1c-1 0-1-1 0 0h0zm13 0c1 0 1 0 0 0 0 0-1 1 0 0zm13 0h0zm244 0h1c0-1 0-1 0 0h-1zm-140-1c-1 0-1 0 0 0v0zm21 0v0zm110 0h0zm-233 0h0zm3 0c1 0 0 0 0 0zm-33-1l-1-1 2 2-1-1zm17 1l1-1-1 1zm14 0h1-1zm180 0h0zm191-1v-1l1 1v1l-1-1zm-202 1h1c0-1 0-1 0 0h-1zm62-1l1 1-1-1zm12 1v-1 1zm16-1h0l-1 1 1-1zm-258 1l1-1-1 1zm121-1zm49 0zm-51 0v-1 1zm-120-1zm226 0h2-2zm144 0v-1 1zm-403-1c-1 0-1 0 0 0h0zm36 0c0-1 0 0 0 0-1 1-1 1 0 0zm4 1c1 0 0 0 0 0-1 0-1 0 0 0zm238 0v-1c1 0 1 0 0 0v1zm-127-1c-1 0-1 0 0 0v0zm88 0v-1 1s1 0 0 0zm-166 0s0-1 0 0zm-51-1h1-1zm13 0c-1-1 0-1 0 0h0zm113 0h0zm112-1s0-1 0 0zm20 0h1v1l-1-1zm2 0h2l-1 1-1-1zm2 1l1-1v1h-1zm2-1h0zm-213 0v-1 1zm214 0h2-2zm11 0c-1 0-1 0 0 0zm-166 0v-1 1zm157 0l1-1h1l-2 1zm-266-1h0c-1 0 0 1 0 0zm24 0h1c0-1 0-1 0 0h-1zm347 0c0-1 0-1 0 0h0zm-180-1l-2-3c-1-2-3-2-5-2h-1v-9l4-4h2l1-1h5l5 4 1 1v-1c0 1 0 2-1 1v1l-3 6-2 2-4 5v1-1zm63 1v-1 1zm14 0l1-1v1h-1zm-292-1c0 1 0 0 0 0zm260-1h1v1l-1-1zm33 1l2-2 2-2 1-1 1-1v-1l-1 2-1 2-1 1-1 1h-1v1h-1zm-207 0l-1-1-3-1-1-1v-1l1-1-1-5-4-2 1-6 1-1v-1l2-2 1 1c2 2 4 3 6 2l1-1 3-2 1 1 5 1 2-1v1l2 3v7a16 16 0 01-3 7l-2 2h-2l-4 1h-5zm34-1l1-1-1 1-1 1 1-1zm156 0c-1 0-1 0 0 0v0zm113 1h1-1zm-390-1s0-1 0 0zm388 0h0zm-335 0c0-1 0-1 0 0zm23 0h2-2zm278 0h0c-1 0 0 0 0 0zm31 0h0c-1 0-1 0 0 0zm-310 0h0zm276 0h1c1 0 1 0 0 0h-1zm7 0zm22 0h1-1zm-301 0h0zm228 0h1-1zm-281-1v-1 1zm54 0c1 0 1 0 0 0 0 0 0 1 0 0zm229 0c1 0 0 0 0 0zm20 0zm6 0h0s-1 0 0 0zm9 0h1-1zm-344 0v-1 1zm311 0h0zm8 0h1-1zm-182-1v-1 1h-1 1zm68 0l1-1v1h-1zm27 0v-1 1zm-206-1v-1 1zm112 0v-1l-3-3c-1-2 0-7 1-8v-1l3-3 3-1 1-1 5 1 4 1-5 5-2 7v3h-5l-2 1zm-138-1c0-1 0-1 0 0zm33 0v-1 1zm19 0v-1 1zm192-1h1c0-1 0-1 0 0h-1zm56-1h0zm-300-1v0zm70 0h0zm102-1v0zm101 0v0zm176 1c-1-1 0-1 0 0 1 0 1 0 0 0zm-449-1l3-3-1 1a8 8 0 01-1 2h-1zm59 0h1-1zm194 0c-1 0-1 0 0 0zm193 0l-1-1 3 1h-2zm-210 0l1-1v1h-1zm-185-1c1 0 1 0 0 0zm1 0l1-1-1 1zm-17-1c1 0 1 0 0 0 0 0 0 1 0 0zm15 0h0c-1 0 0 0 0 0zm265 0h0zm126 0v-1l1 1h-1zm-414-1h1l-1 1v-1zm294 0h1v1l-1-1zm-271 0c-1 0-1 0 0 0 0-1 1-1 0 0zm189 0v-1 1h-1 1zm86 0c1 0 0 0 0 0s-1 0 0 0zm115 0c1 0 1 0 0 0zm-437 0l1-1-1 1zm276-1v0zm21-1c0-2-1-5-3-6l-2-2-2-1v-2l1-3 1-1c1-2 3-4 5-4l2-1a12 12 0 017 1l4 4 1 1v8l-1 1-5 5h-1l-5 1h-2v-1zm137 1h0zm-404 0v-1 1h-1 1zm4 0l1-1-1 1zm397-1h-1 1l1 1c1 0 1 0 0 0l-1-1zm-99 0h1v1l-1-1zm-330 0l1-1v1h-1zm16-1l-2-1-2-1v-4l-1-1a16 16 0 01-7-2l-3-3-1-2-1-4 1-4 1-1 1-1 4-2 3-1 5 1 2 2 1 1c-1 1 0 5 1 6l1 1-1 1v1l1 2-1 2c-2 1-2 2-3 5l1 4v1h1v1l-1-1zm24 1h1-1zm293 0h0zm7-1c1 0 0 0 0 0zm6 0h0s-1 0 0 0zm3 0s-1 0 0 0zm77-1h-1 1l1 1-1-1zm-74 0v1-1zm-187 0l-1-1h1v1c1 0 0 1 0 0zm190 0h0zm2 0h1-1zm7-1h0zm59 0c1 0 1 0 0 0zm-418 0h1-1zm55-1h0v0zm-52 0h1v1l-1-1zm155 0zm-102-1c1 0 1 0 0 0 0 0 0 1 0 0zm358 0h0zm-178 0v-1 1zm133-1l-1-1 1 1 1 1-1-1zm-312 0h1-1zm180 0c1-1 1-1 0 0zm29-1l1-1v1l-1 1v-1zm-116 0h0s-1 0 0 0zm10-1c0 1 0 1 0 0zm-135 0l1-1v1h-1zm197 0l1-1v1h-1zm143-1v-1l2 2-2-1zm-311 1l1-1-1 1zm169-1l1-1v1h-1zm47 0l1-1-1 1zm-246-1v-1l2 1h-2zm219 0h0c-1 0 0 0 0 0zm162 0h0zm-334-1v0zm23 1h0zm4 0h0zm-72-1h1-1zm68 0v-2-1 3zm7 0c-1 0-1 0 0 0zm173 0h1-1zm-172 0h1-1zm174 0h1-1zm2 0h1-1zm85-1h-1 1l1 1-1-1zm-340 0l-1-2 1-1h1l-1 1v2s1 0 0 0c0 1 0 0 0 0zm84 0h-1 1zm-46-1v-1 1c0 1 0 1 0 0zm10 0zm290 0v-1 1l1 1-1-1zm-341 0v-1l1 1h-1zm-1 0l-1-1h1l1 1h-1zm11 0v-1c1 0 1 0 0 0v1zm-9-1h1-1zm61 0v-1 1zm277-1l-1-1 1 1h0zm-344-1l-1-1 1 1 1 1-1-1zm98 1l1-1-1 1zm145 0v-1 1zm-224-1h0zm-10 0l1-1h1v-1h1l-1 1v1h-1-1zm370 0c0-1 0-1 0 0h0zm-302-1l1 1-1-1zm-19 0v0zm283-1c-1-2-1-2 0 0l2 2-2-2zm-186 1v-1 1h-1 1zm-100 0h0zm193 0l1-1v1h-1zm-175-1h0zm302-1h0zm-271 0v-1 1h-1 1zm-39 0h1-1zm2 0zm307-1h-1 1l1 1-1-1zm-359 0c-1 0-1 0 0 0zm16 0c1 0 0 0 0 0zm4 0h0zm-23-1h1l-1 1v-1zm50 0v-1 1h0zm100 0h1-1zm175-1l-1-2 3 3-2-1zm-232 1h1c0-1 0-1 0 0h-1zm7 0h1-1zm2 0h1-1zm121 0v-1l1 1c1 0 1 0 0 0h-1zm3 0h1-2 1zm134 0c-1-1-1-1 0 0zm-301 0v-1c1 0 1 0 0 0v1zm169-1v1-1zm127 1zm-235-1l1-1-1 1-1 1 1-1zm101 0v0zm129 0c1 0 0 0 0 0zm9 0v-1 1zm-359 0v-1 1c-1 0 0 0 0 0zm229 0v-1h1l-1 1zm119 0h0zm-118-1h0zm117 0h0zm-192 0v-1 1zm76 0v-1h1l-1 1zm-151-1h0zm-20-1l1-1v1h-1zm122 1h0c-1 0-1 0 0 0zm164-1l1 1-1-1zm-235 0v0zm122 0l1-1-1 1c0 1 0 1 0 0zm-194 0c-1 0-1 0 0 0zm57 0v-3 3zm-111 0v-1h1l-1 1zm200 0l1-1v-1 1l-1 1zm160 0l1-1v1h-1zm-214-1v-1 1zm-110 0h0c-1 0-1 0 0 0zm10 0h1-1zm203 0v-1c1 0 1 0 0 0v1zm-248 0v-1c1 0 1 0 0 0v1zm262-1h1c0-1 0-1 0 0h-1zm96 0h0zm-233-1v0zm252 1v-1 1zm-208-1h1v1l-1-1zm80 0c0 1 0 1 0 0zm-238 0l-1-1 1 1h0zm-10 0h1c0-1 0-1 0 0h-1zm109-1v0zm139 0v0zm85 0c-1 0-1 0 0 0v0zm-249 0h0zm-13 0v-1l1 1h-1zm-69 0h1c0-1 0-1 0 0h-1zm261 0l1-1-1 1zm94 0v-1l1 1h-1zm19-1v0zm-293 0l1 1-1-1zm26 0h1l1-1-1 1-1 1v-1zm-105 0h0zm2 0h1-1zm153 0c0-1 0-1 0 0zm89-1c0-1 0-2 0 0v0zm-222 0l-6-5c-1-2 0-5 1-8a12 12 0 011-2l2-2 3-1h4l1 1 3 1c2 3 3 8 2 11l-5 5h-6zm41 0zm15 0c-1-1-1-1 0 0zm15 0h0s-1 0 0 0zm4 0h1c1 0 0 0 0 0h-1zm2 0h0zm161 0h0zm-284 0s-1 0 0 0zm148 0h1-1zm229-1h-1 1zm-277 0h0zm31 0h1-1zm-128-1h0v0zm131 1h0s-1 0 0 0zm51 0l1-1 1-1-1 1-1 1zm192 0v-1 1zm18 0v-1l-1-1-3-3c-1-1-2-2-3-1v-1h-5v-1-1l-1-1v-3l2-3 1-2 3-2 1-1h7l1-1v4l4 4 2 1c2 0 1 0 2 3l-2 5-3 3h-2l-2 1-1 1zm-403-1h0zm276 0v-1 1zm80 0c-1 0-1 0 0 0zm27 0v-1 1h0zm-156-1l-1-1 1 1 1 1-1-1zm12 1v-1h-1v-1h-1l-1-1v-1l-2-3-1-1v1-1l4-4 2-1 9-2 1 1 1 1 1 4v3l-1 2v1l-3 2-3 1h-3c0-1 0-1 0 0h-2zm-240-1h0zm107 0h0zm-11-1h-1 1l1 1-1-1zm40 1c1 0 0 0 0 0zm234 0h1-1zm3 0zm5 0h1c-1-1-1-1 0 0h-1zm5 0c0-1 0-1 0 0h1-1zm-238 0v-1c1 0 1 0 0 0v1zm230 0c-1 0-1 0 0 0zm-241-1v0zm4 0h1l-1 1v-1zm2 0c-1 1-1 1 0 0zm214 0c-1 0-1 0 0 0 1 1 0 1 0 0zm15 0h-1c-1 0-1 0 0 0h1v0zm11 0l2-1-2 1c-1 0 0 0 0 0zm-104 0s0-1 0 0c0 0 1 0 0 0zm111 0v-1 1zm-280 0l1-1 1 1h-1-1zm24-1v-1 1c1 1 1 1 0 0zm147 1v-1c1 0 1 0 0 0v1zm-264-1c1 0 1 0 0 0 0 1 0 0 0 0zm184 0c1 0 1 0 0 0 0 1 0 1 0 0zm77 0l1-1v1h-1zm-238 0v-1 1zm7 0l1-1v1h-1zm143-1h0v0zm123 1h0zm-311-1l-1-1 1 1c0 1 0 1 0 0zm16 0c0 1 0 0 0 0zm128 0v-1 1zm136 0l1-1-1 1zm35 0h1-1zm51 0c-1 0-1 0 0 0zm-49 0h1-1zm-116-1h1-1zm74 0l-1-1h1l1 1h-1zm46 0h1-1zm-40-1h0v0zm45 0h1v1l-1-1zm59 1l1-1-1 1zm-56-1zm17 0zm17-1l-1-1h1v1l1 1-1-1zm-142 1h1c0-1 0-1 0 0h-1zm40 0h1c0-1 0-1 0 0h-1zm71 0c1 0 1 0 0 0s-1 0 0 0zm12 0h1-1zm-233-1v0zm92 1v-1 1c-1 0-1 0 0 0zm132 0h0zm7 0h1-1zm-152-1h1l1-1-1 1h-1zm148 0h1l-1 1v-1zm-116 0l1-1h1-1l-1 1zm-206 0v-1 1zm136 0v-1c1 0 1 0 0 0v1zm-103-1s0-1 0 0zm214 0h1-1zm124 0h1-1zm-194-1v-1 1l-1 1 1-1zm15 0v0zm-115 0v-1 1zm174 0h1-1zm94 0c1 1 0 1 0 0zm0-1zm-312-1v0zm312 0v-2 2zm28-1s0-1 0 0 0 1 0 0zm-355 0h1-1zm112 0v-1 1zm270 0h0c-1 0-1 0 0 0zm-254-1v1-1zm36 0l1-1-1 1h-1 1zm162-1v-1 1zM47 99l1-1-1 1zm417-1l1-1-1 1-1 1 1-1zm-291-1c-2-1-2-2-2-4l-1-3h1l3-1c2-2 2-3 2-6l1-1h4c2 0 5 2 6 4l2 5-2 4-2-1c-4-1-7 0-10 3l-1 1-1-1zm16 1h1-1zM80 97l-1 1 1-1zm239 1h0zM50 97h1l-1 1v-1zm2 0h1l-1 1v-1zm381 0v-1 1zm-138 0h0zm20 0h1-1zm-123-1l-1 1 1-1zm105 1h0zm15 0s-1 0 0 0zm-13-1h1v1l-1-1zm10 0h1v1l-1-1zm-5 0h1-1zm-59-1v-1 1c0 1-1 1 0 0zm-99 0h1-1zm258-1h1-1zM87 94h0zm136 0h0c-1 0-1 0 0 0zm3 0h1-1zm2-1l1 1h-1v-1zm18 0h1l-1 1v-1zm221 0s0-1 0 0zm-62-1l1-1-1 1zm27 0c0-1 0-1 0 0zm35-1v0zm-230 1zm168-1l1-1v1h-1zm27 0v-1 1zm-189-1h0zm1 0h0zm1 0h1-1zm161-1h1v1l-1-1zm-239 0l-1-1 1 1zm271-1l-3-3-1-4v-1l2-1v-1h8l1 1 2 2-1 4-6 4-2-1zm-31 0c0 1 0 1 0 0zm44 0h0zm-286 0v-1l1 1h-1zm266 0l-1-1h1v1zm-24-1c0-1 0-1 0 0h1c1 0 1 0 0 0h-1zm45 0c1 0 1 0 0 0 0 1 0 1 0 0zm14 0c-1 0-1 0 0 0 0 1 0 0 0 0zm-37-1l-1-1 1 1c1 1 1 1 0 0zm-24 0l-1-1h1l1 2-1-1zm48 0h1v-1 1h-1zm-26-1l-1-1h1l1 1h-1zm35-1c-1 0-1 0 0 0zm-49 0h0zm44 0h1-1zm-33-1h0zm35 1h0zm-224-1c1 0 1 0 0 0zm-70-1v0zm69 1v-1 1zm4 0zm185 0zm-204-1v-4l1-1 3-3h1l2-1h5l-1 1v7h-4a77 77 0 01-6 2l-1-1zm14 0c0 1 0 1 0 0zm6 0c-1 0 0 0 0 0v0zm0-1h1v1l-1-1zm162 0l1 1-1-1zm-24 0zm-136 0zm134 0h0zm-210-1h1l-1 1v-1zm208 1h0zm8-1l1 1-1-1zm-10 0c1 0 0 0 0 0zm-130-1h1v1l-1-1zm125 0v0zm-2 0h0zm-198 0l1-1v1h-1zm196 0h0zm37 0v-1l1 1h-1zm-39 0h0zm-191-1c-1 0-1 0 0 0zm185 0h1-1zm24-1l-1-1 1 1 1 1-1-1zm-27 0h1l-1 1v-1zm-7-1c1 0 0 0 0 0zm52 0l-1-1 1 1h0zm-57 0h0zm-1-1c-1 0-1 0 0 0zm-3 0h1-1zm40 0v-1 1h0zm18-1c-1 0-1 0 0 0zm-66 0h0zm44-1h0zm20 0h0zm-111-1c-1 0-1 0 0 0v0zm110 0c1 1 1 1 0 0zm-158 0h0zm157 0v-1 1c1 0 0 0 0 0zm-48-1zm26 0s-1 0 0 0zm-37 0zm16 0s-1 0 0 0zm17 0h1c1 0 1 0 0 0h-1zm-128 0h0zm93 0c-1 0-1 0 0 0zm-8-1c-1 0-1 0 0 0 0 1 0 1 0 0zm-44 0v-1l1 1h-1zm-48-1v0zm109 0c1 0 0 0 0 0 0 1 0 1 0 0zm-13 0l-1-1 1 1zm35 0zm-84 0v-1 1zm94-1zm7 0s-1 0 0 0zm-27-1c0 1 0 1 0 0zm4 0l-1-1h1l1 1h-1zm9-1h1v1l-1-1zm-140-1v0zm16 0l1 1-1-1zm13 1l1-1-1 1zm100-1l1-1h1l-1 1c-1 0-1 0 0 0v1l-1-1zm3-1zm3 0c0-1 0-1 0 0h0zm-104 0v-1 1zm102 0v-1 1zm1-1h0zm-103-2v0zm103 1l1-1-1 1zm-134-1h1-1zm-75 0l-6-2-1-2h1l6-3 2-4v-3l-2-5-1-1h2l5 2c2 1 3 3 4 6l-1 5v1l-4 4-4 2h-1zm106-2h1v1l-1-1zm-30 0h1c0-1 0-1 0 0h-1zm30-1h0zm66-1h1c0-1 0 0 0 0h-1zm-92 0h2l-2 1v-1zm26 0v-1 1c1 0 1 0 0 0zm105-1v0zm-179 0v1-1zm2 0c1 0 0 0 0 0zm71 0v-1l1 1h-1zm90 0h1-1zm-90-1c-1 0-1 0 0 0zm-117-1h-1 1l1 1-1-1zm36 0l1 1-1-1zm68 0v-1h1v1h-1zm12 0h1-1zm-81 0v-1l1 1h-1zm80 0l1-1-1 1zm-9-1s0-1 0 0zm9 0l-1-1c-1-1-1-1 0 0l1 1zm-8-1h1c0-1 0-1 0 0h-1c0 1 0 1 0 0zm-54 0c1 0 1 0 0 0 0 0 0 1 0 0zm169 0l-1-1c-1-1-1-2-3-2l-3-1-2 1v-1-6l2-3 2-1h1l1-1h6l4 4-1 7v1l-4 3h-2zm-120 0c-1-1-1-1 0 0zm85 0c1-1 1-1 0 0zm-78-1c1 0 1 0 0 0zm1 0h2-2zm2 0h1-1zm13-2h0zm-29 0v-1l1 1h-1zm105-1c0-1 0 0 0 0 0 1 0 1 0 0zm-146-1c0 1 0 0 0 0zm65 0c-1 0-1 0 0 0v0zm-123 0v-1 1c-1 0 0 0 0 0zm93-1v0zm-1 0h0zm29 0l-1-1 1 1s1 0 0 0zm-120-1c0 1 0 0 0 0zm35-1v0zm74 1h3-2-1zm70 0l-3-3-3-2v-1c0-4 1-7 3-9l2-1 1-1h6l3 2 1 1 1 2c0 1 0 0 0 0v1l-1 2c-2 2-3 4-3 7v2h-7zm-92 0h1-1zm19-1h1a43 43 0 000 1l-1-1zm7 0h1l-1 1v-1zm-28 0zm30 0zm89-1s0-1 0 0v0zm-99 1l1-1v1h-1zm-26-1h1-1zm-3-1v0zm28 0v-1 1c0 1 0 0 0 0h0zm-80-1v-1 1c0 1-1 1 0 0zm79 0h0zm-100-1h0l-1 1zm65 1c0-1 0 0 0 0-1 0-1 0 0 0zm35-1l-1-1 1 1c0 1 0 0 0 0zm-39 0v-1l1 1h-1zm-54-1h0zm-45 0h0c-1 0-1 0 0 0zm3 0h1-1zm151 0c0-1 0 0 0 0zm-58 0c1 0 0 0 0 0zm-35-1l-1 1 1-1zm-2 0l1-1v1h-1zm-53 0h0zm67-1l1-1-1 1-1 1 1-1zm64 1v-1l1 1h-1zm-47-1l-1-1 1 1c0 1 0 0 0 0zm65-1v0zm-93 0l1-1-1 1v0zm26 0h1-1c1 1 0 1 0 0zm-78-1h1l-1 1v-1zm127 0h1l-1 1v-1zM89 35h0zm45 0zm50 0h0zm0 0zm51-1h1v-1 2l-1-1zm-100 0h1l-1 1v-1zm2 0v1-1zm5 0h1v1l-1-1zm20 0l1-2-1 2-1 1zm20 0c-1 0-1 0 0 0h1v1l-1-1zm149 0s-1 0 0 0c0 1 0 1 0 0zm-151 0l-1-1 1 1h0zm-20-1c-1 1-1 1 0 0zm18 1c-1 0-1 0 0 0zm-44-1h1c1 0 1 0 0 0h-1zm5 0h1-1zm38 0zm-42-1c0 1 0 0 0 0zm41 0h-1 1c0 1 0 1 0 0zm168 0h1-1zm-183-1h0v0zm77 0l1-1-1 1-1 1 1-1zm-36 0h0zm13 0c1 0 1 0 0 0zm-59 0h1-1zm30 0zm9 0zm-79-1v0zm32 1l1-1-1 1zm10 0h1-1zm9 0c0-1 0-1 0 0 0 0-1 0 0 0zm-81-1v-5 5zm138-1zm-108 0v-1 1zm26-1v1-1zm75 0h1l-1 1v-1zm30 0h1v1l-1-1zm-32 0c-1 0-1 0 0 0zm-103 0v-1 1zm27 0v-1l1 1h-1zm18 0c-1 0-1 0 0 0zm1 0h0zm-13-1h0zm16 0h1-1zm44 0c-1-1-1-1 0 0h0zm-36 0h0zm2 0h1-1zm-33-1h-1 1c0 1 0 1 0 0zm9 0l-1 1 1-1zm-30 0v-1 1zm89-1v-1l1 1h-1zm-94-1c0 1 0 0 0 0zm89-1l-1-1 1 1 1 1-1-1zm3 2v-1c1 0 1 0 0 0h1v1h-1zm-2-1h1-1zm-13 0h0zm-12-1c-1 0-1 0 0 0v0zm-40 0c0 1 0 0 0 0zm11-1v0zm43 1l1-1-1 1v1-1zm32 0l-1-2-2-1-1-4c-1-4 0-6 2-8s3-2 3-1l2 1 4 1h5c-1 0-1 0 0 0l1 1v8l-3 3c-1 2-1 2-6 2h-4zM86 22v-1 1c0 1 0 1 0 0zm25 1l1-1v1h-1zm21-1l1 1-1-1zm5-1l-1-1-2-1-1-2h-1v-4l1-2 1 1h3l3-1h2l1 2-1 3v1h-1l-2 1c0-1 0-1 0 0l-1 1-1 2c0 1 0 1 0 0zm74 1c1-1 1-1 0 0zm-91-1h0zm74 0v-1 1h-1 1zm62 0c1 0 1 0 0 0zm-108-1v0zm196 0h1-1zm-171 0c-1-1-1-1 0 0zm-86 0v-1h1l-1 1zm61-1v0zm112 0c1 0 1 0 0 0 0 1 0 1 0 0zm-47 0zm0-2v-1 1zM89 17l2-2-1 2-2 1zm58 0c-1 0-1 0 0 0 0 1 0 1 0 0zm100 0c0-1 0-1 0 0h0zm-135 0v-1 1zm11-2v0zm48 0v-1 1zm26-1v-1 1zm49-1h1v1l-1-1zm-123 0c0-2-1-4-3-5l-3-1-2 1c-1 1-1 1-2-2V2h-1 1l2-2h14v1c-1 1 0 6 1 7l-2 2-2 1v1h-2l-1 1zm88-1h0zm-111-1h1v1l-1-1zm71-1v0zm-58 0l1-1-1 1-1 1 1-1zm19 0h-1 1v0zm11-1l1-1v1h-1zm28-1c0-1 0-1 0 0zm52-3l1 1-1-1zm27 1l1-1v1h-1c-1 0-1 0 0 0zm5-1h0c-1 0-1 0 0 0zm-82-1c0 1 0 1 0 0zm22-1l-1-1h1v1zm27 0V2v1zm15-1l1-2h8l-1 1-5 2h-2l-1-1zm-62-1l1-1-1 1-1 1 1-1zm47 0v0zm-9-1c-1 1-1 0 0 0z" fill="#fe8988"/><path d="M264 346l-1-1-4-3c-1-1-2-2-2-5l1-4 2-2 1-1h1l1-1h5c1 1 4 2 4 4 2 2 2 5 1 7l-4 5-5 1zm-83-11c-4-1-7-4-7-8l1-2 3-6 4-1h3c0 1 0 0 0 0l1 1 4 4 1 2v5l-4 3-4 2h-2zm65-8l-4-2c-2-2-3-6-2-7v-2l3-3h8l4 4c1 3 0 6-1 8l-2 2-3 1-3-1zm32-3l-2-1-2-3-1-1v-5c0-2 2-3 4-5 3-1 5 0 7 1l3 2c2 3 1 9-2 11l-7 1zm-14-13l-2-1v-1c0-1 0-1 0 0h-1v-1-4l1-3 1-1h5c1 0 5 5 4 6l-3 5h-5zm-55-2a20 20 0 00-3 0v-1h-1l-1-1v-1h-1v-1h-1v-1l-1-1s0-1 0 0v-4-2l4-4 4-1c4-1 7 1 9 4l1 6-1 4-2 2-1 1h-6zm68-10a13 13 0 01-3 0l-3-2-1-3v-2c0-5 3-7 8-7h3a9 9 0 014 8v1c0 2-1 3-3 4-2 2-4 2-5 1zm-110-4l-2-1h-1v-1l-2-7 1-4 1-2 4-2h5l3 2v1l2 2v4c1 0 1 0 0 0v3l-2 2a9 9 0 01-9 3zm30-12l-6-3c-1-1-3-6-2-7 0-1 0-1 0 0h1v-1l2-4 2-2c3-1 7 0 8 1l1 1 2 2v9l-3 3-5 1zm49-6c-5-1-7-3-10-7-1-3-2-10 0-13 1-2 5-6 7-6h10l5 3c1 2 2 2 2 1l2-2v-1h3l5 2 2 1 2 4 4 1 5 3 2 4c1 5-1 7-5 9h-3c-3 0-4 0-6-2l-2-4h-6l-1-1-1 2-2 2-1 1-4 3h-8zm-140-7l-1-1h-1v-1l-4-3-1-5 2-5 5-3c0 1 0 1 0 0h2c2 0 4 2 6 4 1 2 2 3 1 5 0 3 0 4-2 6s-4 3-7 3zm12-25a12 12 0 01-2-3l-1-1-1-3 1-2v-1l1-1v-1h2l-1-1h2l4-1 4 1 3 7-1 3-2 3h-1v1h-1l-3 1h-2zm-22-4h-2-2c-4-1-7-6-5-10v-2c1-2 4-4 7-4h4c2 1 3 2 4 5v5l-2 4-1 1-3 1zm312-1a26 26 0 01-6-3l-2-1-2-3-1-1v-1l-1-7v-1-1l1-1 2-4c1-2 6-5 9-5s7 0 10 2l5 5 2 8c0 3 0 4-2 6l-2 3s0-1 0 0l-1 1h-1 0v1c1 0 1 0 0 0l-2 1-3 1h-6zm-69-10h-1l-3-2-1-2v-9l5-3h4l4 2 1 1 1 2 1 4-1 4-2 2-2 1h-6zm-151-3c-4-2-6-6-4-11l1-2 6-3c1 0 3 0 5 2l3 4-1 4v2h-1l-3 3-4 2-2-1zm122 0l-5-3-3-5v-6-1l1-1v-1c0 1 0 1 0 0l1-1v-1h1v-1h1l1-1h1v-1h5 2c4 0 7 2 8 6l2 5-1 3c0 3-1 5-4 6l-4 2h-6zm-202-12l-6-3-3-6v-9c1-3 2-4 6-7l1-1h3c4 0 6 0 8 2h2l1 1 2 2c1 1 3 6 2 8l-2 8c-2 2-4 4-6 4l-2 2-6-1zm132-1l-4-3-1-1v-4-3l1-2v-1l3-1 1-1h2v-1h2c-1 1 1 1 2 1l1 1h1l1 1 1 2 1 3v4l-2 2v1l-3 2h-6zm-75-2c-4-1-6-3-7-6v-2-1-1l2-3 1-1c1-2 2-2 5-2h3l2 1 3 4 1 4-1 4-3 3-4 1-2-1zm24-5l-6-3-1-7 1-3 2-1v-1c-1 0-1 0 0 0l1-1c0 1 0 0 0 0h1c-1 0 0 0 0 0l4-1 4 1 3 4 1 2v3c0 2-2 5-6 6l-4 1zm204-1h-1l-1-1-3-2-1-1-1-5v-1l4-5c2-1 4-2 6-1 3 0 6 2 6 3a78 78 0 001 2v3l-1 5c-1 1-3 3-5 3h-4zm23 0l-3-2v-7l-5-5v-7l6-5h7l3 1v1l3 5v3l-1 2-1 1-2 3v2l1 6c-1 1-1 2-4 2h-4zm30-7h-2-1v-1l-1-1-1-1-1-1-1-2v-1-1h0v-1l1-3 4-4h1l3-1 4 1h2c2 2 4 4 4 6l-3 7-1 2h-2v1h-1l-1 1h-1l-1-1-1 1-1-1zm-5-7l-1-1v1h1zm0-1l-1-1v1c0 1 0 0 0 0h1zm-228-3l-4-2-3-1-1-5h-1v-2l2-3 3-3 6-2 5 3 2 5v2l-1 2-1 2-3 3-4 1zm48-2l-3-2c-1-1-2-4-1-6l4-3 3-1 4 3 1 1v2c0 2-1 5-3 6h-5zm-73-2c-2-1-5-2-6-4l-1-4c0-3 0-4 2-6l3-2v-2l-2-4v-2c0-2 1-2 2-3l4-3h5v-3l1-4c1-3 4-7 7-8l3-1h5l6 2 1 1h1v1l1 1 1 2 1 4c1 5 0 8-3 11-2 3-4 4-8 5l-5-1-5-2c-1-1-1 0-1 1l-4 6-2 1 1 1c2 3 3 6 1 8l-1 3-5 2a480 480 0 00-2 0zm54-1c-2 0-4-1-5-3l-1-2v-2l2-6 4-2c2 0 3 0 5 2h1l2 2 1 3 1 1-1 2-3 4-3 1h-3zm-157-1h-1l-5-4v-7l1-2 2-2h1l2-1h2l1 1h1l4 4c1 3 0 6-1 8l-2 3h-5zm226 0l-5-3-2-1-1-5v-3h-1l-6-1c-2-1-5-6-5-8l1-5c1-3 6-5 11-6l5 2 3 4v8h2c2 0 3 1 5 3 2 1 3 6 3 8v1l-1 1v1h-1v1l-1 1-1 1-6 1zm-201-11l-5-3-1-3-1-5 1-5c1-2 2-3 5-4l4-1h4c4 2 4 2 4 0l2-2 5-2 4 3 1 5-2 3h-1l-4 1h-1v6l-3 5c-3 3-8 4-12 2zm-50-3l-3-1h-1l-2-2-1-1v-1c-1 1-1 0-2-1l-1-8 2-5v-1l3-3a31 31 0 002-2h1l2-1h6l5 2c1 1 1 1 0 0l-1-2v-3c1-3 1-4 3-5 2-2 3-3 5-2 2 0 2-1 0-1h-1l-1-1-3-3-1-6 3-4 4-2 6 2c2 2 3 5 2 8l-2 3v1l-1 1h-1l-2 1v1h1l1 1 1 1 1 2 1 1v3l-3 5c-2 2-6 3-8 2s-2 0-1 1l2 4v5c0 3-1 6-4 8a22 22 0 01-3 3h-9zm25-39h-1 1zm88 39c-2-1-3-3-3-5v-3l3-3 1-1 4 1c2 1 3 2 3 6 0 2-1 3-3 4s-4 2-5 1zm83-3l-1-2v-1l-1-4 2-3 3-1c2 0 4 0 5 2 2 1 2 2 2 4l-2 5-2 1h-5zm-164-1l-3-1c-4-2-6-5-6-8l1-4c1-3 3-5 5-6h8l2 2 1 1 1 2 1 3-1 5c-1 3-4 5-7 6h-2zm240-3a5095 5095 0 00-7-4l-2-6v-6c1-4 3-7 7-9l5-2h5l2 1 5 4c2 1 3 4 3 7v7l-1 1-1 1-1 2-1 1c1-1 1-1 0 0h-1l-1 1h0l-1 1h0l-2 1h-2c1 0 1 0 0 0h-1-1c0 1 0 1 0 0h-1c0 1 0 1 0 0h-2-2zm-3-15v0zm-193-6c-2 0-3-2-4-4l-1-4 2-2 4-2 4 2 1 1 1-1 2-2h6l3 3v4l-2 2-5 2-3-1-1-1-3 2-1 1h-3zm4-14l-2-2-3-4 2-4 4-2c3 0 6 3 6 6l-1 3c-1 2-3 3-6 3zm84-1c-5-1-5-1-5-4v-4l2-1c1 0 0 0 0 0l4-2 4 3 1 2c0 3-2 6-4 7l-2-1zm-21 0l-5-4v-5l2-1 3-1c3 0 4 0 5 2l1 4-2 3-2 1-2 1zm32-1l-4-3v-3l4-5 3-1 3 2 1 4-1 5h-1l-1 1h-4zm-48 0c-2-1-4-2-4-4v-1-1-1-1l1-1 1-1v-1h2v-1 1h1l4 2 1 1c2 2-1 7-3 8h-1-2zm123 0h1l-2-1h-1l-3-2c-2-1-3-4-3-6v-3c0-2 2-5 4-6 2-2 3-2 6-2h3l2 1 2 2 2 5h1v4l-1 2v1l-2 2-1 1h-1l-1 1c0-1 0 0 0 0h-1l-1 1h-2-2zm128-1l-1 1v-1c1 0 1 0 0 0l-3-1-3-5c1 0 1 0 0 0v-1h1l-1-1v-1-1l1-1c0-3 1-4 5-5l4-1 1 1c1-1 2 0 3 1l3 3 1 1 1 5c-1 3-4 6-7 6v1h-2l-3-1zm-171-3c-1 0-3-2-3-4v-4l3-2 3-1c1 0 2 0 3 2l2 2-1 3-3 4h-4zm-217-6c-3-1-6-4-6-7-1-1 0-4 1-6 2-3 4-3 6-3h3l5 3v8l-1 3-3 2h-5zm93-2l-3-2-2-4v-6a10 10 0 012-2l2-2 4-1 5 2 3 3v8l-2 2-2 1-5 1h-2zm273-1l-1-1h-1-1l-3-2-3-3v-1h-1l-1-2-1-6v-2l1-1v-1l1-1v-1l1-1 5-4 1-1h1l6-2 4 2h2l1 1 4 4 1 2 1 3v6c0 3-2 5-4 6a23 23 0 00-2 3l-2 1-1 1c0-1-1-1 0 0h-1-4-3zm4 0c-1 0-1 0 0 0zm-15-11v-1 1zm-226 10l-3-1c-3-4-4-5-2-9 1-3 5-6 8-6l5 1 3 4v6l-1 2-1 1-1 1-5 2-3-1zm5 0h-1v1l1-1zm-101-1l-4-4-1-3c0-3 1-4 3-6s3-2 5-2c3 0 5 2 6 5l1 4-1 3-4 4-5-1zm177-3c-2-1-2-2-2-5v-2l1-2 1-2h5l1-1 2-2 3-3h5c4 0 6 2 7 4l1 3 1 3h-1l-1 1c-2 3-5 6-8 6l-6-2h-1l-2 1-3 1h-3zm197-6l-2-1-4-4v-3l1-3c0-2 2-4 3-4l6-1 2 1c2 0 2 2 3 4v6l-2 3-3 2h-4zM168 90l-3-4-1-2 1-2 2-3 2-1 5 2 2 5-2 4c-1 1-3 2-6 1zm67-7h-1v-1h-1l-3-2v-5l3-3 3-1 3 1 3 4v3h-1v2c0-1 0 0 0 0h-1-1 1v1h-1s-1 0 0 0l-1 1h-2-1zm108-11l-3-1-3-2-8 2c-3 0-4-1-6-3-3-3-4-5-4-9l1-4 3-4v-1l-4-5 1-6 5-5 6 1 2 1c1 0 3 1 3 3l1 4-1 4c-1 1 0 1 1 2l2 1 3 5c0 1 1 2 1 0 0-3 3-6 6-7l4 1c3 1 4 2 5 6l-1 6-3 3h-1l-1 1h-1l-1 1-1 2-1 2-2 1-3 1zm12-9c-1 0-1 0 0 0zm-129 6c-4 0-4-1-4-5v-2l1-2 2-2h5l3 4c1 2-1 6-3 7h-4zm17 0c-3-2-5-3-6-6l1-6 2-3 1-1h-1 1v-1h1c0 1 0 1 0 0l3-1h1-1 3l1 1 1 1h1-1l1 1h1v1c0 1 0 0 0 0-1 0 0 0 0 0l1 1v2l1 1-1 2-3 7-5 1h-2zM138 56c-3-1-4-2-5-4v-6l2-5c2-2 3-2 6-2l4 1 4 5v5l-2 4-3 2h-6zm36-1c-3-1-4-1-5-4-2-3-2-6 0-11l5-5c2-1 4-2 6-1h2c-1 0-1 0 0 0h2v1h1l1 1 1 1 3 8-2 8-2 1v1l-3 1-5 1h-2l-2-2zm66-11h-1l-1-1v-1h-1v-1c-1 0-1 0 0 0h-1v-1l-1-1v-1-1-1c1 0 1 0 0 0v-1l1-1v-1l2-2c2-3 5-3 7-3h2l2 1 2 3c2 3 2 5 1 6l-1 2-1 3-2 1-1 1v-1h-1v1h-2l-4-1zm-117-4l-7-7v-5l3-6 2-1 5-1c4 0 7 2 8 5l1 4v4h-1s0 1 0 0l1 1c-1 0 0 0 0 0l-1 1-1 1-2 3-8 1zm-26-1l-7-3a13 13 0 01-2-3l-1-1-1-1v-5l1-6 1-1a17 17 0 018-6c2-1 3-2 5-1l6 2 5 10v5c-1 4-3 7-6 8l-3 1-6 1zm245-8c-2-1-3-5-2-7 1-3 2-3 5-4l4 1 1 1 1 2c1 2 1 4-1 6-1 1-2 2-5 2l-3-1zm-202-3l-1-1-2-3 1-5 1-1c0-1 0-1 0 0l2-1h5l2 1v2l-1 6c-2 2-5 3-7 2zm39-4c-3-1-7-4-8-7v-5l1-6 1-3 2-2 1-1h16l2 2 3 6v3a278 278 0 00-2 8 13 13 0 01-4 4l-2 1-3 1-7-1zm26 0h-1c1 0 1 0 0 0h-1l-5-5 1-5 3-3c2-2 5-2 8 0l2 2 1 4v3l-1 1-6 4-1-1zm47-3l-3-3-1-1-1-3V9l1-1 3-3h3l5 1h1l3 5-1 5c0 2-2 3-4 4l-6 1zm-137-2c-2-1-4-3-4-5l3-5 3-2 3 1c2 1 3 3 3 5l-1 5-5 2-2-1zm18-8l-4-5V0h15l1 1c0 3 0 5-2 8l-2 2-4 1-4-1zm93-3l-3-4-1-4h16l-1 1c0 3 0 5-2 6-1 2-2 2-5 2l-4-1zM107 1l-1-1h9l-4 2-4-1zm102-1h4-4z" fill="#fd0100"/><path d="M236 331a31 31 0 01-2-19l1-10a64 64 0 010-9l3-6 8-7 2-1 5-2c1 0 4-1 5-3l3-4 1-1 1 1a237 237 0 00-1 32c-2 2-2 5-1 7l1 5a146 146 0 01-1 15 65 65 0 01-1-8l-1-4a952 952 0 00-2-39l-5 3-4 2a72 72 0 00-10 15v11l-1 2a702 702 0 01-1 20zm-20-4a67 67 0 00-2-6c-1-3-2-4-4-5l-2-2h-1a20 20 0 01-4-3l-3-2a323 323 0 00-18-17 185 185 0 010 9v8l2 6v3c-2 0-2 0-4-3l-1-2c-2-3-2-9-2-12l1-6a38 38 0 011-7l-1-3-1-2v-1l-1-1-1-1-2-2-1-1a136 136 0 011-19v-2l1-3h1v-1-1l2-6c2-4 6-9 8-9l5-3a80 80 0 009-3l2-1h2l1-1c5-1 10-6 12-12l2-6-3-2h-1l-2-1a69 69 0 00-5-2l-6-3-2-1v-2l-2-6c-2-2-3-3-7-3l-4 1-2 1-1 1v1l-3 1-2-1-3 1a681 681 0 01-5 1h-7l-5 6v2l-8 8a366 366 0 01-20 18h-3l-5 1h-3l-1 1c-1 0-3 1-3 3l-2 2-2 3a1267 1267 0 01-5 12h-1v-2a2032 2032 0 002-11l6-8 5-4 9-1 6-3 1-1 4-2a1202 1202 0 0119-23l-3-1c-7 0-8 0-12-2-3-2-6-2-10-1a25 25 0 00-7 2l-2 1-1-1v-1l1-1 7-5h8l5 2 7 1 10-1h4l1-1 6-3h14c11 1 11 1 15 5l2 2h7l11 2 8 2h4l3-1 12-4a54 54 0 0011-3h2l8-1a228 228 0 008 0l5 1c5 0 6 1 9 2l6 3 6 1 3 1a137 137 0 0014-17l1-1a67 67 0 016-10l5-5 1-1h3l4-1 6-2 2-2 1-1 4-5a628 628 0 0016-3 132 132 0 0113-2 128 128 0 0137-4h4a58 58 0 007-2 1726 1726 0 01-36-34h-23a561 561 0 01-26 5l-3 1-3 2-4 5c-3 4-7 7-11 9l-5 1-5 2a77 77 0 00-14 7l-6 4a77 77 0 00-15 22 59 59 0 01-6 10l-2 3h-2l1-4v-7l-1-1a104 104 0 01-4 1l-2 2-2 1-3 3-5 4-1-1-1-3-1-2 4-3c3-2 3-2 4-1h5l2-1 2-5 2-3 3-3 3-6a18 18 0 012-4l3-3 6-6a139 139 0 0113-6 719 719 0 0012-5l6-1 2-1 4-4v-4l2-6 5-7v-1l-1-1a21 21 0 00-3 0h-1l-3-1-6-1a249 249 0 01-12-1 742 742 0 01-15 2c-4 1-4 1-4-2l-1-3c-1-2-3-4-7-4h-5l-3 3-2 2-1 1h-5l-1 2-1 3v1l-2 1-2 1h-1-1l-5 2-2 2-4 4-3 2c-2-1-3 0-5 2s-3 4-1 6v2l-2 4-3 6-3 7-1 2-2 2-1-1-1-1v-4a48 48 0 003-5 1523 1523 0 0015-30l4-4 1-1 2-2 4-5 1-2-5 1-8 2a95 95 0 01-18 3h-1a416 416 0 01-17 7l-7 5-3 3c-1 2-2 3-3 2-1 0-2 0-3 3-2 2-2 2-1 4l-1 3a22 22 0 01-5 5l-2 1v1h-1l-2 2a6158 6158 0 00-9 3l-9 1v-2-2l7-3 4-2 3-2 2-1-4-2-2-1-2-2c-3-1-8-5-9-7v-1h1c8 3 14 4 21 4 4 0 4 0 6-2l2-1 2-1 3-2 1-1 2-5-1-2v-2l8-8c6-4 10-5 22-7a179 179 0 0010-2l3 1c3 2 4 2 6 0 2-1 3-2 3-4l15-1a387 387 0 0027-1l-2-2a215 215 0 01-9-7l-6-2h-1l-1-1-5-1-3-1-3-1v-2l-2-4-4-4h-2l-6 2h-2a1685 1685 0 01-5-4 194 194 0 00-19-5 125 125 0 01-19-5 70555 70555 0 00-24-8c-5-1-4-1-7 1l-6 6c-1 3-1 2 0 0l3-6 1-2-5 1h-2a61 61 0 00-7 3 36 36 0 01-13 0v-1h3a30 30 0 0013-3l1-1a15 15 0 011 0l10-2a78 78 0 008 0h2l1 1h1l5 2 12 1a91 91 0 0136 6l3 1-3-2-9-4a60 60 0 01-10-3l-7-5 6 2 11 3 10 1 6 3v2l1 5 4 5h10l4 1 2 2 5 2h1a145 145 0 0015 4 103 103 0 0117 5 101 101 0 0121 9 279 279 0 0014 6 238 238 0 0124 4 318 318 0 0029 3l-4-4-3-3a166 166 0 01-10-3h-2-1v-1a15 15 0 00-4-1l-2-1-5-3h1l3-2 3 1c1 2 1 2 7 3l12 1c5 0 6 1 11 3a69 69 0 014 3l8 6 5 5 2 3v1c-2 3-3 5-3 8 0 5 1 6 4 9a19 19 0 006 4l5 1 7-1h1l3 2 1 3 1 4 1 2 1 1h1v1h11l3 2a39 39 0 004 3l2 1 2 2 2 1 2 1 1 1a404 404 0 0126 12l1 1 4 1a195 195 0 0114 6h1v46l-3-1-5-2a383 383 0 01-12-1l-5-1-1 1-2 2-8 7-2 2a98 98 0 00-8 12l-3 4a79 79 0 00-8 5l-3 2-2 2-2 1a31 31 0 01-7 3 29 29 0 01-4 1l-13 1 1-2 3-1 3-1 3-1 5-1c3-1 5-2 9-6a77 77 0 017-6l1-3 1-2v-1l1-1c-1 0 0 0 0 0l1-3 2-3h-2v-1h-1a53 53 0 01-9-5l-7-4-7-1h-7l1-1 1-2 1-1 3-1 8 1h1v1l1 3 3 3 5 1 5-2h3l4 2c3 0 3 0 5-2l3-1 1-1 5-3 4-2 5-3 3-1a19 19 0 00-4-3l-4-3a79 79 0 01-14-10l-3-1-1-2a121 121 0 01-7-6l-2-1-6-2a312 312 0 00-45-1l-34-1c-8 0-8 0-15 3-4 2-9 7-14 12l-1 3a54 54 0 01-10 15l-4 4-6 8-4 2a16 16 0 00-4 1l-2 1v1l-3 3-2 6v2l-7 3-11 7a61 61 0 00-6 9 110 110 0 00-9 15h-3c-3 0-3 0-2-2v-1l1-3a26 26 0 012-3 44 44 0 002-6v-2l3-6h1l3-2 5-4v-1l2-2 3-2 7-3 4-2v-1l1-1v-1l1-2-3-3a402 402 0 01-13-6l-9-2h-3a153 153 0 00-19 5l-2-2-2-2h-8l-4 4-1 6v2a187 187 0 00-9 12c-3 4-7 9-9 9a178 178 0 01-31 12l-4 7a1151 1151 0 01-4 9l-2 3 1 2v12l1 1 2 3a106 106 0 009 10l2 2 9 9 2 3 1 2 4 2 1 2 4 3 3 3 1 1v1l1 7 1 3v1l-1-2zm-14-144l1-7a47 47 0 012-11l1-1 1 1v2a179 179 0 00-3 13l-1 2v1h-1zM85 165c1-3 1-4 2-3h1l-1 2-2 2v-1zm16-17l-1-1 2-1 2-2h1l8-6 5-8 1-2v-2l-2-1h-12a76 76 0 00-9 3l-9 6-2 1-1-1-1-1-1-1 4-4 2-1 2-2a59 59 0 0113-5 63 63 0 0126 1l12 6 2 1h1l-2 2h-1l-4-2h-5l-3-1-5-1h-1v2l-2 3-1 3c-1 2-2 5-5 7l-4 4-2 1h-1l-6 3-1-1z" fill="#5a4a3c"/></g></svg>