<svg xmlns="http://www.w3.org/2000/svg" viewBox="0 0 10.6 10.6" height="40" width="40">
  <path d="M5.8 1l-.9.7-.1.2-.7.7.8.8.9.8V3a2.4 2.3 0 011.9 2.3 2.4 2.3 0 01-2.4 2.3 2.4 2.3 0 01-2.4-2.3 2.4 2.3 0 01.9-1.8l-.8-1a3.6 3.5 0 00-1.3 2.8 3.6 3.5 0 003.6 3.5 3.6 3.5 0 003.6-3.5 3.6 3.5 0 00-3.1-3.5z" opacity=".5" fill="gray" />
  <animateTransform 
      attributeName="transform" 
      attributeType="XML"
      type="rotate"
      from="0 0 0"
      to="-360 0 0" 
      dur="0.5s"
      begin="0s"
      repeatCount="indefinite"
      />
</svg>
